<svg width="448" height="452" viewBox="0 0 448 452" fill="none" xmlns="http://www.w3.org/2000/svg">
<path d="M305.974 220.348L305.974 205.92L282.631 205.92L282.631 220.348C282.631 251.537 256.956 276.953 224.279 276.953C191.601 276.953 165.924 251.54 165.924 220.348L165.924 205.92L142.583 205.92L142.583 220.348C142.583 265.4 179.93 302.366 224.279 302.366C268.628 302.366 305.974 265.4 305.974 220.348Z" fill="#F9D2FF"/>
<path d="M269.664 188.9L269.664 163.938L244.702 163.938L244.702 188.9L269.664 188.9Z" fill="#F9D2FF"/>
<path d="M206.124 188.9L206.124 163.938L180.027 163.938L180.027 188.9L206.124 188.9Z" fill="#F9D2FF"/>
<path fillRule="evenodd" clipRule="evenodd" d="M44.3759 353.339C84.5541 408.555 149.681 444.444 223.19 444.444L223.19 445.883C149.192 445.883 83.6338 409.748 43.1978 354.165L40.3768 356.141L39.6502 347.869L47.1779 351.376L44.3759 353.339Z" fill="#F9D2FF"/>
<path fillRule="evenodd" clipRule="evenodd" d="M2.18994 223.447C2.18993 262.893 12.524 299.923 30.6321 331.98L29.3797 332.687C11.1529 300.42 0.751534 263.147 0.751537 223.447C0.751541 186.316 9.84994 151.308 25.9395 120.533L22.9158 118.883L30.0059 114.559L30.2055 122.861L27.2023 121.222C11.2251 151.791 2.18994 186.563 2.18994 223.447Z" fill="#F9D2FF"/>
<path fillRule="evenodd" clipRule="evenodd" d="M177.219 7.2399C120.764 19.1811 72.2614 52.6756 40.7269 98.7109L39.5402 97.898C71.2827 51.559 120.11 17.8424 176.946 5.82728L176.294 2.44487L184.142 5.1606L177.866 10.5993L177.219 7.2399Z" fill="#F9D2FF"/>
<path fillRule="evenodd" clipRule="evenodd" d="M368.171 55.6992L365.335 47.8939L363.119 50.5315C329.172 23.0255 286.965 5.31363 240.798 1.69703L240.8 1.67982C231.928 0.979835 223.092 0.821517 214.333 1.1828C211.01 1.31286 207.705 1.51585 204.421 1.7902L204.423 1.81507C203.823 1.86697 203.223 1.92132 202.623 1.97809L202.73 3.41279C206.605 3.04546 210.499 2.78032 214.408 2.61936C217.32 2.50566 220.246 2.44828 223.185 2.44828C275.857 2.44828 324.224 20.8744 362.194 51.633L359.993 54.2527L368.171 55.6992Z" fill="#F9D2FF"/>
<path fillRule="evenodd" clipRule="evenodd" d="M448 201.383L444.43 208.881L439.722 202.04L443.132 201.769C438.121 150.3 415.454 104.003 381.263 69.0114L382.291 68.0062C416.709 103.23 439.527 149.839 444.566 201.655L448 201.383Z" fill="#F9D2FF"/>
<path fillRule="evenodd" clipRule="evenodd" d="M412.377 346.894L404.902 350.512L405.507 342.229L408.337 344.151C430.286 310.551 443.336 270.61 444.141 227.672L445.579 227.699C444.769 270.924 431.628 311.135 409.527 344.959L412.377 346.894Z" fill="#F9D2FF"/>
<path fillRule="evenodd" clipRule="evenodd" d="M249.251 447.84L241.69 444.403L248.447 439.574L248.778 442.979C306.686 436.301 357.78 407.239 393.185 364.663L394.291 365.583C358.652 408.439 307.216 437.695 248.917 444.411L249.251 447.84Z" fill="#F9D2FF"/>
<path d="M218.207 435.044C217.646 435.024 217.124 434.937 216.632 434.776C216.14 434.614 215.702 434.389 215.31 434.094C214.918 433.799 214.58 433.44 214.297 433.017C214.013 432.594 213.808 432.11 213.665 431.567L215.385 431.625C215.627 432.252 216.004 432.723 216.5 433.049C217.002 433.367 217.581 433.548 218.247 433.568C218.785 433.584 219.287 433.503 219.745 433.318C220.203 433.132 220.6 432.869 220.935 432.529C221.271 432.188 221.535 431.795 221.733 431.332C221.93 430.87 222.039 430.381 222.052 429.859C222.052 429.317 221.969 428.807 221.804 428.337C221.639 427.867 221.402 427.45 221.096 427.099C220.788 426.742 220.414 426.458 219.972 426.249C219.53 426.039 219.039 425.923 218.502 425.906C217.827 425.88 217.23 426.012 216.719 426.306C216.207 426.593 215.803 427.038 215.508 427.648L213.789 427.591C213.964 427.058 214.212 426.585 214.52 426.182C214.835 425.778 215.201 425.439 215.613 425.18C216.033 424.92 216.49 424.728 216.983 424.603C217.476 424.478 217.998 424.422 218.552 424.443C219.318 424.473 220.019 424.628 220.66 424.924C221.301 425.221 221.842 425.62 222.298 426.113C222.753 426.605 223.106 427.179 223.346 427.83C223.586 428.48 223.701 429.178 223.676 429.929C223.646 430.695 223.491 431.397 223.202 432.036C222.914 432.676 222.516 433.225 222.024 433.68C221.532 434.136 220.956 434.481 220.301 434.73C219.65 434.963 218.95 435.07 218.207 435.044Z" fill="#F9D2FF"/>
<path d="M212.842 427.867C212.802 428.365 212.666 428.83 212.445 429.252C212.224 429.674 211.932 430.043 211.583 430.356C211.234 430.669 210.831 430.903 210.383 431.064C209.935 431.224 209.459 431.286 208.953 431.24C208.447 431.194 207.998 431.061 207.582 430.832C207.166 430.602 206.81 430.299 206.517 429.939C206.223 429.571 206.003 429.165 205.848 428.708C205.693 428.25 205.646 427.771 205.686 427.274C205.726 426.776 205.863 426.311 206.084 425.889C206.305 425.467 206.588 425.092 206.945 424.785C207.303 424.477 207.697 424.238 208.145 424.077C208.593 423.916 209.062 423.857 209.567 423.895C210.064 423.935 210.521 424.074 210.945 424.302C211.361 424.532 211.724 424.833 212.017 425.193C212.31 425.554 212.531 425.967 212.686 426.425C212.841 426.882 212.882 427.37 212.842 427.867ZM209.45 425.221C209.16 425.199 208.874 425.235 208.609 425.335C208.344 425.436 208.111 425.582 207.897 425.784C207.689 425.978 207.52 426.216 207.39 426.491C207.259 426.767 207.178 427.07 207.15 427.406C207.121 427.736 207.149 428.054 207.232 428.345C207.315 428.637 207.444 428.896 207.619 429.123C207.794 429.35 208.005 429.532 208.246 429.678C208.494 429.822 208.759 429.903 209.051 429.933C209.343 429.962 209.627 429.919 209.885 429.82C210.15 429.72 210.39 429.572 210.598 429.379C210.806 429.185 210.975 428.947 211.115 428.677C211.253 428.4 211.333 428.097 211.362 427.768C211.39 427.431 211.356 427.122 211.273 426.83C211.182 426.533 211.053 426.274 210.879 426.054C210.704 425.827 210.501 425.643 210.253 425.499C210.015 425.33 209.741 425.244 209.45 425.221Z" fill="#F9D2FF"/>
<path d="M203.586 430.639L202.124 430.446L202.227 429.672C202.229 429.649 202.219 429.636 202.202 429.624C202.184 429.613 202.163 429.617 202.142 429.629C202.088 429.693 201.998 429.765 201.874 429.858C201.75 429.951 201.604 430.042 201.44 430.121C201.268 430.202 201.078 430.264 200.87 430.314C200.661 430.358 200.437 430.366 200.206 430.339C199.888 430.292 199.616 430.213 199.387 430.087C199.158 429.962 198.979 429.826 198.838 429.689C198.695 429.546 198.592 429.409 198.511 429.276C198.438 429.14 198.388 429.045 198.368 428.982C198.341 428.927 198.318 428.924 198.298 428.973C198.251 429.036 198.156 429.123 198.02 429.227C197.883 429.33 197.709 429.434 197.488 429.525C197.274 429.622 197.018 429.69 196.735 429.742C196.452 429.793 196.136 429.791 195.782 429.751C194.976 429.64 194.389 429.31 194.038 428.743C193.68 428.177 193.575 427.379 193.715 426.349L194.262 422.277L195.724 422.47L195.177 426.542C195.02 427.711 195.379 428.352 196.254 428.472C196.695 428.531 197.09 428.404 197.454 428.095C197.819 427.786 198.042 427.303 198.13 426.638L198.639 422.852L200.101 423.046L199.553 427.118C199.478 427.698 199.535 428.153 199.731 428.481C199.925 428.802 200.244 428.999 200.677 429.052C201.118 429.112 201.512 428.985 201.877 428.676C202.242 428.367 202.465 427.884 202.553 427.218L203.062 423.433L204.524 423.626L203.586 430.639Z" fill="#F9D2FF"/>
<path d="M191.067 428.862L189.619 428.59L189.78 427.736C189.781 427.706 189.777 427.684 189.759 427.673C189.742 427.662 189.719 427.659 189.7 427.678C189.621 427.732 189.509 427.808 189.362 427.898C189.216 427.989 189.039 428.078 188.837 428.158C188.628 428.239 188.4 428.301 188.152 428.337C187.897 428.375 187.632 428.37 187.357 428.314C186.903 428.227 186.492 428.057 186.129 427.793C185.766 427.53 185.459 427.21 185.222 426.83C184.985 426.45 184.822 426.025 184.725 425.556C184.627 425.087 184.637 424.588 184.734 424.079C184.826 423.578 185.002 423.12 185.262 422.705C185.522 422.29 185.829 421.955 186.186 421.685C186.546 421.423 186.942 421.228 187.377 421.115C187.812 421.002 188.26 420.985 188.714 421.071C188.996 421.125 189.247 421.209 189.48 421.319C189.706 421.43 189.912 421.553 190.081 421.676C190.251 421.806 190.389 421.928 190.497 422.049C190.604 422.169 190.684 422.266 190.728 422.332C190.741 422.359 190.757 422.363 190.777 422.352C190.798 422.34 190.803 422.331 190.808 422.315L191.511 418.595L192.958 418.867L191.067 428.862ZM188.607 422.403C188.341 422.353 188.072 422.363 187.81 422.44C187.547 422.517 187.301 422.636 187.081 422.809C186.862 422.983 186.665 423.197 186.51 423.462C186.354 423.728 186.241 424.015 186.181 424.343C186.121 424.672 186.117 424.981 186.166 425.287C186.22 425.584 186.322 425.857 186.462 426.099C186.61 426.339 186.787 426.543 187.009 426.708C187.224 426.874 187.472 426.981 187.738 427.031C188.012 427.08 188.28 427.069 188.551 426.998C188.822 426.927 189.083 426.805 189.317 426.628C189.553 426.459 189.756 426.244 189.928 425.982C190.092 425.723 190.211 425.427 190.273 425.106C190.334 424.784 190.335 424.461 190.272 424.158C190.209 423.854 190.1 423.583 189.937 423.339C189.78 423.093 189.587 422.885 189.357 422.721C189.128 422.558 188.88 422.452 188.607 422.403Z" fill="#F9D2FF"/>
<path d="M179.175 426.584C178.686 426.474 178.263 426.284 177.893 426.022C177.522 425.76 177.231 425.444 177.005 425.077C176.786 424.708 176.632 424.296 176.563 423.851C176.492 423.4 176.507 422.93 176.625 422.446C176.649 422.343 176.674 422.248 176.71 422.165C176.738 422.084 176.768 422.01 176.792 421.945C176.822 421.871 176.846 421.806 176.864 421.749L182.158 422.977C182.17 422.742 182.149 422.498 182.082 422.248C182.016 421.999 181.917 421.778 181.768 421.568C181.62 421.358 181.441 421.185 181.22 421.027C180.999 420.87 180.743 420.757 180.458 420.688C180.111 420.61 179.826 420.579 179.606 420.609C179.386 420.632 179.207 420.677 179.068 420.736C178.916 420.797 178.792 420.891 178.709 420.998L177.129 420.633C177.393 420.308 177.706 420.04 178.074 419.82C178.38 419.629 178.755 419.476 179.206 419.367C179.656 419.252 180.17 419.265 180.755 419.4C181.244 419.509 181.677 419.713 182.061 420.002C182.444 420.292 182.757 420.641 183.001 421.057C183.251 421.464 183.413 421.92 183.499 422.406C183.585 422.892 183.567 423.385 183.452 423.883C183.335 424.374 183.139 424.806 182.865 425.187C182.583 425.569 182.25 425.886 181.872 426.13C181.486 426.376 181.061 426.539 180.598 426.627C180.141 426.707 179.666 426.7 179.175 426.584ZM181.82 424.176L177.916 423.27C177.89 423.757 178.011 424.198 178.258 424.591C178.512 424.983 178.911 425.239 179.457 425.366C180.002 425.494 180.479 425.433 180.881 425.199C181.284 424.965 181.595 424.614 181.82 424.176Z" fill="#F9D2FF"/>
<path d="M175.956 418.397L174.083 425.22L172.663 424.829L172.873 424.063C172.877 424.047 172.873 424.026 172.861 424.005C172.85 423.985 172.826 423.983 172.799 423.996C172.711 424.044 172.603 424.104 172.461 424.179C172.318 424.253 172.151 424.318 171.952 424.375C171.762 424.437 171.543 424.467 171.306 424.486C171.069 424.505 170.822 424.473 170.567 424.406C169.745 424.177 169.164 423.733 168.832 423.072C168.499 422.411 168.462 421.614 168.714 420.688L169.806 416.706L171.226 417.097L170.133 421.079C169.997 421.581 170.022 422.028 170.217 422.424C170.412 422.82 170.736 423.076 171.199 423.206C171.741 423.357 172.219 423.303 172.633 423.052C173.048 422.8 173.346 422.355 173.521 421.709L174.538 418.013L175.956 418.397Z" fill="#F9D2FF"/>
<path d="M167.883 418.275L166.522 417.842C166.557 417.646 166.541 417.461 166.498 417.29C166.452 417.141 166.36 416.987 166.23 416.834C166.101 416.68 165.888 416.558 165.597 416.461C165.203 416.339 164.881 416.346 164.617 416.491C164.361 416.634 164.191 416.827 164.115 417.076C164.047 417.294 164.08 417.49 164.22 417.657C164.354 417.832 164.539 417.997 164.768 418.16C164.997 418.323 165.251 418.497 165.521 418.674C165.791 418.851 166.037 419.056 166.244 419.292C166.45 419.527 166.61 419.788 166.701 420.085C166.8 420.381 166.783 420.73 166.661 421.124C166.583 421.366 166.458 421.596 166.274 421.799C166.091 422.003 165.877 422.168 165.616 422.289C165.363 422.41 165.078 422.484 164.751 422.506C164.432 422.527 164.1 422.483 163.754 422.374C163.166 422.188 162.731 421.939 162.463 421.626C162.195 421.313 162.01 421.005 161.919 420.708C161.83 420.35 161.805 419.979 161.869 419.597L163.111 420.001C163.07 420.168 163.08 420.324 163.133 420.471C163.175 420.598 163.269 420.729 163.414 420.879C163.556 421.023 163.792 421.147 164.107 421.248C164.267 421.297 164.413 421.312 164.545 421.292C164.683 421.271 164.803 421.231 164.904 421.173C165.004 421.114 165.095 421.043 165.166 420.953C165.238 420.863 165.281 420.778 165.309 420.697C165.371 420.489 165.332 420.301 165.191 420.127C165.049 419.953 164.863 419.781 164.625 419.612C164.394 419.442 164.132 419.263 163.854 419.087C163.576 418.904 163.33 418.699 163.116 418.465C162.902 418.231 162.743 417.97 162.644 417.675C162.545 417.379 162.563 417.029 162.683 416.628C162.775 416.346 162.912 416.099 163.106 415.878C163.301 415.657 163.53 415.489 163.81 415.356C164.093 415.23 164.409 415.157 164.767 415.143C165.125 415.129 165.514 415.191 165.925 415.324C166.246 415.423 166.52 415.547 166.744 415.681C166.976 415.821 167.165 415.97 167.317 416.126C167.47 416.283 167.587 416.447 167.673 416.61C167.761 416.78 167.825 416.94 167.865 417.097C167.984 417.493 167.981 417.878 167.883 418.275Z" fill="#F9D2FF"/>
<path d="M159.036 417.574C158.777 417.522 158.495 417.468 158.188 417.404C157.881 417.339 157.601 417.292 157.339 417.263C157.07 417.236 156.845 417.238 156.65 417.278C156.455 417.319 156.33 417.405 156.278 417.551C156.169 417.86 156.197 418.14 156.355 418.393C156.513 418.647 156.819 418.854 157.265 419.01C157.489 419.076 157.708 419.114 157.911 419.117C158.086 419.126 158.268 419.095 158.465 419.032C158.663 418.968 158.837 418.827 158.99 418.622L160.239 419.063C160.051 419.388 159.799 419.659 159.487 419.859C159.224 420.041 158.89 420.171 158.466 420.266C158.042 420.362 157.541 420.307 156.954 420.121C156.528 419.991 156.168 419.817 155.858 419.588C155.554 419.357 155.32 419.097 155.151 418.793C154.99 418.488 154.893 418.162 154.87 417.798C154.847 417.434 154.904 417.053 155.052 416.646L156.573 412.335L157.962 412.829L157.716 413.528C157.927 413.424 158.161 413.353 158.406 413.302C158.615 413.259 158.86 413.245 159.138 413.24C159.417 413.243 159.713 413.294 160.022 413.403C160.362 413.521 160.661 413.692 160.915 413.903C161.169 414.114 161.369 414.351 161.512 414.607C161.656 414.863 161.748 415.13 161.775 415.403C161.81 415.682 161.78 415.936 161.695 416.18C161.501 416.732 161.165 417.14 160.691 417.396C160.231 417.642 159.672 417.706 159.036 417.574ZM159.406 414.532C158.847 414.339 158.355 414.328 157.928 414.515C157.5 414.701 157.158 415.156 156.902 415.879L156.787 416.196C156.783 416.212 156.78 416.235 156.792 416.256C156.803 416.276 156.819 416.28 156.839 416.268C156.963 416.212 157.129 416.178 157.326 416.183C157.522 416.187 157.722 416.206 157.931 416.238C158.141 416.269 158.345 416.31 158.55 416.358C158.762 416.397 158.948 416.426 159.123 416.435C159.421 416.456 159.662 416.421 159.853 416.328C160.045 416.236 160.191 416.07 160.276 415.827C160.352 415.615 160.319 415.381 160.19 415.122C160.061 414.863 159.795 414.67 159.406 414.532Z" fill="#F9D2FF"/>
<path d="M151.339 417.892L150.485 420.086L149.249 419.604L150.103 417.41L148.729 416.875L149.21 415.639L150.584 416.174L151.913 412.753C152.013 412.507 152.01 412.274 151.913 412.061C151.816 411.847 151.656 411.692 151.411 411.6C151.321 411.566 151.233 411.539 151.152 411.511C151.071 411.483 150.994 411.476 150.925 411.468C150.838 411.448 150.759 411.427 150.691 411.426L151.176 410.174C151.268 410.185 151.364 410.21 151.468 410.241C151.642 410.281 151.875 410.353 152.17 410.472C152.792 410.712 153.204 411.07 153.393 411.543C153.588 412.014 153.55 412.594 153.287 413.281L151.945 416.713L153.18 417.194L152.699 418.43L151.339 417.892Z" fill="#F9D2FF"/>
<path d="M145.439 415.517L148.154 408.986L149.497 409.551L146.782 416.082L145.439 415.517ZM146.221 417.44L145.653 418.8L144.302 418.237L144.87 416.877L146.221 417.44Z" fill="#F9D2FF"/>
<path d="M145.182 411.597C144.976 412.053 144.696 412.443 144.343 412.772C143.99 413.101 143.597 413.348 143.161 413.528C142.723 413.702 142.267 413.789 141.786 413.791C141.305 413.793 140.839 413.686 140.382 413.48C139.926 413.273 139.544 412.991 139.23 412.635C138.915 412.279 138.681 411.876 138.529 411.433C138.377 410.99 138.304 410.531 138.31 410.048C138.324 409.571 138.429 409.098 138.635 408.641C138.841 408.185 139.121 407.795 139.474 407.466C139.827 407.137 140.22 406.89 140.658 406.717C141.089 406.545 141.543 406.451 142.024 406.449C142.498 406.448 142.962 406.548 143.419 406.754C143.875 406.961 144.264 407.241 144.58 407.605C144.896 407.968 145.136 408.362 145.288 408.805C145.44 409.248 145.512 409.707 145.507 410.19C145.495 410.674 145.388 411.14 145.182 411.597ZM142.874 407.973C142.607 407.848 142.332 407.792 142.048 407.798C141.763 407.805 141.491 407.869 141.227 407.976C140.965 408.091 140.728 408.253 140.51 408.471C140.292 408.689 140.119 408.943 139.98 409.251C139.84 409.558 139.767 409.859 139.748 410.164C139.728 410.469 139.765 410.755 139.852 411.031C139.938 411.299 140.073 411.549 140.259 411.759C140.44 411.978 140.671 412.148 140.936 412.266C141.202 412.391 141.477 412.447 141.762 412.441C142.046 412.435 142.319 412.371 142.581 412.256C142.843 412.142 143.08 411.98 143.3 411.769C143.519 411.557 143.698 411.295 143.839 410.995C143.978 410.687 144.051 410.386 144.063 410.082C144.076 409.779 144.038 409.486 143.952 409.218C143.866 408.949 143.731 408.699 143.545 408.489C143.37 408.262 143.146 408.09 142.874 407.973Z" fill="#F9D2FF"/>
<path d="M138.751 404.77L135.579 411.094L134.262 410.434L134.618 409.721C134.629 409.703 134.625 409.682 134.613 409.661C134.601 409.641 134.584 409.63 134.556 409.643C134.464 409.67 134.345 409.709 134.189 409.757C134.033 409.804 133.859 409.833 133.652 409.853C133.453 409.872 133.233 409.865 132.995 409.839C132.756 409.813 132.522 409.734 132.285 409.61C131.521 409.226 131.039 408.679 130.847 407.966C130.654 407.253 130.768 406.462 131.2 405.605L133.045 401.918L134.363 402.578L132.517 406.265C132.282 406.728 132.225 407.176 132.335 407.597C132.445 408.019 132.714 408.339 133.15 408.557C133.653 408.807 134.129 408.851 134.583 408.682C135.037 408.512 135.417 408.133 135.714 407.536L137.434 404.109L138.751 404.77Z" fill="#F9D2FF"/>
<path d="M383.516 353.985L382.389 355.291C382.13 355.106 381.858 354.998 381.557 354.965C381.31 354.936 381.03 354.966 380.705 355.066C380.387 355.165 380.056 355.41 379.725 355.798C379.508 356.048 379.344 356.302 379.248 356.556C379.152 356.811 379.098 357.048 379.105 357.288C379.11 357.521 379.158 357.744 379.253 357.942C379.349 358.14 379.475 358.309 379.642 358.454C379.865 358.647 380.097 358.748 380.346 358.747C380.587 358.748 380.841 358.701 381.111 358.59C381.373 358.48 381.643 358.332 381.926 358.143C382.209 357.953 382.499 357.763 382.797 357.57C383.102 357.376 383.411 357.204 383.724 357.046C384.036 356.889 384.361 356.788 384.697 356.739C385.026 356.69 385.368 356.707 385.712 356.799C386.063 356.889 386.417 357.099 386.779 357.413C387.067 357.668 387.296 357.958 387.452 358.301C387.617 358.642 387.694 359.002 387.694 359.387C387.694 359.771 387.615 360.173 387.448 360.586C387.282 361.006 387.03 361.407 386.68 361.814C386.209 362.353 385.738 362.719 385.258 362.905C384.778 363.091 384.336 363.172 383.918 363.156C383.5 363.141 383.138 363.068 382.821 362.925C382.506 362.79 382.283 362.664 382.148 362.565L383.208 361.364C383.444 361.517 383.69 361.607 383.962 361.646C384.192 361.665 384.449 361.632 384.73 361.541C385.012 361.45 385.296 361.231 385.599 360.886C385.781 360.681 385.915 360.464 385.995 360.243C386.076 360.022 386.122 359.816 386.123 359.613C386.124 359.409 386.085 359.229 386.012 359.064C385.939 358.898 385.841 358.761 385.713 358.653C385.49 358.46 385.258 358.359 385.009 358.36C384.766 358.352 384.514 358.406 384.244 358.517C383.982 358.627 383.712 358.775 383.429 358.964C383.153 359.152 382.863 359.343 382.558 359.537C382.253 359.731 381.944 359.903 381.631 360.061C381.318 360.218 380.993 360.319 380.658 360.368C380.329 360.417 379.986 360.4 379.643 360.308C379.299 360.217 378.937 360.008 378.576 359.694C378.242 359.404 377.983 359.075 377.806 358.707C377.628 358.338 377.535 357.943 377.528 357.523C377.52 357.102 377.616 356.674 377.79 356.222C377.972 355.776 378.252 355.324 378.638 354.878C378.952 354.517 379.265 354.223 379.565 354.008C379.873 353.791 380.169 353.629 380.455 353.522C380.741 353.415 381.02 353.347 381.28 353.329C381.54 353.311 381.79 353.317 382.01 353.36C382.557 353.416 383.048 353.634 383.516 353.985Z" fill="#F9D2FF"/>
<path d="M378.377 366.169C378.035 366.537 377.656 366.807 377.244 366.994C376.832 367.181 376.416 367.278 375.98 367.281C375.552 367.291 375.121 367.21 374.694 367.046C374.266 366.882 373.872 366.627 373.505 366.284C373.428 366.21 373.361 366.142 373.301 366.072C373.24 366.002 373.19 365.945 373.148 365.887C373.096 365.822 373.055 365.771 373.015 365.727L376.735 361.766C376.534 361.636 376.315 361.532 376.067 361.465C375.819 361.398 375.573 361.376 375.328 361.391C375.077 361.415 374.827 361.476 374.587 361.588C374.34 361.702 374.119 361.863 373.917 362.08C373.671 362.336 373.51 362.567 373.419 362.775C373.328 362.983 373.274 363.153 373.26 363.299C373.237 363.47 373.254 363.617 373.305 363.749L372.196 364.931C372.051 364.54 371.979 364.133 371.969 363.706C371.96 363.346 372.016 362.942 372.146 362.499C372.277 362.056 372.543 361.614 372.953 361.172C373.297 360.811 373.688 360.531 374.132 360.352C374.574 360.166 375.037 360.074 375.516 360.061C375.997 360.056 376.466 360.135 376.933 360.306C377.399 360.477 377.817 360.741 378.187 361.091C378.555 361.434 378.828 361.828 379.019 362.261C379.211 362.695 379.314 363.14 379.33 363.597C379.345 364.053 379.277 364.505 379.123 364.945C378.969 365.386 378.721 365.808 378.377 366.169ZM377.622 362.668L374.877 365.589C375.288 365.855 375.729 365.978 376.191 365.954C376.653 365.93 377.082 365.717 377.461 365.311C377.848 364.903 378.032 364.464 378.03 363.997C378.027 363.531 377.893 363.085 377.622 362.668Z" fill="#F9D2FF"/>
<path d="M369.672 364.842L374.627 369.895L373.576 370.928L373.017 370.363C373.007 370.35 372.982 370.34 372.961 370.345C372.939 370.35 372.926 370.36 372.925 370.39C372.924 370.489 372.921 370.617 372.911 370.778C372.9 370.938 372.878 371.117 372.831 371.315C372.783 371.514 372.707 371.719 372.602 371.93C372.496 372.141 372.345 372.347 372.158 372.531C371.549 373.129 370.87 373.404 370.137 373.358C369.396 373.314 368.692 372.946 368.017 372.262L365.13 369.319L366.18 368.286L369.068 371.229C369.434 371.603 369.832 371.803 370.268 371.837C370.705 371.871 371.094 371.72 371.436 371.382C371.833 370.987 372.033 370.552 372.019 370.065C372.004 369.579 371.772 369.093 371.301 368.622L368.616 365.884L369.672 364.842Z" fill="#F9D2FF"/>
<path d="M367.807 376.451L369.402 378.188L368.427 379.084L366.832 377.347L365.744 378.343L364.848 377.368L365.936 376.372L363.462 373.664C363.284 373.468 363.073 373.363 362.837 373.354C362.601 373.344 362.393 373.427 362.204 373.596C362.128 373.665 362.067 373.731 362.012 373.788C361.958 373.852 361.911 373.915 361.871 373.976C361.81 374.042 361.763 374.105 361.724 374.167L360.818 373.178C360.87 373.107 360.935 373.025 361.009 372.949C361.121 372.804 361.295 372.631 361.52 372.416C362.01 371.964 362.516 371.757 363.02 371.791C363.532 371.824 364.03 372.109 364.533 372.656L367.018 375.377L367.993 374.481L368.889 375.457L367.807 376.451Z" fill="#F9D2FF"/>
<path d="M365.146 380.843L366.117 381.953L365.02 382.913L364.05 381.803L365.146 380.843ZM363.08 380.693L358.42 375.365L359.517 374.405L364.175 379.725L363.08 380.693Z" fill="#F9D2FF"/>
<path d="M361.35 382.247L360.201 383.173L359.708 382.563C359.697 382.55 359.68 382.539 359.658 382.544C359.637 382.548 359.625 382.566 359.623 382.589C359.625 382.671 359.621 382.793 359.608 382.939C359.594 383.085 359.556 383.259 359.497 383.438C359.437 383.617 359.356 383.8 359.245 383.982C359.133 384.164 358.989 384.331 358.802 384.477C358.552 384.682 358.303 384.819 358.057 384.902C357.809 384.978 357.585 385.018 357.39 385.023C357.195 385.027 357.017 385.005 356.866 384.97C356.715 384.935 356.609 384.897 356.551 384.872C356.494 384.854 356.474 384.866 356.492 384.915C356.509 384.994 356.506 385.115 356.484 385.294C356.467 385.463 356.413 385.663 356.332 385.884C356.252 386.105 356.137 386.341 355.977 386.579C355.819 386.824 355.604 387.051 355.329 387.276C354.694 387.79 354.049 387.982 353.396 387.851C352.742 387.721 352.091 387.251 351.435 386.442L348.854 383.244L350.003 382.318L352.584 385.516C353.324 386.434 354.04 386.612 354.727 386.057C355.074 385.778 355.256 385.4 355.282 384.927C355.308 384.454 355.11 383.954 354.689 383.434L352.292 380.46L353.441 379.534L356.022 382.732C356.391 383.188 356.76 383.462 357.131 383.541C357.502 383.619 357.858 383.527 358.198 383.25C358.538 382.974 358.727 382.594 358.753 382.121C358.779 381.648 358.581 381.147 358.16 380.628L355.765 377.661L356.914 376.735L361.35 382.247Z" fill="#F9D2FF"/>
<path d="M348.97 392.1C348.567 392.398 348.143 392.595 347.706 392.704C347.269 392.806 346.836 392.824 346.413 392.75C345.99 392.675 345.58 392.522 345.197 392.28C344.806 392.041 344.464 391.715 344.174 391.31C344.11 391.226 344.054 391.14 344.015 391.065C343.977 390.99 343.931 390.917 343.902 390.856C343.865 390.788 343.83 390.728 343.803 390.674L348.2 387.479C348.029 387.313 347.833 387.174 347.604 387.057C347.377 386.948 347.135 386.872 346.889 386.85C346.642 386.82 346.383 386.846 346.118 386.91C345.854 386.975 345.607 387.088 345.367 387.268C345.08 387.473 344.873 387.669 344.747 387.854C344.621 388.04 344.536 388.201 344.49 388.339C344.435 388.502 344.421 388.648 344.451 388.785L343.142 389.738C343.075 389.323 343.076 388.908 343.152 388.492C343.21 388.133 343.339 387.751 343.55 387.336C343.762 386.921 344.109 386.537 344.591 386.184C344.995 385.893 345.434 385.693 345.902 385.592C346.37 385.491 346.844 385.487 347.313 385.567C347.782 385.647 348.234 385.821 348.659 386.076C349.083 386.332 349.442 386.669 349.741 387.079C350.039 387.482 350.239 387.922 350.339 388.383C350.445 388.842 350.462 389.306 350.392 389.751C350.324 390.203 350.174 390.627 349.939 391.039C349.697 391.454 349.382 391.808 348.97 392.1ZM348.885 388.523L345.641 390.881C345.992 391.219 346.404 391.417 346.863 391.484C347.322 391.551 347.782 391.414 348.233 391.091C348.688 390.759 348.957 390.362 349.04 389.907C349.128 389.443 349.073 388.98 348.885 388.523Z" fill="#F9D2FF"/>
<path d="M340.688 389.157L344.609 395.043L343.383 395.858L342.947 395.198C342.935 395.178 342.919 395.174 342.896 395.171C342.873 395.169 342.86 395.179 342.852 395.211C342.835 395.305 342.802 395.433 342.767 395.584C342.731 395.735 342.67 395.906 342.584 396.098C342.503 396.281 342.386 396.473 342.246 396.661C342.098 396.851 341.916 397.019 341.698 397.163C340.987 397.641 340.272 397.78 339.554 397.596C338.836 397.411 338.21 396.92 337.675 396.116L335.39 392.681L336.616 391.866L338.888 395.312C339.178 395.747 339.53 396.018 339.954 396.13C340.377 396.242 340.791 396.168 341.192 395.9C341.66 395.589 341.93 395.199 342.014 394.713C342.099 394.235 341.95 393.717 341.582 393.163L339.455 389.973L340.688 389.157Z" fill="#F9D2FF"/>
<path d="M336.69 400.214L337.929 402.224L336.799 402.92L335.559 400.91L334.31 401.685L333.614 400.553L334.871 399.777L332.947 396.656C332.808 396.43 332.619 396.289 332.396 396.232C332.166 396.176 331.941 396.217 331.729 396.353C331.642 396.402 331.57 396.455 331.506 396.507C331.442 396.558 331.385 396.608 331.336 396.664C331.265 396.717 331.21 396.774 331.16 396.823L330.453 395.678C330.515 395.612 330.592 395.55 330.683 395.485C330.816 395.366 331.019 395.225 331.285 395.062C331.858 394.712 332.383 394.599 332.878 394.726C333.372 394.853 333.816 395.232 334.199 395.858L336.133 398.992L337.264 398.296L337.96 399.428L336.69 400.214Z" fill="#F9D2FF"/>
<path d="M427.845 226.201L438.15 226.571L438.094 228.192L433.752 228.038L433.567 233.119L437.909 233.273L437.854 234.893L427.548 234.523L427.604 232.902L432.096 233.062L432.281 227.981L427.789 227.821L427.845 226.201Z" fill="#F9D2FF"/>
<path d="M435.874 237.572L437.346 237.681L437.242 239.138L435.77 239.028L435.874 237.572ZM434.298 238.919L427.244 238.405L427.348 236.949L434.402 237.462L434.298 238.919Z" fill="#F9D2FF"/>
<path d="M427.088 240.479L434.129 241.144L433.99 242.614L433.195 242.539C433.172 242.535 433.159 242.544 433.146 242.561C433.134 242.578 433.136 242.593 433.154 242.612C433.218 242.684 433.295 242.791 433.391 242.925C433.487 243.059 433.579 243.216 433.667 243.396C433.755 243.576 433.825 243.782 433.885 244.018C433.944 244.248 433.961 244.499 433.936 244.764L433.904 245.127L432.512 244.998C432.525 244.943 432.545 244.88 432.571 244.809C432.585 244.755 432.596 244.686 432.614 244.608C432.631 244.531 432.639 244.44 432.646 244.342C432.699 243.781 432.567 243.325 432.247 242.958C431.928 242.591 431.432 242.378 430.772 242.311L426.956 241.948L427.088 240.479Z" fill="#F9D2FF"/>
<path d="M435.049 246.627L436.515 246.797L436.351 248.249L434.884 248.079L435.049 246.627ZM433.418 247.909L426.396 247.084L426.568 245.631L433.59 246.456L433.418 247.909Z" fill="#F9D2FF"/>
<path d="M426.164 249.149L433.159 250.179L432.944 251.639L432.157 251.525C432.134 251.521 432.121 251.531 432.101 251.549C432.082 251.567 432.085 251.589 432.103 251.608C432.161 251.689 432.236 251.788 432.325 251.924C432.414 252.059 432.498 252.217 432.581 252.405C432.663 252.594 432.725 252.8 432.771 253.039C432.815 253.271 432.818 253.524 432.777 253.784C432.651 254.633 432.281 255.259 431.667 255.669C431.047 256.081 430.262 256.214 429.315 256.073L425.238 255.475L425.453 254.015L429.531 254.614C430.042 254.689 430.485 254.611 430.857 254.373C431.222 254.136 431.44 253.773 431.514 253.299C431.598 252.748 431.486 252.273 431.187 251.895C430.887 251.51 430.402 251.274 429.745 251.177L425.958 250.622L426.164 249.149Z" fill="#F9D2FF"/>
<path d="M428.612 257.599C429.104 257.693 429.549 257.861 429.939 258.112C430.329 258.364 430.653 258.663 430.917 259.009C431.173 259.356 431.354 259.745 431.465 260.161C431.568 260.577 431.585 261.007 431.498 261.446C431.45 261.708 431.368 261.945 431.253 262.157C431.137 262.369 431.01 262.554 430.878 262.709C430.746 262.864 430.609 262.99 430.484 263.092C430.358 263.194 430.249 263.256 430.158 263.293C430.138 263.311 430.126 263.328 430.13 263.35C430.133 263.372 430.15 263.384 430.166 263.389L430.95 263.541L430.673 264.987L424.229 263.765C423.66 263.654 423.183 263.469 422.791 263.21C422.399 262.944 422.095 262.627 421.871 262.252C421.648 261.877 421.5 261.467 421.436 261.015C421.372 260.563 421.387 260.097 421.474 259.614C421.565 259.151 421.689 258.759 421.847 258.435C422.011 258.111 422.185 257.844 422.37 257.643C422.561 257.441 422.753 257.284 422.951 257.17C423.149 257.057 423.338 256.982 423.51 256.932C423.681 256.883 423.833 256.859 423.961 256.861C424.088 256.863 424.17 256.865 424.208 256.866L423.901 258.46C423.79 258.462 423.68 258.472 423.566 258.505C423.451 258.538 423.336 258.609 423.219 258.717C423.102 258.825 422.998 258.969 422.902 259.163C422.805 259.35 422.732 259.593 422.67 259.909C422.555 260.501 422.666 261.014 422.991 261.462C423.316 261.91 423.809 262.198 424.462 262.318L424.854 262.39C424.877 262.394 424.89 262.384 424.902 262.367C424.915 262.35 424.911 262.328 424.9 262.308C424.852 262.241 424.799 262.137 424.726 262.007C424.66 261.876 424.597 261.714 424.544 261.521C424.492 261.335 424.458 261.117 424.444 260.888C424.421 260.653 424.441 260.403 424.488 260.135C424.569 259.704 424.737 259.304 424.987 258.959C425.237 258.605 425.549 258.317 425.923 258.086C426.296 257.855 426.711 257.7 427.167 257.612C427.642 257.5 428.12 257.506 428.612 257.599ZM425.794 260.517C425.745 260.771 425.755 261.023 425.826 261.28C425.889 261.539 426.009 261.774 426.171 261.994C426.332 262.215 426.534 262.406 426.784 262.568C427.026 262.731 427.304 262.836 427.612 262.899C427.919 262.955 428.218 262.96 428.507 262.899C428.795 262.838 429.055 262.737 429.285 262.589C429.515 262.44 429.71 262.26 429.871 262.048C430.031 261.836 430.127 261.597 430.177 261.35C430.225 261.089 430.215 260.837 430.153 260.586C430.083 260.335 429.965 260.108 429.798 259.903C429.632 259.698 429.425 259.522 429.178 259.375C428.93 259.228 428.653 259.123 428.346 259.067C428.038 259.011 427.738 258.999 427.456 259.051C427.172 259.097 426.917 259.182 426.685 259.316C426.452 259.45 426.262 259.614 426.109 259.825C425.946 260.015 425.842 260.255 425.794 260.517Z" fill="#F9D2FF"/>
<path d="M378.971 75.9721L380.093 77.1488L375.578 87.3618L374.411 86.1317L375.617 83.4507L372.462 80.1446L369.727 81.2291L368.56 79.999L378.971 75.9721ZM376.273 82.0061L378.194 77.8277L373.934 79.5543L376.273 82.0061Z" fill="#F9D2FF"/>
<path d="M382.193 84.2452L383.962 82.6841L384.836 83.6793L383.066 85.2405L384.037 86.3488L383.043 87.2226L382.072 86.1144L379.321 88.5401C379.122 88.7164 379.017 88.9243 378.998 89.1577C378.978 89.391 379.06 89.6103 379.228 89.8028C379.29 89.8761 379.359 89.941 379.419 89.9996C379.479 90.0583 379.544 90.1013 379.602 90.1454C379.67 90.203 379.729 90.2544 379.793 90.2901L378.785 91.1733C378.711 91.124 378.635 91.0527 378.558 90.9815C378.416 90.8672 378.243 90.6903 378.04 90.458C377.598 89.9535 377.402 89.4524 377.443 88.9409C377.484 88.4293 377.78 87.9346 378.338 87.4485L381.102 85.0134L380.228 84.0182L381.223 83.1443L382.193 84.2452Z" fill="#F9D2FF"/>
<path d="M385.939 88.5769L387.753 87.0691L388.6 88.0902L386.786 89.5981L387.731 90.7322L386.711 91.58L385.766 90.4458L382.945 92.792C382.738 92.9619 382.632 93.1625 382.605 93.3969C382.585 93.6303 382.652 93.8515 382.82 94.0441C382.883 94.1173 382.944 94.1833 383.004 94.2419C383.064 94.3006 383.123 94.3519 383.18 94.3887C383.248 94.4463 383.307 94.4976 383.365 94.5417L382.338 95.3977C382.263 95.3411 382.195 95.2761 382.117 95.1976C381.982 95.0823 381.815 94.8971 381.611 94.6575C381.184 94.1437 381.001 93.6332 381.058 93.127C381.114 92.6208 381.426 92.1314 381.993 91.6588L384.82 89.3043L383.973 88.2831L384.993 87.4354L385.939 88.5769Z" fill="#F9D2FF"/>
<path d="M383.463 96.6938L389.014 92.3115L389.924 93.4654L389.301 93.9606C389.287 93.9699 389.275 93.9865 389.278 94.0084C389.28 94.023 389.296 94.0356 389.319 94.0399C389.417 94.0487 389.546 94.068 389.707 94.098C389.867 94.1279 390.045 94.1777 390.226 94.2494C390.414 94.3202 390.606 94.4201 390.81 94.5482C391.013 94.6763 391.193 94.8449 391.355 95.0531L391.581 95.3418L390.481 96.2079C390.451 96.1525 390.421 96.0971 390.398 96.0334C390.368 95.9781 390.33 95.9237 390.284 95.8557C390.237 95.7878 390.183 95.7208 390.128 95.6393C389.784 95.1957 389.364 94.9562 388.882 94.9112C388.4 94.8662 387.891 95.0555 387.368 95.4699L384.365 97.8413L383.463 96.6938Z" fill="#F9D2FF"/>
<path d="M393.471 95.6274L394.65 94.7429L395.532 95.9081L394.353 96.7925L393.471 95.6274ZM393.175 97.6843L387.533 101.945L386.658 100.779L392.3 96.5181L393.175 97.6843Z" fill="#F9D2FF"/>
<path d="M395.042 100.218L396.955 98.8382L397.728 99.9143L395.815 101.294L396.679 102.492L395.604 103.265L394.739 102.068L391.764 104.212C391.548 104.369 391.419 104.565 391.383 104.793C391.342 105.029 391.401 105.244 391.549 105.455C391.605 105.536 391.666 105.602 391.72 105.669C391.773 105.729 391.833 105.787 391.891 105.831C391.952 105.897 392.011 105.949 392.062 105.994L390.973 106.776C390.906 106.719 390.836 106.647 390.765 106.56C390.636 106.436 390.483 106.242 390.299 105.984C389.912 105.443 389.758 104.921 389.852 104.417C389.946 103.913 390.291 103.449 390.885 103.017L393.874 100.863L393.101 99.7872L394.176 99.0138L395.042 100.218Z" fill="#F9D2FF"/>
<path d="M399.084 103.383L400.301 102.552L401.128 103.755L399.913 104.592L399.084 103.383ZM398.69 105.423L392.855 109.421L392.027 108.218L397.862 104.221L398.69 105.423Z" fill="#F9D2FF"/>
<path d="M396.775 108.843C397.198 108.569 397.642 108.396 398.115 108.315C398.587 108.235 399.056 108.238 399.514 108.323C399.971 108.409 400.405 108.587 400.806 108.851C401.207 109.116 401.544 109.456 401.817 109.872C402.091 110.296 402.257 110.741 402.328 111.208C402.4 111.674 402.375 112.138 402.268 112.6C402.16 113.054 401.966 113.482 401.693 113.877C401.421 114.272 401.081 114.609 400.657 114.876C400.233 115.15 399.789 115.323 399.317 115.403C398.844 115.483 398.376 115.481 397.918 115.395C397.459 115.302 397.026 115.131 396.626 114.874C396.227 114.617 395.89 114.277 395.623 113.852C395.356 113.428 395.183 112.983 395.11 112.51C395.037 112.036 395.055 111.572 395.171 111.118C395.286 110.663 395.473 110.235 395.745 109.84C396.018 109.446 396.352 109.117 396.775 108.843ZM396.736 113.141C396.897 113.386 397.096 113.589 397.339 113.734C397.582 113.879 397.841 113.977 398.123 114.028C398.405 114.078 398.694 114.068 398.99 114.005C399.286 113.942 399.574 113.82 399.861 113.639C400.141 113.459 400.372 113.248 400.554 113C400.735 112.752 400.863 112.496 400.936 112.218C401.009 111.94 401.031 111.662 400.992 111.385C400.961 111.106 400.857 110.838 400.704 110.591C400.544 110.346 400.345 110.142 400.102 109.998C399.859 109.853 399.6 109.754 399.318 109.704C399.036 109.654 398.747 109.664 398.443 109.721C398.138 109.778 397.85 109.899 397.57 110.079C397.29 110.259 397.06 110.477 396.879 110.725C396.697 110.974 396.577 111.236 396.497 111.515C396.424 111.793 396.403 112.071 396.441 112.348C396.48 112.633 396.576 112.895 396.736 113.141Z" fill="#F9D2FF"/>
<path d="M398.458 118.062L404.558 114.482L405.307 115.754L404.618 116.155C404.598 116.165 404.592 116.18 404.588 116.203C404.584 116.226 404.594 116.247 404.624 116.25C404.717 116.275 404.841 116.31 404.996 116.355C405.151 116.401 405.317 116.475 405.494 116.569C405.67 116.664 405.851 116.788 406.036 116.941C406.22 117.094 406.374 117.288 406.509 117.515C406.938 118.252 407.045 118.974 406.823 119.681C406.601 120.389 406.073 120.983 405.241 121.47L401.685 123.553L400.936 122.28L404.501 120.203C404.948 119.94 405.243 119.602 405.379 119.182C405.514 118.761 405.465 118.351 405.221 117.931C404.939 117.449 404.563 117.152 404.086 117.039C403.61 116.926 403.09 117.043 402.513 117.383L399.211 119.319L398.458 118.062Z" fill="#F9D2FF"/>
<path d="M207.655 11.4778C208.133 11.4391 208.583 11.4782 209 11.6033C209.417 11.7283 209.783 11.9194 210.099 12.1837C210.422 12.447 210.678 12.7635 210.88 13.1241C211.082 13.4919 211.2 13.8929 211.242 14.3334C211.292 14.899 211.228 15.39 211.049 15.7918C210.87 16.1935 210.661 16.5322 210.426 16.7851C210.146 17.0884 209.827 17.3295 209.459 17.5252L212.177 21.4277L210.415 21.5857L207.855 17.819L205.506 18.0296L205.864 21.9957L204.249 22.1424L203.324 11.8671L207.655 11.4778ZM205.379 16.5675L208.095 16.3248C208.33 16.3023 208.545 16.2377 208.746 16.1303C208.948 16.0228 209.109 15.8908 209.251 15.7241C209.386 15.5583 209.495 15.3661 209.565 15.1566C209.634 14.9398 209.658 14.7213 209.635 14.4864C209.613 14.2515 209.548 14.0369 209.441 13.8352C209.334 13.6408 209.201 13.472 209.035 13.3298C208.868 13.1877 208.677 13.0857 208.467 13.0159C208.258 12.946 208.032 12.9229 207.798 12.9454L205.081 13.1881L205.379 16.5675Z" fill="#F9D2FF"/>
<path d="M216.756 13.9796C217.258 13.96 217.719 14.0201 218.14 14.1744C218.567 14.3278 218.93 14.549 219.25 14.8499C219.563 15.1443 219.816 15.4983 220.002 15.9128C220.196 16.3264 220.299 16.7814 220.326 17.2831C220.332 17.3937 220.33 17.4906 220.327 17.5801C220.323 17.6697 220.318 17.7447 220.304 17.8133C220.3 17.8956 220.294 17.9632 220.287 18.0236L214.86 18.2631C214.912 18.4942 215 18.7206 215.125 18.9424C215.249 19.1642 215.414 19.3512 215.606 19.5125C215.797 19.6738 216.02 19.7939 216.277 19.8874C216.534 19.9809 216.807 20.0204 217.102 20.0051C217.456 19.9895 217.732 19.9395 217.944 19.853C218.148 19.7675 218.315 19.6793 218.423 19.5913C218.557 19.4849 218.647 19.3695 218.704 19.2359L220.321 19.1633C220.154 19.5412 219.923 19.8901 219.628 20.1952C219.388 20.4636 219.063 20.7131 218.661 20.9353C218.26 21.1648 217.756 21.2959 217.158 21.3203C216.656 21.3398 216.186 21.266 215.741 21.0925C215.295 20.9191 214.899 20.6651 214.552 20.3305C214.206 20.0032 213.926 19.6154 213.713 19.1672C213.5 18.7189 213.387 18.243 213.358 17.7266C213.339 17.2239 213.405 16.7548 213.578 16.3093C213.744 15.8646 213.984 15.4701 214.282 15.1348C214.588 14.7986 214.947 14.5225 215.373 14.3121C215.787 14.1255 216.254 14.0064 216.756 13.9796ZM214.856 17.0154L218.858 16.8389C218.746 16.363 218.517 15.9687 218.173 15.656C217.821 15.3443 217.372 15.201 216.811 15.228C216.25 15.2551 215.813 15.4371 215.485 15.7762C215.158 16.1225 214.951 16.5353 214.856 17.0154Z" fill="#F9D2FF"/>
<path d="M225.164 13.7782C225.565 13.779 225.952 13.8411 226.324 13.9645C226.689 14.0888 227.024 14.269 227.32 14.4986C227.617 14.7281 227.86 15.0017 228.057 15.3257C228.254 15.6497 228.366 15.9995 228.408 16.3879L226.909 16.3935C226.836 16.0015 226.639 15.6775 226.324 15.4206C226.002 15.1645 225.623 15.0421 225.178 15.0469C224.881 15.0476 224.607 15.1123 224.356 15.2409C224.098 15.3705 223.883 15.5465 223.689 15.7718C223.502 15.9962 223.348 16.2462 223.238 16.5426C223.126 16.8317 223.069 17.1436 223.075 17.4772C223.08 17.8108 223.135 18.1232 223.246 18.4136C223.358 18.704 223.515 18.9513 223.707 19.1721C223.897 19.3855 224.12 19.5577 224.381 19.6877C224.635 19.8114 224.91 19.8729 225.207 19.8721C225.652 19.8673 226.03 19.7448 226.346 19.489C226.662 19.2332 226.859 18.9109 226.921 18.5241L228.427 18.5176C228.387 18.9016 228.277 19.2574 228.088 19.5787C227.899 19.9074 227.652 20.184 227.363 20.4142C227.073 20.6443 226.74 20.828 226.37 20.9569C226 21.0858 225.615 21.1498 225.215 21.1563C224.718 21.1603 224.245 21.0646 223.805 20.8683C223.364 20.672 222.981 20.4088 222.656 20.0714C222.331 19.734 222.073 19.3435 221.883 18.8997C221.692 18.456 221.595 17.9855 221.598 17.4873C221.593 16.9828 221.69 16.5173 221.871 16.0708C222.051 15.6242 222.306 15.2351 222.627 14.897C222.947 14.5589 223.328 14.2874 223.764 14.0907C224.19 13.8803 224.66 13.7831 225.164 13.7782Z" fill="#F9D2FF"/>
<path d="M229.897 21.0231L230.086 13.9487L231.561 13.9907L231.537 14.7887C231.54 14.8107 231.542 14.8253 231.557 14.8307C231.574 14.8435 231.587 14.8343 231.607 14.8169C231.68 14.7482 231.773 14.662 231.901 14.5566C232.029 14.4511 232.179 14.3502 232.352 14.2538C232.526 14.1574 232.73 14.0719 232.958 13.9982C233.186 13.9245 233.435 13.8927 233.695 13.8967L234.061 13.9095L234.024 15.3108C233.963 15.2963 233.902 15.2818 233.832 15.261C233.771 15.2465 233.703 15.2403 233.628 15.235C233.553 15.2297 233.464 15.2263 233.366 15.2164C232.807 15.1987 232.353 15.368 232.011 15.7089C231.669 16.0571 231.489 16.563 231.469 17.2267L231.365 21.0587L229.897 21.0231Z" fill="#F9D2FF"/>
<path d="M235.403 14.089L236.87 14.1767L236.623 18.2942C236.592 18.8107 236.708 19.2492 236.983 19.6004C237.251 19.9525 237.624 20.1426 238.11 20.1698C238.671 20.2022 239.127 20.0548 239.477 19.7129C239.835 19.3775 240.03 18.8697 240.072 18.2033L240.303 14.3773L241.77 14.4651L241.344 21.54L239.87 21.4532L239.923 20.6442C239.92 20.6222 239.918 20.6076 239.894 20.5958C239.878 20.583 239.856 20.5858 239.836 20.6032C239.762 20.6647 239.662 20.7517 239.54 20.8489C239.419 20.9461 239.261 21.048 239.088 21.1444C238.907 21.2417 238.709 21.319 238.473 21.3864C238.237 21.4537 237.995 21.4771 237.732 21.4586C236.879 21.4041 236.223 21.094 235.763 20.5139C235.303 19.9337 235.1 19.1572 235.155 18.1919L235.403 14.089Z" fill="#F9D2FF"/>
<path d="M244.255 13.2347L244.387 11.7692L245.837 11.9036L245.705 13.3691L244.255 13.2347ZM245.58 14.8337L244.943 21.8836L243.493 21.7493L244.131 14.7067L245.58 14.8337Z" fill="#F9D2FF"/>
<path d="M248.678 15.1429L248.943 12.7987L250.261 12.9498L249.996 15.2941L251.458 15.4641L251.308 16.7834L249.845 16.6134L249.435 20.2616C249.409 20.5249 249.46 20.7487 249.61 20.9375C249.761 21.1264 249.959 21.2273 250.209 21.2623C250.306 21.2721 250.396 21.2756 250.485 21.279C250.567 21.2761 250.648 21.2731 250.721 21.2637C250.811 21.2672 250.891 21.2569 250.964 21.2476L250.815 22.5816C250.727 22.5928 250.624 22.5985 250.519 22.5896C250.342 22.5974 250.095 22.5843 249.779 22.5504C249.116 22.4716 248.625 22.237 248.321 21.8301C248.009 21.4242 247.9 20.8587 247.984 20.1199L248.4 16.4562L247.081 16.3051L247.232 14.9857L248.678 15.1429Z" fill="#F9D2FF"/>
<path d="M253.754 14.2764L253.954 12.8171L255.398 13.0191L255.198 14.4784L253.754 14.2764ZM254.998 15.9378L254.044 22.9464L252.601 22.7516L253.555 15.743L254.998 15.9378Z" fill="#F9D2FF"/>
<path d="M256.081 23.2072L257.247 16.231L258.704 16.4759L258.573 17.2578C258.569 17.2806 258.578 17.2943 258.595 17.3144C258.613 17.3345 258.635 17.3317 258.655 17.3142C258.737 17.2592 258.839 17.1867 258.976 17.095C259.106 17.0115 259.266 16.9242 259.457 16.8479C259.647 16.7715 259.855 16.7079 260.087 16.6708C260.32 16.6336 260.572 16.6311 260.831 16.6799C261.673 16.8176 262.294 17.2063 262.693 17.8314C263.092 18.4566 263.215 19.2433 263.054 20.1925L262.371 24.2617L260.921 24.0158L261.604 19.9466C261.687 19.4308 261.616 18.9868 261.383 18.6154C261.15 18.2439 260.801 18.0136 260.324 17.9407C259.77 17.848 259.301 17.9524 258.914 18.2395C258.528 18.5339 258.278 19.0116 258.168 19.6646L257.537 23.4449L256.081 23.2072Z" fill="#F9D2FF"/>
<path d="M264.582 20.9353C264.683 20.447 264.864 20.0078 265.126 19.6177C265.381 19.2286 265.689 18.907 266.044 18.6611C266.397 18.408 266.783 18.2324 267.21 18.1408C267.628 18.0429 268.058 18.04 268.493 18.133C268.753 18.1891 268.987 18.2781 269.202 18.3918C269.411 18.5137 269.59 18.6394 269.748 18.7752C269.899 18.9119 270.028 19.0441 270.119 19.181C270.218 19.3097 270.284 19.4201 270.317 19.505C270.335 19.5324 270.351 19.5379 270.373 19.5351C270.394 19.5323 270.407 19.5157 270.413 19.5002L270.573 18.722L272.016 19.0282L270.667 25.4483C270.546 26.0134 270.355 26.491 270.077 26.8756C269.807 27.2593 269.481 27.5609 269.108 27.7794C268.735 27.9979 268.314 28.1333 267.86 28.1838C267.407 28.2343 266.937 28.2199 266.463 28.1169C266.005 28.0194 265.61 27.8841 265.291 27.7167C264.973 27.5494 264.712 27.3672 264.51 27.1776C264.307 26.988 264.155 26.7845 264.048 26.5828C263.94 26.3811 263.864 26.1902 263.819 26.0176C263.775 25.8449 263.756 25.6914 263.754 25.5653C263.753 25.4392 263.757 25.3569 263.767 25.3185L265.354 25.6509C265.354 25.7624 265.368 25.872 265.397 25.9871C265.427 26.1022 265.494 26.2199 265.598 26.3403C265.703 26.4607 265.85 26.5682 266.033 26.6637C266.217 26.7666 266.465 26.8464 266.77 26.9114C267.358 27.037 267.873 26.9416 268.33 26.6232C268.779 26.3058 269.074 25.8225 269.213 25.1658L269.297 24.7762C269.301 24.7534 269.292 24.7397 269.275 24.7269C269.259 24.7141 269.237 24.7169 269.216 24.727C269.148 24.7729 269.044 24.8308 268.91 24.8923C268.778 24.9612 268.614 25.0119 268.427 25.0581C268.24 25.1043 268.02 25.1323 267.792 25.1465C267.556 25.1618 267.301 25.1423 267.035 25.0872C266.599 24.9941 266.213 24.8205 265.868 24.56C265.523 24.2994 265.238 23.9867 265.019 23.606C264.8 23.2254 264.651 22.8136 264.569 22.3485C264.467 21.9009 264.481 21.4237 264.582 20.9353ZM267.444 23.8166C267.695 23.8662 267.948 23.8637 268.207 23.8009C268.466 23.7381 268.705 23.6333 268.93 23.4709C269.155 23.3159 269.352 23.1125 269.514 22.8689C269.676 22.6254 269.797 22.3573 269.861 22.0445C269.926 21.739 269.933 21.441 269.873 21.1514C269.822 20.8609 269.721 20.5988 269.58 20.3643C269.439 20.1297 269.265 19.929 269.051 19.7705C268.838 19.612 268.609 19.5075 268.357 19.4505C268.097 19.3945 267.845 19.397 267.594 19.4662C267.342 19.5281 267.119 19.6383 266.91 19.8061C266.7 19.9666 266.518 20.1682 266.372 20.4172C266.217 20.6598 266.112 20.9406 266.047 21.2461C265.982 21.5516 265.968 21.8505 266.012 22.1347C266.055 22.4188 266.133 22.6764 266.267 22.9118C266.393 23.141 266.559 23.3425 266.757 23.4956C266.955 23.6487 267.185 23.7606 267.444 23.8166Z" fill="#F9D2FF"/>
<path d="M50.5309 103.418L52.9133 100.046C53.2013 99.6363 53.5429 99.3092 53.9236 99.0668C54.3042 98.8243 54.7085 98.6608 55.1363 98.5762C55.5641 98.4917 55.9879 98.5039 56.4133 98.5976C56.8386 98.6912 57.2437 98.8687 57.6219 99.1381C58.0001 99.4076 58.3018 99.7225 58.5288 100.098C58.7557 100.473 58.9037 100.872 58.9728 101.294C59.042 101.716 59.0167 102.157 58.9175 102.598C58.8182 103.039 58.6141 103.469 58.3262 103.879L56.8783 105.924L59.8861 108.051L58.9515 109.378L50.5309 103.418ZM57.1192 103.02C57.2664 102.811 57.3672 102.585 57.4226 102.349C57.4779 102.113 57.4811 101.875 57.4405 101.642C57.3998 101.409 57.316 101.189 57.1818 100.981C57.0476 100.774 56.8801 100.6 56.671 100.452C56.462 100.305 56.2359 100.204 56 100.149C55.7642 100.093 55.5267 100.09 55.294 100.131C55.0614 100.171 54.841 100.255 54.6336 100.389C54.4262 100.524 54.2521 100.691 54.1049 100.9L52.6571 102.944L55.6648 105.072L57.1192 103.02Z" fill="#F9D2FF"/>
<path d="M64.4034 101.79L58.7839 97.4979L59.6762 96.3237L60.3082 96.8096C60.3245 96.8226 60.3391 96.821 60.3538 96.8194C60.3684 96.8177 60.3806 96.7942 60.3708 96.773C60.3603 96.6778 60.3456 96.5459 60.3351 96.384C60.3245 96.222 60.3269 96.0438 60.3489 95.8412C60.3709 95.6385 60.4213 95.4253 60.4929 95.2024C60.5645 94.9794 60.6881 94.758 60.8499 94.5473L61.0696 94.256L62.1863 95.1033C62.1464 95.1448 62.0919 95.1879 62.0374 95.2311C61.9903 95.2734 61.9439 95.323 61.8984 95.38C61.8455 95.4377 61.7943 95.5101 61.7284 95.5842C61.3851 96.0301 61.259 96.4964 61.3338 96.9701C61.4095 97.451 61.7177 97.8914 62.2521 98.2992L65.2965 100.623L64.4034 101.79Z" fill="#F9D2FF"/>
<path d="M64.4752 95.8593C64.0847 95.5467 63.7838 95.1723 63.5585 94.745C63.3332 94.3177 63.195 93.8734 63.1364 93.4127C63.0779 92.9521 63.1145 92.4809 63.2341 92.0228C63.3601 91.5565 63.5798 91.1317 63.8929 90.7485C64.2126 90.3571 64.5802 90.0641 65.0089 89.8534C65.4375 89.6427 65.8832 89.5191 66.346 89.4825C66.8088 89.446 67.2741 89.4981 67.741 89.6317C68.2078 89.7652 68.6259 89.9931 69.0163 90.3057C69.4075 90.6256 69.7076 90.9926 69.9329 91.4199C70.1582 91.8472 70.2965 92.2916 70.355 92.7522C70.4144 93.2201 70.3843 93.6832 70.2574 94.1422C70.1305 94.6011 69.9182 95.0251 69.5985 95.4165C69.2862 95.8071 68.9121 96.1081 68.4834 96.3188C68.0548 96.5295 67.6098 96.6605 67.1397 96.6979C66.6696 96.7352 66.2117 96.6823 65.7448 96.5488C65.2836 96.3998 64.8582 96.1726 64.4752 95.8593ZM68.5696 94.5594C68.7592 94.3307 68.8796 94.0801 68.9455 93.8059C69.0113 93.5316 69.0252 93.2557 68.9788 92.9717C68.9325 92.6877 68.8357 92.4167 68.6877 92.1513C68.5323 91.8868 68.3282 91.65 68.0679 91.4416C67.8076 91.2333 67.5384 91.0778 67.2464 90.9842C66.9544 90.8905 66.6681 90.8482 66.3883 90.8644C66.1012 90.8814 65.8344 90.9481 65.5806 91.0653C65.3195 91.1832 65.1024 91.3631 64.9128 91.5917C64.7233 91.8204 64.6029 92.071 64.5371 92.3453C64.4712 92.6195 64.4581 92.9027 64.5037 93.1794C64.55 93.4634 64.6395 93.7352 64.7883 94.0079C64.9364 94.2732 65.1413 94.5174 65.4016 94.7258C65.6619 94.9341 65.9384 95.0888 66.2304 95.1824C66.5224 95.2761 66.8079 95.3111 67.0958 95.3014C67.383 95.2843 67.6497 95.2176 67.9035 95.1005C68.163 94.9679 68.3875 94.7872 68.5696 94.5594Z" fill="#F9D2FF"/>
<path d="M67.4235 86.6563L68.4134 85.5602L68.9901 86.082C69.0063 86.095 69.0218 86.1007 69.043 86.0909C69.0641 86.0812 69.0698 86.0657 69.0739 86.0356C69.0568 85.9485 69.0438 85.8313 69.0348 85.684C69.0259 85.5367 69.0365 85.365 69.0674 85.1762C69.0983 84.9874 69.1512 84.7962 69.2333 84.6017C69.3147 84.3999 69.435 84.216 69.5936 84.0427C69.8116 83.8034 70.0361 83.6228 70.2679 83.5081C70.4998 83.3934 70.7137 83.3177 70.9097 83.2811C71.1057 83.2445 71.283 83.2397 71.4327 83.2527C71.5896 83.265 71.6954 83.2829 71.7564 83.2984C71.8093 83.3073 71.8296 83.2902 71.8093 83.2406C71.7865 83.169 71.7653 83.0453 71.7605 82.8678C71.7483 82.6913 71.7702 82.4886 71.8117 82.2616C71.8532 82.0345 71.9362 81.7806 72.0558 81.5227C72.1745 81.2574 72.3526 80.9929 72.591 80.7366C73.1392 80.1345 73.7443 79.8449 74.4064 79.8677C75.0685 79.8906 75.7907 80.2553 76.565 80.9553L79.6134 83.7162L78.6236 84.8122L75.5751 82.0514C74.7016 81.2586 73.968 81.1917 73.3742 81.8508C73.0773 82.1804 72.9512 82.5799 73.0041 83.056C73.0569 83.5321 73.3229 83.9919 73.8174 84.4412L76.6511 87.0035L75.6612 88.0996L72.6128 85.3387C72.176 84.9423 71.7677 84.7355 71.3944 84.7102C71.0211 84.685 70.6827 84.8412 70.3858 85.1707C70.089 85.5003 69.9629 85.8998 70.0157 86.3759C70.0613 86.8528 70.3345 87.3118 70.8291 87.7611L73.6627 90.3234L72.6729 91.4194L67.4235 86.6563Z" fill="#F9D2FF"/>
<path d="M78.1817 80.1303C77.8311 79.7763 77.557 79.3766 77.3814 78.929C77.1984 78.4822 77.1032 78.0257 77.0959 77.5594C77.0886 77.0931 77.1634 76.6325 77.3359 76.1833C77.5083 75.7341 77.7678 75.3345 78.1216 74.9838C78.4746 74.6258 78.8756 74.3663 79.3164 74.1987C79.7573 74.0311 80.2152 73.9506 80.6837 73.9653C81.1514 73.9727 81.6069 74.0704 82.0566 74.2504C82.4991 74.4311 82.8993 74.6981 83.2571 75.0513C83.615 75.4045 83.8818 75.805 84.0575 76.2526C84.2332 76.7002 84.3356 77.156 84.3429 77.6223C84.3502 78.0886 84.2754 78.5492 84.1095 78.9902C83.9443 79.4386 83.6849 79.8382 83.3311 80.1889C82.9772 80.5396 82.577 80.8064 82.1289 80.9748C81.6807 81.1432 81.2228 81.2237 80.7551 81.2163C80.2874 81.2089 79.832 81.1112 79.3822 80.9313C78.9324 80.7514 78.5322 80.4844 78.1817 80.1303ZM82.39 79.2553C82.5966 79.047 82.7479 78.8078 82.8447 78.5449C82.9415 78.2821 82.9773 78.0037 82.9675 77.7157C82.9578 77.4276 82.8821 77.1468 82.7626 76.8709C82.643 76.595 82.4584 76.3337 82.2177 76.101C81.9842 75.8674 81.7272 75.6883 81.4458 75.5564C81.1652 75.4319 80.8903 75.3586 80.5999 75.3463C80.3169 75.3333 80.0395 75.3715 79.7686 75.4683C79.5051 75.5643 79.2627 75.7172 79.0553 75.9182C78.8487 76.1265 78.6974 76.3657 78.6014 76.6359C78.5055 76.9061 78.4689 77.1771 78.4786 77.4652C78.4957 77.7524 78.5567 78.0348 78.6844 78.3172C78.8047 78.6005 78.9812 78.8552 79.2228 79.0953C79.4562 79.3289 79.7206 79.5072 80.0012 79.6317C80.2818 79.7563 80.5632 79.8214 80.8462 79.8345C81.1293 79.8476 81.4067 79.8094 81.6775 79.7125C81.9484 79.6157 82.1834 79.4636 82.39 79.2553Z" fill="#F9D2FF"/>
<path d="M82.6666 70.7559L81.0594 69.0287L82.0257 68.1206L83.6329 69.8478L84.7066 68.8388L85.6142 69.8057L84.5406 70.8147L87.0465 73.4949C87.2238 73.6903 87.4353 73.7928 87.6728 73.7961C87.9111 73.8068 88.116 73.7173 88.3047 73.548C88.3788 73.4805 88.4381 73.4146 88.4975 73.3487C88.5496 73.2836 88.5943 73.2193 88.6325 73.1631C88.6919 73.0972 88.7367 73.033 88.7741 72.9695L89.6907 73.9502C89.6395 74.0227 89.5744 74.104 89.502 74.1862C89.3914 74.3246 89.2263 74.506 88.9912 74.7249C88.5007 75.1797 88.0062 75.3978 87.4914 75.366C86.9765 75.3341 86.4787 75.0557 85.9744 74.5185L83.4596 71.8245L82.4933 72.7326L81.5856 71.7656L82.6666 70.7559Z" fill="#F9D2FF"/>
<path d="M87.3704 66.4601L92.0764 71.7358L90.9914 72.709L86.2854 67.4332L87.3704 66.4601ZM85.3037 66.3336L84.322 65.234L85.407 64.2609L86.3887 65.3605L85.3037 66.3336Z" fill="#F9D2FF"/>
<path d="M91.0141 67.9249C90.6895 67.5383 90.4577 67.1192 90.3178 66.6601C90.178 66.2011 90.1194 65.7405 90.1487 65.2701C90.178 64.7997 90.2984 64.3489 90.5025 63.9185C90.714 63.4872 91.0052 63.1063 91.3924 62.789C91.7714 62.4652 92.1985 62.2398 92.6515 62.1153C93.1119 61.9901 93.5665 61.9471 94.0391 61.9984C94.5043 62.0505 94.9492 62.1865 95.3811 62.4055C95.8057 62.6253 96.1798 62.9248 96.5044 63.3114C96.8289 63.698 97.0607 64.1171 97.2006 64.5762C97.3405 65.0352 97.399 65.4958 97.3697 65.9662C97.3404 66.4366 97.2192 66.8801 97.0151 67.3105C96.8109 67.741 96.5189 68.1145 96.1325 68.4392C95.7462 68.7638 95.3265 68.9884 94.8669 69.121C94.4074 69.2535 93.9446 69.2901 93.4793 69.2379C93.0141 69.1858 92.5619 69.0506 92.1381 68.8382C91.7127 68.611 91.3386 68.3115 91.0141 67.9249ZM95.2851 67.4136C95.5087 67.2257 95.6836 66.9987 95.7958 66.7415C95.9154 66.4835 95.974 66.2101 95.987 65.9269C96 65.6437 95.9529 65.3524 95.8545 65.0667C95.756 64.781 95.5926 64.51 95.3786 64.252C95.1647 63.994 94.9199 63.7913 94.6588 63.6424C94.3904 63.4942 94.1204 63.3982 93.8349 63.3631C93.5494 63.3281 93.2769 63.3435 93.0028 63.411C92.7287 63.4785 92.4766 63.6103 92.2529 63.7983C92.0292 63.9862 91.8543 64.2133 91.7421 64.4704C91.6225 64.7284 91.564 65.0018 91.551 65.285C91.5379 65.5682 91.5851 65.8595 91.6762 66.146C91.7673 66.4325 91.9316 66.7108 92.1455 66.9688C92.3594 67.2269 92.6034 67.4222 92.8718 67.5703C93.1402 67.7185 93.4167 67.8064 93.703 67.8488C93.9885 67.8838 94.261 67.8684 94.5351 67.8009C94.8092 67.7334 95.0614 67.6016 95.2851 67.4136Z" fill="#F9D2FF"/>
<path d="M99.9355 65.0897L95.6086 59.4901L96.7758 58.5894L97.2605 59.2177C97.2695 59.2315 97.293 59.2437 97.315 59.2413C97.337 59.2388 97.3508 59.2299 97.3549 59.1998C97.3663 59.1021 97.389 58.9736 97.4167 58.8222C97.4435 58.6635 97.4907 58.4877 97.5664 58.3014C97.6339 58.1085 97.738 57.9116 97.8641 57.7122C97.9901 57.5129 98.1626 57.3306 98.3741 57.1662C99.05 56.6463 99.7543 56.4495 100.48 56.5765C101.206 56.7109 101.871 57.1562 102.459 57.9139L104.985 61.1776L103.818 62.0783L101.292 58.8146C100.972 58.4052 100.596 58.1578 100.172 58.0715C99.747 57.9851 99.3371 58.0974 98.9548 58.3919C98.5115 58.7377 98.2683 59.1503 98.2178 59.6304C98.1674 60.1106 98.3504 60.6241 98.757 61.1499L101.102 64.1817L99.9355 65.0897Z" fill="#F9D2FF"/>
<path d="M37.4626 320.236C37.2435 319.809 37.1067 319.383 37.0656 318.949C37.0244 318.515 37.062 318.106 37.183 317.705C37.3052 317.312 37.4927 316.953 37.7601 316.625C38.0201 316.299 38.3503 316.036 38.742 315.83C39.244 315.569 39.7239 315.445 40.1658 315.455C40.6077 315.465 40.9926 315.537 41.3252 315.654C41.7074 315.8 42.0617 316.004 42.3745 316.274L44.9446 312.276L45.761 313.845L43.2484 317.647L44.3369 319.739L47.8647 317.9L48.6148 319.337L39.4675 324.097L37.4626 320.236ZM43.0296 320.415L41.7749 317.992C41.6666 317.786 41.5254 317.607 41.3527 317.464C41.18 317.32 40.9914 317.217 40.7869 317.153C40.5825 317.09 40.3694 317.065 40.1405 317.08C39.9189 317.094 39.6983 317.16 39.4922 317.268C39.286 317.376 39.1076 317.518 38.9642 317.69C38.8208 317.863 38.7173 318.052 38.6538 318.256C38.5902 318.461 38.5654 318.674 38.5805 318.903C38.5944 319.125 38.6603 319.346 38.7687 319.552L40.0234 321.975L43.0296 320.415Z" fill="#F9D2FF"/>
<path d="M36.3191 310.871C36.111 310.419 35.9912 309.961 35.9707 309.516C35.949 309.064 36.0205 308.635 36.1718 308.236C36.3304 307.837 36.5603 307.463 36.8712 307.129C37.1822 306.794 37.5632 306.523 38.0215 306.313C38.1185 306.268 38.2095 306.23 38.2943 306.202C38.3792 306.173 38.4579 306.152 38.5209 306.127C38.5997 306.107 38.6627 306.082 38.7197 306.065L41.0048 311C41.1989 310.864 41.3811 310.7 41.5342 310.495C41.6874 310.291 41.8007 310.071 41.874 309.835C41.9473 309.599 41.9795 309.34 41.9658 309.073C41.9508 308.799 41.885 308.534 41.7659 308.262C41.6167 307.943 41.4649 307.699 41.3115 307.537C41.1582 307.376 41.0121 307.258 40.8815 307.19C40.734 307.109 40.5924 307.065 40.4507 307.066L39.7697 305.594C40.1898 305.608 40.5915 305.691 40.9895 305.843C41.3306 305.966 41.6775 306.171 42.046 306.462C42.4133 306.745 42.7208 307.165 42.9735 307.706C43.1829 308.165 43.2881 308.625 43.3 309.109C43.3035 309.586 43.2235 310.055 43.0502 310.501C42.877 310.948 42.63 311.354 42.2947 311.723C41.9595 312.091 41.5663 312.379 41.1007 312.59C40.6497 312.798 40.1832 312.912 39.7085 312.93C39.2338 312.948 38.7811 312.872 38.3529 312.718C37.9247 312.564 37.5355 312.329 37.1792 312.022C36.8229 311.714 36.5285 311.329 36.3191 310.871ZM39.8446 311.481L38.16 307.844C37.7583 308.126 37.4812 308.485 37.3298 308.928C37.1772 309.364 37.2182 309.842 37.4504 310.35C37.6826 310.857 38.0219 311.197 38.4597 311.364C38.8988 311.539 39.36 311.575 39.8446 311.481Z" fill="#F9D2FF"/>
<path d="M34.2727 306.004L33.7063 304.641L34.5101 304.308C34.538 304.296 34.5502 304.279 34.5539 304.256C34.5576 304.233 34.5407 304.221 34.5165 304.21C34.4282 304.172 34.3 304.118 34.1464 304.046C33.9856 303.975 33.82 303.876 33.6423 303.748C33.4647 303.62 33.2896 303.462 33.117 303.274C32.9516 303.084 32.8094 302.854 32.7 302.595C32.5257 302.168 32.447 301.733 32.4701 301.281C32.4932 300.829 32.5949 300.402 32.7826 299.998C32.9702 299.594 33.2377 299.222 33.5862 298.888C33.9347 298.555 34.3459 298.286 34.8284 298.088C35.2964 297.892 35.7798 297.79 36.263 297.778C36.7462 297.767 37.1988 297.842 37.6197 297.997C38.0407 298.152 38.4142 298.382 38.7475 298.686C39.0808 298.99 39.334 299.352 39.5084 299.779C39.619 300.045 39.6836 300.303 39.7168 300.551C39.7512 300.807 39.759 301.037 39.7414 301.249C39.7311 301.46 39.7015 301.644 39.6599 301.8C39.6183 301.956 39.578 302.075 39.5523 302.146C39.5414 302.17 39.5449 302.192 39.5607 302.197C39.5764 302.202 39.5921 302.207 39.6067 302.205L43.1018 300.759L43.6682 302.123L34.2727 306.004ZM38.3441 300.417C38.2431 300.165 38.0803 299.945 37.8786 299.762C37.6769 299.578 37.4315 299.447 37.1702 299.355C36.9017 299.264 36.6185 299.221 36.3145 299.234C36.0105 299.246 35.7003 299.312 35.3924 299.437C35.0845 299.562 34.8212 299.732 34.5942 299.941C34.3672 300.15 34.1958 300.379 34.074 300.638C33.9509 300.89 33.8751 301.156 33.8598 301.427C33.8444 301.699 33.8812 301.969 33.9894 302.22C34.0977 302.471 34.2544 302.699 34.4646 302.889C34.6747 303.079 34.9152 303.226 35.1862 303.331C35.4571 303.436 35.7488 303.485 36.0551 303.488C36.3615 303.49 36.6717 303.424 36.9796 303.299C37.2875 303.174 37.5496 302.997 37.7681 302.782C37.9867 302.567 38.1557 302.323 38.2691 302.058C38.3898 301.791 38.4559 301.512 38.4701 301.233C38.4891 300.939 38.4462 300.677 38.3441 300.417Z" fill="#F9D2FF"/>
<path d="M37.5658 295.278L30.9401 297.751L30.4234 296.372L31.1689 296.093C31.1907 296.09 31.1956 296.074 31.2004 296.058C31.2053 296.042 31.1957 296.029 31.1715 296.018C31.0832 295.98 30.9684 295.917 30.8221 295.844C30.6758 295.771 30.5247 295.668 30.3701 295.544C30.2154 295.42 30.056 295.267 29.9064 295.083C29.7568 294.898 29.6315 294.679 29.539 294.433L29.408 294.089L30.716 293.598C30.7255 293.657 30.7362 293.722 30.7408 293.796C30.7503 293.854 30.7683 293.918 30.796 293.996C30.8236 294.074 30.8512 294.151 30.8824 294.251C31.0807 294.778 31.3993 295.13 31.8492 295.325C32.2979 295.513 32.8319 295.493 33.4574 295.256L37.0442 293.915L37.5658 295.278Z" fill="#F9D2FF"/>
<path d="M27.9403 289.808C27.7806 289.334 27.719 288.866 27.7433 288.421C27.7737 287.968 27.8851 287.554 28.0836 287.171C28.282 286.787 28.5543 286.444 28.9014 286.148C29.2486 285.853 29.6585 285.621 30.1324 285.462C30.2391 285.429 30.3312 285.399 30.4185 285.385C30.5057 285.371 30.5844 285.35 30.6498 285.34C30.7298 285.327 30.794 285.309 30.8522 285.299L32.5833 290.452C32.7967 290.342 32.9885 290.192 33.167 290.006C33.3456 289.82 33.483 289.61 33.5805 289.385C33.6769 289.153 33.7332 288.905 33.7558 288.632C33.7711 288.361 33.7344 288.091 33.6432 287.807C33.5291 287.475 33.4052 287.219 33.2713 287.039C33.1374 286.859 33.0046 286.732 32.8861 286.646C32.7508 286.549 32.6141 286.489 32.4701 286.476L31.9502 284.94C32.363 285 32.7562 285.122 33.1322 285.322C33.4574 285.485 33.78 285.724 34.1169 286.049C34.4465 286.376 34.7056 286.819 34.9025 287.384C35.0622 287.859 35.1177 288.335 35.0764 288.812C35.0278 289.29 34.8933 289.746 34.6789 290.169C34.4573 290.593 34.1608 290.971 33.7893 291.3C33.4178 291.63 32.9872 291.872 32.5061 292.033C32.0322 292.192 31.5573 292.255 31.0803 292.214C30.6118 292.178 30.1666 292.057 29.7531 291.856C29.3468 291.654 28.9819 291.385 28.6633 291.034C28.3446 290.682 28.1 290.282 27.9403 289.808ZM31.3787 290.798L30.1001 286.998C29.6757 287.231 29.3575 287.567 29.1565 287.981C28.9555 288.395 28.9444 288.874 29.1208 289.406C29.2973 289.937 29.5977 290.313 30.0136 290.529C30.4307 290.752 30.8858 290.842 31.3787 290.798Z" fill="#F9D2FF"/>
<path d="M31.4217 283.918L31.0188 282.55C31.1995 282.468 31.3451 282.354 31.4569 282.217C31.5565 282.096 31.6273 281.935 31.6847 281.739C31.7422 281.543 31.7247 281.299 31.6396 281.007C31.5233 280.615 31.3303 280.348 31.0704 280.219C30.8031 280.091 30.5514 280.057 30.309 280.127C30.0957 280.192 29.9536 280.327 29.884 280.54C29.8216 280.752 29.7798 280.998 29.7741 281.282C29.7684 281.567 29.7663 281.873 29.7678 282.202C29.7765 282.529 29.7381 282.841 29.6609 283.145C29.5838 283.449 29.457 283.724 29.2589 283.973C29.0681 284.22 28.7697 284.404 28.3782 284.52C28.1359 284.589 27.8779 284.609 27.6031 284.572C27.3284 284.535 27.0744 284.442 26.835 284.302C26.5945 284.155 26.3759 283.959 26.1708 283.709C25.9729 283.457 25.8188 283.154 25.7169 282.805C25.5382 282.214 25.5082 281.711 25.6147 281.313C25.7212 280.915 25.8698 280.592 26.0691 280.35C26.3145 280.071 26.6143 279.85 26.961 279.689L27.3242 280.951C27.1691 281.007 27.0429 281.102 26.9444 281.23C26.8642 281.333 26.8008 281.492 26.7663 281.692C26.7318 281.892 26.7601 282.156 26.8573 282.476C26.9053 282.633 26.9715 282.764 27.0632 282.868C27.1549 282.973 27.2564 283.046 27.3628 283.103C27.4692 283.16 27.5781 283.187 27.6919 283.199C27.8057 283.21 27.9014 283.202 27.9862 283.173C28.1922 283.109 28.327 282.975 28.3967 282.762C28.4591 282.55 28.4997 282.297 28.5115 282.004C28.5232 281.711 28.5253 281.404 28.5154 281.07C28.5055 280.736 28.5427 280.416 28.6126 280.113C28.6813 279.803 28.8153 279.527 29.0061 279.28C29.197 279.032 29.4881 278.85 29.8941 278.731C30.1789 278.647 30.4587 278.624 30.748 278.659C31.0373 278.694 31.307 278.791 31.5717 278.95C31.8364 279.108 32.067 279.332 32.2793 279.625C32.4916 279.919 32.654 280.273 32.7812 280.686C32.8783 281.006 32.9344 281.303 32.9409 281.571C32.9546 281.837 32.9346 282.079 32.8952 282.295C32.8558 282.511 32.7814 282.694 32.6962 282.858C32.6037 283.022 32.5076 283.165 32.4019 283.294C32.1311 283.555 31.8084 283.772 31.4217 283.918Z" fill="#F9D2FF"/>
<path d="M23.6644 275.427C23.5399 274.94 23.5086 274.474 23.5704 274.031C23.631 273.581 23.7739 273.176 23.9977 272.811C24.2216 272.446 24.5192 272.121 24.8857 271.852C25.2521 271.583 25.6741 271.38 26.1612 271.255C26.2691 271.23 26.3624 271.207 26.4496 271.193C26.5368 271.179 26.618 271.173 26.6834 271.162C26.7633 271.149 26.8299 271.146 26.8881 271.136L28.2496 276.402C28.4654 276.307 28.6741 276.168 28.8634 276.003C29.0528 275.837 29.206 275.633 29.3192 275.413C29.4325 275.193 29.5107 274.941 29.549 274.674C29.5873 274.406 29.5639 274.126 29.4957 273.846C29.4095 273.502 29.3001 273.243 29.1795 273.054C29.059 272.864 28.9395 272.727 28.8199 272.635C28.6907 272.529 28.5601 272.461 28.4209 272.431L28.015 270.862C28.4252 270.952 28.8086 271.106 29.1725 271.323C29.4855 271.503 29.7911 271.774 30.1013 272.119C30.4115 272.464 30.6366 272.927 30.7838 273.508C30.9083 273.996 30.9336 274.469 30.8547 274.945C30.7758 275.421 30.6087 275.859 30.3617 276.266C30.1147 276.672 29.7928 277.031 29.3936 277.327C28.9943 277.624 28.5518 277.839 28.0586 277.972C27.5714 278.096 27.0979 278.121 26.6235 278.049C26.1563 277.977 25.722 277.831 25.3267 277.604C24.9314 277.378 24.5908 277.075 24.2989 276.705C24.0069 276.334 23.789 275.915 23.6644 275.427ZM27.0234 276.662L26.0224 272.779C25.5786 272.986 25.2399 273.288 25.0159 273.698C24.7835 274.102 24.7421 274.579 24.8823 275.116C25.0236 275.66 25.29 276.057 25.6877 276.298C26.0854 276.539 26.5318 276.668 27.0234 276.662Z" fill="#F9D2FF"/>
<path d="M29.4429 268.797L22.5294 270.287L22.2187 268.844L22.9978 268.679C23.0196 268.676 23.0318 268.659 23.0439 268.642C23.0549 268.618 23.0452 268.604 23.0271 268.585C22.9437 268.531 22.8422 268.458 22.7081 268.368C22.5739 268.278 22.4423 268.158 22.2987 268.01C22.155 267.862 22.0223 267.689 21.8993 267.485C21.7764 267.281 21.6863 267.05 21.6289 266.79C21.4473 265.954 21.5765 265.238 22.0081 264.637C22.4397 264.036 23.1275 263.633 24.0725 263.433L28.1024 262.565L28.413 264.008L24.3832 264.876C23.8718 264.989 23.491 265.216 23.2284 265.573C22.9658 265.929 22.8908 266.337 22.9899 266.806C23.1094 267.354 23.3759 267.751 23.7905 268.005C24.2051 268.258 24.7437 268.312 25.3931 268.176L29.1346 267.369L29.4429 268.797Z" fill="#F9D2FF"/>
<path d="M20.6201 261.025L18.3012 261.449L18.0653 260.143L20.3841 259.719L20.1171 258.269L21.4218 258.034L21.6816 259.485L25.2907 258.827C25.5511 258.777 25.7488 258.662 25.8802 258.462C26.0127 258.268 26.0582 258.044 26.0166 257.79C26.0011 257.695 25.9783 257.602 25.9507 257.524C25.9231 257.447 25.8955 257.369 25.8702 257.306C25.8414 257.221 25.8138 257.143 25.7813 257.081L27.1006 256.843C27.1367 256.927 27.1667 257.019 27.1991 257.126C27.2567 257.296 27.3178 257.532 27.3762 257.844C27.499 258.503 27.4067 259.033 27.1088 259.448C26.8109 259.863 26.2955 260.134 25.571 260.267L21.9474 260.927L22.1834 262.233L20.8787 262.468L20.6201 261.025Z" fill="#F9D2FF"/>
<path d="M22.4455 254.2C22.3663 253.944 22.2908 253.665 22.2057 253.373C22.1206 253.08 22.0306 252.804 21.9308 252.559C21.831 252.314 21.7153 252.109 21.5935 251.957C21.4716 251.805 21.3338 251.738 21.18 251.756C20.859 251.801 20.6235 251.959 20.4714 252.215C20.3193 252.472 20.282 252.836 20.3509 253.303C20.3962 253.534 20.467 253.739 20.5646 253.925C20.6355 254.085 20.749 254.231 20.8987 254.371C21.0485 254.51 21.2504 254.604 21.5034 254.645L21.6957 255.958C21.3131 255.946 20.961 255.846 20.6407 255.667C20.3626 255.519 20.0848 255.28 19.8084 254.96C19.5309 254.632 19.3349 254.163 19.2277 253.554C19.1417 253.12 19.1272 252.711 19.1852 252.336C19.2432 251.961 19.3677 251.627 19.5598 251.341C19.7519 251.056 20.0033 250.813 20.3089 250.629C20.6207 250.436 20.988 250.309 21.4107 250.247L25.9292 249.582L26.1454 251.041L25.4173 251.152C25.6046 251.293 25.7809 251.459 25.9402 251.657C26.0728 251.829 26.2103 252.031 26.3404 252.278C26.4704 252.526 26.5616 252.809 26.6079 253.138C26.6589 253.495 26.6482 253.841 26.5819 254.165C26.5083 254.491 26.3973 254.77 26.2368 255.021C26.0835 255.27 25.8855 255.474 25.6574 255.631C25.4293 255.788 25.1844 255.887 24.9361 255.92C24.3534 256.008 23.8355 255.899 23.3908 255.598C22.9448 255.29 22.6301 254.827 22.4455 254.2ZM25.3112 253.104C25.2233 252.521 25.0017 252.079 24.6333 251.788C24.2648 251.498 23.7044 251.403 22.9473 251.519L22.6117 251.566C22.5899 251.57 22.5766 251.58 22.5644 251.597C22.5523 251.613 22.5546 251.628 22.58 251.646C22.69 251.725 22.7937 251.858 22.8816 252.03C22.9707 252.21 23.0525 252.39 23.1149 252.589C23.1773 252.788 23.2397 252.987 23.3033 253.193C23.3668 253.399 23.4257 253.576 23.5039 253.735C23.623 254.007 23.7677 254.207 23.9453 254.335C24.1157 254.464 24.3323 254.511 24.5867 254.469C24.8121 254.432 25.0074 254.303 25.1691 254.06C25.3187 253.834 25.3705 253.512 25.3112 253.104Z" fill="#F9D2FF"/>
<path d="M18.5671 247.548L16.2233 247.819L16.0746 246.5L18.4184 246.228L18.2458 244.763L19.5649 244.614L19.7302 246.081L23.3712 245.664C23.6353 245.636 23.8414 245.528 23.9897 245.339C24.138 245.151 24.1919 244.933 24.166 244.683C24.1578 244.587 24.1423 244.493 24.122 244.414C24.1016 244.335 24.0812 244.256 24.056 244.193C24.0344 244.107 24.0141 244.028 23.9888 243.965L25.3224 243.814C25.3513 243.899 25.3752 244 25.3991 244.1C25.4495 244.271 25.4899 244.519 25.5253 244.827C25.6045 245.493 25.4747 246.022 25.1502 246.411C24.827 246.808 24.2984 247.043 23.5656 247.126L19.91 247.545L20.066 248.863L18.7469 249.012L18.5671 247.548Z" fill="#F9D2FF"/>
<path d="M17.9091 241.231L24.9521 240.579L25.0848 242.028L18.0417 242.68L17.9091 241.231ZM16.5786 242.815L15.1082 242.951L14.9744 241.494L16.4375 241.36L16.5786 242.815Z" fill="#F9D2FF"/>
<path d="M21.2465 239.168C20.7439 239.197 20.2707 239.133 19.8195 238.975C19.3683 238.818 18.9645 238.585 18.6021 238.286C18.2397 237.987 17.9562 237.622 17.7298 237.196C17.5034 236.771 17.3764 236.313 17.3464 235.811C17.3163 235.308 17.3819 234.841 17.5551 234.395C17.7211 233.95 17.9704 233.558 18.2874 233.215C18.6045 232.872 18.977 232.594 19.4112 232.374C19.8392 232.162 20.3033 232.034 20.8059 232.004C21.3085 231.974 21.7818 232.038 22.233 232.196C22.6842 232.354 23.0953 232.585 23.4504 232.885C23.8055 233.186 24.0963 233.549 24.3215 233.968C24.5467 234.386 24.6737 234.843 24.7037 235.346C24.7337 235.849 24.6694 236.323 24.4962 236.769C24.323 237.216 24.0821 237.613 23.765 237.956C23.448 238.3 23.0755 238.577 22.6413 238.797C22.2072 239.018 21.7479 239.13 21.2465 239.168ZM23.374 235.429C23.3554 235.134 23.2739 234.863 23.1365 234.617C22.9992 234.371 22.8146 234.154 22.5923 233.982C22.3688 233.802 22.1161 233.671 21.8246 233.577C21.5342 233.49 21.2219 233.452 20.8901 233.476C20.5583 233.5 20.2492 233.573 19.9704 233.694C19.6927 233.821 19.4586 233.986 19.2533 234.192C19.0554 234.396 18.8997 234.63 18.7936 234.894C18.6875 235.158 18.6431 235.434 18.6616 235.73C18.6801 236.025 18.7617 236.296 18.899 236.542C19.0363 236.789 19.221 237.005 19.4433 237.178C19.6668 237.358 19.9206 237.495 20.2122 237.589C20.5037 237.684 20.816 237.722 21.1479 237.698C21.4797 237.673 21.7887 237.6 22.0663 237.473C22.344 237.345 22.5843 237.171 22.7822 236.967C22.9802 236.763 23.1359 236.529 23.242 236.265C23.3481 236.001 23.3913 235.718 23.374 235.429Z" fill="#F9D2FF"/>
<path d="M24.2745 230.3L17.2026 230.456L17.1706 228.983L17.9662 228.965C17.988 228.961 18.0013 228.952 18.0207 228.934C18.0401 228.916 18.0293 228.895 18.0112 228.876C17.94 228.805 17.8506 228.715 17.742 228.598C17.6333 228.482 17.5212 228.343 17.4115 228.175C17.3018 228.006 17.2018 227.806 17.1201 227.58C17.0385 227.354 16.9907 227.108 16.9854 226.848C16.9649 225.993 17.2272 225.315 17.7627 224.802C18.2993 224.296 19.0545 224.03 20.0135 224.008L24.1332 223.916L24.1652 225.39L20.0456 225.481C19.5249 225.492 19.1031 225.65 18.7777 225.942C18.4536 226.242 18.2999 226.625 18.3118 227.109C18.3211 227.667 18.5135 228.114 18.8722 228.436C19.2309 228.758 19.7499 228.92 20.4111 228.901L24.2413 228.82L24.2745 230.3Z" fill="#F9D2FF"/>
</svg>
