<svg width="624" height="49" viewBox="0 0 624 49" fill="none" xmlns="http://www.w3.org/2000/svg">
<line x1="3.33136" y1="0.00390632" x2="1.99803" y2="48.0039" stroke="#335AFF" stroke-width="2"/>
<line x1="27.3353" y1="24.0039" x2="27.3353" y2="48.0039" stroke="#335AFF" stroke-width="2"/>
<line x1="51.3353" y1="24.0039" x2="51.3353" y2="48.0039" stroke="#335AFF" stroke-width="2"/>
<line x1="75.3353" y1="24.0039" x2="75.3353" y2="48.0039" stroke="#335AFF" stroke-width="2"/>
<line x1="99.3314" y1="0.00390632" x2="97.998" y2="48.0039" stroke="#335AFF" stroke-width="2"/>
<line x1="123.335" y1="24.0039" x2="123.335" y2="48.0039" stroke="#335AFF" stroke-width="2"/>
<line x1="147.335" y1="24.0039" x2="147.335" y2="48.0039" stroke="#335AFF" stroke-width="2"/>
<line x1="171.335" y1="24.0039" x2="171.335" y2="48.0039" stroke="#335AFF" stroke-width="2"/>
<line x1="195.335" y1="24.0039" x2="195.335" y2="48.0039" stroke="#335AFF" stroke-width="2"/>
<line x1="219.331" y1="0.00390632" x2="217.998" y2="48.0039" stroke="#335AFF" stroke-width="2"/>
<line x1="243.335" y1="24.0039" x2="243.335" y2="48.0039" stroke="#335AFF" stroke-width="2"/>
<line x1="267.335" y1="24.0039" x2="267.335" y2="48.0039" stroke="#335AFF" stroke-width="2"/>
<line x1="291.335" y1="24.0039" x2="291.335" y2="48.0039" stroke="#335AFF" stroke-width="2"/>
<line x1="315.335" y1="24.0039" x2="315.335" y2="48.0039" stroke="#335AFF" stroke-width="2"/>
<line x1="339.331" y1="0.00390632" x2="337.998" y2="48.0039" stroke="#335AFF" stroke-width="2"/>
<line x1="363.335" y1="24.0039" x2="363.335" y2="48.0039" stroke="#335AFF" stroke-width="2"/>
<line x1="387.335" y1="24.0039" x2="387.335" y2="48.0039" stroke="#335AFF" stroke-width="2"/>
<line x1="411.335" y1="24.0039" x2="411.335" y2="48.0039" stroke="#335AFF" stroke-width="2"/>
<line x1="435.335" y1="24.0039" x2="435.335" y2="48.0039" stroke="#335AFF" stroke-width="2"/>
<line x1="459.331" y1="0.00390632" x2="457.998" y2="48.0039" stroke="#335AFF" stroke-width="2"/>
<line x1="581.331" y1="0.00390632" x2="579.998" y2="48.0039" stroke="#335AFF" stroke-width="2"/>
<line x1="483.335" y1="24.0039" x2="483.335" y2="48.0039" stroke="#335AFF" stroke-width="2"/>
<line x1="605.335" y1="24.0039" x2="605.335" y2="48.0039" stroke="#335AFF" stroke-width="2"/>
<line x1="507.335" y1="24.0039" x2="507.335" y2="48.0039" stroke="#335AFF" stroke-width="2"/>
<line x1="531.335" y1="24.0039" x2="531.335" y2="48.0039" stroke="#335AFF" stroke-width="2"/>
<line x1="555.335" y1="24.0039" x2="555.335" y2="48.0039" stroke="#335AFF" stroke-width="2"/>
</svg>
