<svg width="463" height="465" viewBox="0 0 463 465" fill="none" xmlns="http://www.w3.org/2000/svg">
<g clip-path="url(#clip0)">
<path d="M463 232.179C463 103.735 359.494 0.00488405 231.326 0.00488558L231.326 464.005C359.494 464.005 463 360.275 463 232.179Z" fill="#A4F0F4"/>
<path d="M-0.00312528 232.179C-0.00312376 360.275 103.503 464.353 231.67 464.353L231.323 0.00488282C103.503 0.00488434 -0.00312681 103.735 -0.00312528 232.179Z" fill="#F9D2FF"/>
<path d="M64.2596 296.578C64.2596 389.169 138.937 464.008 231.329 464.008L231.329 129.148C139.284 129.148 64.2596 203.987 64.2596 296.578Z" fill="#335AFF"/>
<path d="M334.135 232.182C334.135 175.444 287.939 129.148 231.323 129.148L231.323 335.216C288.286 335.216 334.135 288.92 334.135 232.182Z" fill="#FFD93B"/>
</g>
<defs>
<clipPath id="clip0">
<rect width="464" height="463" fill="white" transform="translate(463 0.00488281) rotate(90)"/>
</clipPath>
</defs>
</svg>
