<svg width="500" height="240" viewBox="0 0 500 240" fill="none" xmlns="http://www.w3.org/2000/svg">
<line x1="80" y1="25.1084" x2="80" y2="215.907" stroke="#00FCFF" stroke-width="2"/>
<path d="M91.56 25.3084H93.6V42.1084H90.96V29.3884H87.96V27.5884C88.504 27.5244 88.968 27.4284 89.352 27.3004C89.736 27.1724 90.064 27.0124 90.336 26.8204C90.624 26.6124 90.864 26.3884 91.056 26.1484C91.248 25.8924 91.416 25.6124 91.56 25.3084ZM97.5784 39.2524H100.41V42.1084H97.5784V39.2524ZM106.326 25.3084H108.366V42.1084H105.726V29.3884H102.726V27.5884C103.27 27.5244 103.734 27.4284 104.118 27.3004C104.502 27.1724 104.83 27.0124 105.102 26.8204C105.39 26.6124 105.63 26.3884 105.822 26.1484C106.014 25.8924 106.182 25.6124 106.326 25.3084ZM115.44 36.1084L111.48 30.5884H114.24L116.88 34.3084L119.52 30.5884H122.28L118.32 36.1084L122.64 42.1084H119.88L116.88 37.9084L113.88 42.1084H111.12L115.44 36.1084Z" fill="#00FCFF"/>
<line x1="192" y1="0.645508" x2="192" y2="215.905" stroke="#00FCFF" stroke-width="2"/>
<path d="M203.56 0.845507H205.6V17.6455H202.96V4.92551H199.96V3.12551C200.504 3.06151 200.968 2.96551 201.352 2.83751C201.736 2.70951 202.064 2.54951 202.336 2.35751C202.624 2.14951 202.864 1.92551 203.056 1.68551C203.248 1.42951 203.416 1.14951 203.56 0.845507ZM209.578 14.7895H212.41V17.6455H209.578V14.7895ZM214.726 17.6455C214.726 16.3655 214.934 15.2855 215.35 14.4055C215.782 13.5255 216.31 12.7735 216.934 12.1495C217.558 11.5095 218.238 10.9575 218.974 10.4935C219.726 10.0295 220.414 9.57351 221.038 9.12551C221.662 8.66151 222.182 8.17351 222.598 7.66151C223.03 7.13351 223.246 6.50151 223.246 5.76551C223.246 4.91751 222.982 4.24551 222.454 3.74951C221.942 3.25351 221.206 3.00551 220.246 3.00551C219.622 3.00551 219.11 3.13351 218.71 3.38951C218.326 3.62951 218.022 3.90151 217.798 4.20551C217.542 4.55751 217.358 4.95751 217.246 5.40551H214.774C214.774 5.34151 214.79 5.18151 214.822 4.92551C214.87 4.65351 214.958 4.34151 215.086 3.98951C215.23 3.63751 215.422 3.26151 215.662 2.86151C215.902 2.46151 216.222 2.09351 216.622 1.75751C217.022 1.42151 217.518 1.14951 218.11 0.941507C218.702 0.717507 219.414 0.605507 220.246 0.605507C221.094 0.605507 221.862 0.741507 222.55 1.01351C223.238 1.26951 223.83 1.63751 224.326 2.11751C224.822 2.58151 225.206 3.12551 225.478 3.74951C225.75 4.37351 225.886 5.04551 225.886 5.76551C225.886 6.58151 225.726 7.29351 225.406 7.90151C225.102 8.50951 224.702 9.06151 224.206 9.55751C223.726 10.0535 223.182 10.5095 222.574 10.9255C221.966 11.3255 221.358 11.7415 220.75 12.1735C220.142 12.6055 219.566 13.0695 219.022 13.5655C218.494 14.0455 218.062 14.6055 217.726 15.2455H225.886V17.6455H214.726ZM231.776 11.6455L227.816 6.12551H230.576L233.216 9.84551L235.856 6.12551H238.616L234.656 11.6455L238.976 17.6455H236.216L233.216 13.4455L230.216 17.6455H227.456L231.776 11.6455Z" fill="#00FCFF"/>
<line x1="309" y1="41.7412" x2="309" y2="215.906" stroke="#00FCFF" stroke-width="2"/>
<path d="M317.44 50.3412C317.44 48.9972 317.624 47.7892 317.992 46.7172C318.376 45.6452 318.888 44.7412 319.528 44.0052C320.184 43.2532 320.936 42.6852 321.784 42.3012C322.648 41.9012 323.56 41.7012 324.52 41.7012C325.48 41.7012 326.384 41.9012 327.232 42.3012C328.096 42.6852 328.848 43.2532 329.488 44.0052C330.144 44.7412 330.656 45.6452 331.024 46.7172C331.408 47.7892 331.6 48.9972 331.6 50.3412C331.6 51.6852 331.408 52.8932 331.024 53.9652C330.656 55.0372 330.144 55.9492 329.488 56.7012C328.848 57.4372 328.096 58.0052 327.232 58.4052C326.384 58.7892 325.48 58.9812 324.52 58.9812C323.56 58.9812 322.648 58.7892 321.784 58.4052C320.936 58.0052 320.184 57.4372 319.528 56.7012C318.888 55.9492 318.376 55.0372 317.992 53.9652C317.624 52.8932 317.44 51.6852 317.44 50.3412ZM320.08 50.3412C320.08 51.3652 320.2 52.2692 320.44 53.0532C320.696 53.8212 321.032 54.4692 321.448 54.9972C321.864 55.5252 322.336 55.9252 322.864 56.1972C323.392 56.4532 323.944 56.5812 324.52 56.5812C325.096 56.5812 325.648 56.4532 326.176 56.1972C326.704 55.9252 327.176 55.5252 327.592 54.9972C328.008 54.4692 328.336 53.8212 328.576 53.0532C328.832 52.2692 328.96 51.3652 328.96 50.3412C328.96 49.3172 328.832 48.4212 328.576 47.6532C328.336 46.8692 328.008 46.2132 327.592 45.6852C327.176 45.1572 326.704 44.7652 326.176 44.5092C325.648 44.2372 325.096 44.1012 324.52 44.1012C323.944 44.1012 323.392 44.2372 322.864 44.5092C322.336 44.7652 321.864 45.1572 321.448 45.6852C321.032 46.2132 320.696 46.8692 320.44 47.6532C320.2 48.4212 320.08 49.3172 320.08 50.3412ZM334.383 55.8852H337.215V58.7412H334.383V55.8852ZM340.01 47.4612C340.01 46.6772 340.162 45.9412 340.466 45.2532C340.786 44.5492 341.21 43.9332 341.738 43.4052C342.282 42.8772 342.922 42.4612 343.658 42.1572C344.394 41.8532 345.178 41.7012 346.01 41.7012C346.858 41.7012 347.642 41.8532 348.362 42.1572C349.098 42.4612 349.73 42.8772 350.258 43.4052C350.802 43.9332 351.226 44.5492 351.53 45.2532C351.85 45.9412 352.01 46.6772 352.01 47.4612C352.01 48.0052 351.938 48.5092 351.794 48.9732C351.666 49.4372 351.522 49.8452 351.362 50.1972C351.154 50.5972 350.93 50.9652 350.69 51.3012L345.89 58.7412H343.25L346.97 52.9812C346.842 53.0292 346.706 53.0692 346.562 53.1012C346.434 53.1332 346.282 53.1652 346.106 53.1972C345.946 53.2132 345.754 53.2212 345.53 53.2212C344.81 53.2212 344.114 53.0692 343.442 52.7652C342.786 52.4612 342.202 52.0452 341.69 51.5172C341.178 50.9892 340.77 50.3812 340.466 49.6932C340.162 48.9892 340.01 48.2452 340.01 47.4612ZM342.41 47.4612C342.41 47.9412 342.498 48.3972 342.674 48.8292C342.866 49.2452 343.122 49.6132 343.442 49.9332C343.762 50.2372 344.138 50.4852 344.57 50.6772C345.018 50.8532 345.498 50.9412 346.01 50.9412C346.522 50.9412 346.994 50.8532 347.426 50.6772C347.874 50.4852 348.258 50.2372 348.578 49.9332C348.898 49.6132 349.146 49.2452 349.322 48.8292C349.514 48.3972 349.61 47.9412 349.61 47.4612C349.61 46.9812 349.514 46.5332 349.322 46.1172C349.146 45.6852 348.898 45.3172 348.578 45.0132C348.258 44.6932 347.874 44.4452 347.426 44.2692C346.994 44.0772 346.522 43.9812 346.01 43.9812C345.498 43.9812 345.018 44.0772 344.57 44.2692C344.138 44.4452 343.762 44.6932 343.442 45.0132C343.122 45.3172 342.866 45.6852 342.674 46.1172C342.498 46.5332 342.41 46.9812 342.41 47.4612ZM357.659 52.7412L353.699 47.2212H356.459L359.099 50.9412L361.739 47.2212H364.499L360.539 52.7412L364.859 58.7412H362.099L359.099 54.5412L356.099 58.7412H353.339L357.659 52.7412Z" fill="#00FCFF"/>
<line x1="426" y1="112.19" x2="426" y2="215.906" stroke="#00FCFF" stroke-width="2"/>
<path d="M434.44 120.79C434.44 119.446 434.624 118.238 434.992 117.166C435.376 116.094 435.888 115.19 436.528 114.454C437.184 113.702 437.936 113.134 438.784 112.75C439.648 112.35 440.56 112.15 441.52 112.15C442.48 112.15 443.384 112.35 444.232 112.75C445.096 113.134 445.848 113.702 446.488 114.454C447.144 115.19 447.656 116.094 448.024 117.166C448.408 118.238 448.6 119.446 448.6 120.79C448.6 122.134 448.408 123.342 448.024 124.414C447.656 125.486 447.144 126.398 446.488 127.15C445.848 127.886 445.096 128.454 444.232 128.854C443.384 129.238 442.48 129.43 441.52 129.43C440.56 129.43 439.648 129.238 438.784 128.854C437.936 128.454 437.184 127.886 436.528 127.15C435.888 126.398 435.376 125.486 434.992 124.414C434.624 123.342 434.44 122.134 434.44 120.79ZM437.08 120.79C437.08 121.814 437.2 122.718 437.44 123.502C437.696 124.27 438.032 124.918 438.448 125.446C438.864 125.974 439.336 126.374 439.864 126.646C440.392 126.902 440.944 127.03 441.52 127.03C442.096 127.03 442.648 126.902 443.176 126.646C443.704 126.374 444.176 125.974 444.592 125.446C445.008 124.918 445.336 124.27 445.576 123.502C445.832 122.718 445.96 121.814 445.96 120.79C445.96 119.766 445.832 118.87 445.576 118.102C445.336 117.318 445.008 116.662 444.592 116.134C444.176 115.606 443.704 115.214 443.176 114.958C442.648 114.686 442.096 114.55 441.52 114.55C440.944 114.55 440.392 114.686 439.864 114.958C439.336 115.214 438.864 115.606 438.448 116.134C438.032 116.662 437.696 117.318 437.44 118.102C437.2 118.87 437.08 119.766 437.08 120.79ZM451.383 126.334H454.215V129.19H451.383V126.334ZM456.53 129.19C456.53 127.91 456.738 126.83 457.154 125.95C457.586 125.07 458.114 124.318 458.738 123.694C459.362 123.054 460.042 122.502 460.778 122.038C461.53 121.574 462.218 121.118 462.842 120.67C463.466 120.206 463.986 119.718 464.402 119.206C464.834 118.678 465.05 118.046 465.05 117.31C465.05 116.462 464.786 115.79 464.258 115.294C463.746 114.798 463.01 114.55 462.05 114.55C461.426 114.55 460.914 114.678 460.514 114.934C460.13 115.174 459.826 115.446 459.602 115.75C459.346 116.102 459.162 116.502 459.05 116.95H456.578C456.578 116.886 456.594 116.726 456.626 116.47C456.674 116.198 456.762 115.886 456.89 115.534C457.034 115.182 457.226 114.806 457.466 114.406C457.706 114.006 458.026 113.638 458.426 113.302C458.826 112.966 459.322 112.694 459.914 112.486C460.506 112.262 461.218 112.15 462.05 112.15C462.898 112.15 463.666 112.286 464.354 112.558C465.042 112.814 465.634 113.182 466.13 113.662C466.626 114.126 467.01 114.67 467.282 115.294C467.554 115.918 467.69 116.59 467.69 117.31C467.69 118.126 467.53 118.838 467.21 119.446C466.906 120.054 466.506 120.606 466.01 121.102C465.53 121.598 464.986 122.054 464.378 122.47C463.77 122.87 463.162 123.286 462.554 123.718C461.946 124.15 461.37 124.614 460.826 125.11C460.298 125.59 459.866 126.15 459.53 126.79H467.69V129.19H456.53ZM473.581 123.19L469.621 117.67H472.381L475.021 121.39L477.661 117.67H480.421L476.461 123.19L480.781 129.19H478.021L475.021 124.99L472.021 129.19H469.261L473.581 123.19Z" fill="#00FCFF"/>
<g clip-path="url(#clip0)">
<path d="M59.2945 236.005V228.305H60.0095L64.7395 234.52V228.305H65.5645V236.005H64.8495L60.1195 229.79V236.005H59.2945ZM67.1625 233.365C67.1625 232.976 67.2322 232.617 67.3715 232.287C67.5109 231.95 67.6979 231.66 67.9325 231.418C68.1745 231.169 68.4495 230.974 68.7575 230.835C69.0729 230.688 69.4029 230.615 69.7475 230.615C70.1069 230.615 70.4369 230.681 70.7375 230.813C71.0455 230.945 71.3095 231.128 71.5295 231.363C71.7569 231.59 71.9329 231.865 72.0575 232.188C72.1822 232.511 72.2445 232.866 72.2445 233.255C72.2445 233.314 72.2409 233.365 72.2335 233.409C72.2335 233.453 72.2299 233.493 72.2225 233.53C72.2079 233.574 72.1969 233.614 72.1895 233.651L67.9325 233.64C67.9472 233.875 68.0059 234.098 68.1085 234.311C68.2112 234.524 68.3469 234.711 68.5155 234.872C68.6842 235.033 68.8785 235.162 69.0985 235.257C69.3185 235.352 69.5532 235.4 69.8025 235.4C70.0665 235.4 70.2902 235.367 70.4735 235.301C70.6569 235.228 70.8072 235.143 70.9245 235.048C71.0419 234.953 71.1299 234.861 71.1885 234.773C71.2545 234.685 71.2912 234.626 71.2985 234.597H72.2115C72.0722 234.883 71.8925 235.136 71.6725 235.356C71.4819 235.547 71.2325 235.723 70.9245 235.884C70.6239 236.038 70.2499 236.115 69.8025 236.115C69.4432 236.115 69.1022 236.045 68.7795 235.906C68.4642 235.759 68.1855 235.565 67.9435 235.323C67.7015 235.074 67.5109 234.78 67.3715 234.443C67.2322 234.106 67.1625 233.746 67.1625 233.365ZM67.9325 232.98H71.4745C71.4452 232.745 71.3829 232.529 71.2875 232.331C71.1922 232.126 71.0712 231.95 70.9245 231.803C70.7779 231.656 70.6019 231.543 70.3965 231.462C70.1985 231.374 69.9822 231.33 69.7475 231.33C69.5129 231.33 69.2892 231.374 69.0765 231.462C68.8712 231.55 68.6879 231.671 68.5265 231.825C68.3652 231.979 68.2332 232.155 68.1305 232.353C68.0279 232.551 67.9619 232.76 67.9325 232.98ZM72.9019 230.725H73.7269L75.1019 234.795L76.4219 230.725H77.0819L78.4019 234.795L79.7769 230.725H80.6019L78.7869 236.005H78.0719L76.7519 231.99L75.4319 236.005H74.7169L72.9019 230.725ZM83.1418 228.305H84.0768L86.3868 232.43H86.4418L88.7518 228.305H89.6868L86.8268 233.31V236.005H86.0018V233.31L83.1418 228.305ZM89.4633 233.365C89.4633 232.976 89.533 232.617 89.6723 232.287C89.8116 231.95 89.9986 231.66 90.2333 231.418C90.4753 231.169 90.7576 230.974 91.0803 230.835C91.403 230.688 91.7513 230.615 92.1253 230.615C92.4993 230.615 92.8476 230.688 93.1703 230.835C93.493 230.974 93.7716 231.169 94.0063 231.418C94.2483 231.66 94.439 231.95 94.5783 232.287C94.7176 232.617 94.7873 232.976 94.7873 233.365C94.7873 233.746 94.7176 234.106 94.5783 234.443C94.439 234.78 94.2483 235.074 94.0063 235.323C93.7716 235.565 93.493 235.759 93.1703 235.906C92.8476 236.045 92.4993 236.115 92.1253 236.115C91.7513 236.115 91.403 236.045 91.0803 235.906C90.7576 235.759 90.4753 235.565 90.2333 235.323C89.9986 235.074 89.8116 234.78 89.6723 234.443C89.533 234.106 89.4633 233.746 89.4633 233.365ZM90.2333 233.365C90.2333 233.651 90.281 233.919 90.3763 234.168C90.479 234.417 90.6146 234.634 90.7833 234.817C90.9593 234.993 91.161 235.136 91.3883 235.246C91.6156 235.349 91.8613 235.4 92.1253 235.4C92.3893 235.4 92.635 235.349 92.8623 235.246C93.0896 235.143 93.2876 235 93.4563 234.817C93.6323 234.634 93.768 234.417 93.8633 234.168C93.966 233.919 94.0173 233.651 94.0173 233.365C94.0173 233.079 93.966 232.811 93.8633 232.562C93.768 232.313 93.6323 232.096 93.4563 231.913C93.2876 231.73 93.0896 231.587 92.8623 231.484C92.635 231.381 92.3893 231.33 92.1253 231.33C91.8613 231.33 91.6156 231.381 91.3883 231.484C91.161 231.587 90.9593 231.73 90.7833 231.913C90.6146 232.096 90.479 232.313 90.3763 232.562C90.281 232.811 90.2333 233.079 90.2333 233.365ZM96.9347 230.725V231.517C97.0521 231.348 97.1951 231.198 97.3637 231.066C97.5104 230.949 97.6901 230.846 97.9027 230.758C98.1227 230.663 98.3867 230.615 98.6947 230.615H98.9147V231.385H98.5847C98.3647 231.385 98.1557 231.425 97.9577 231.506C97.7597 231.587 97.5837 231.7 97.4297 231.847C97.2757 231.994 97.1547 232.173 97.0667 232.386C96.9787 232.591 96.9347 232.826 96.9347 233.09V236.005H96.1647V230.725H96.9347ZM100.012 236.005V228.305H100.782V233.53L103.422 230.725H104.357L102.322 232.87L104.577 236.005H103.697L101.827 233.42L100.782 234.52V236.005H100.012Z" fill="#F2F2F2" fill-opacity="0.7"/>
<path d="M167.336 233.794H168.227C168.263 234.08 168.351 234.337 168.491 234.564C168.615 234.762 168.802 234.942 169.052 235.103C169.301 235.264 169.649 235.345 170.097 235.345C170.405 235.345 170.683 235.308 170.933 235.235C171.182 235.154 171.391 235.048 171.56 234.916C171.736 234.784 171.868 234.63 171.956 234.454C172.051 234.271 172.099 234.076 172.099 233.871C172.099 233.636 172.033 233.442 171.901 233.288C171.776 233.134 171.611 233.006 171.406 232.903C171.2 232.793 170.966 232.701 170.702 232.628C170.438 232.555 170.166 232.478 169.888 232.397C169.609 232.316 169.338 232.228 169.074 232.133C168.81 232.03 168.575 231.902 168.37 231.748C168.164 231.587 167.996 231.389 167.864 231.154C167.739 230.919 167.677 230.63 167.677 230.285C167.677 230.006 167.732 229.742 167.842 229.493C167.959 229.236 168.124 229.013 168.337 228.822C168.557 228.631 168.817 228.481 169.118 228.371C169.426 228.254 169.77 228.195 170.152 228.195C170.57 228.195 170.925 228.25 171.219 228.36C171.519 228.463 171.765 228.595 171.956 228.756C172.154 228.917 172.308 229.093 172.418 229.284C172.535 229.467 172.623 229.643 172.682 229.812C172.74 229.973 172.777 230.109 172.792 230.219C172.806 230.322 172.814 230.377 172.814 230.384H171.923C171.923 230.377 171.919 230.34 171.912 230.274C171.904 230.201 171.882 230.113 171.846 230.01C171.809 229.9 171.754 229.786 171.681 229.669C171.607 229.544 171.505 229.431 171.373 229.328C171.241 229.225 171.076 229.141 170.878 229.075C170.68 229.002 170.438 228.965 170.152 228.965C169.888 228.965 169.653 229.002 169.448 229.075C169.242 229.148 169.07 229.247 168.931 229.372C168.791 229.489 168.685 229.629 168.612 229.79C168.538 229.944 168.502 230.109 168.502 230.285C168.502 230.534 168.564 230.74 168.689 230.901C168.821 231.055 168.989 231.187 169.195 231.297C169.4 231.407 169.635 231.502 169.899 231.583C170.163 231.656 170.434 231.733 170.713 231.814C170.991 231.887 171.263 231.975 171.527 232.078C171.791 232.173 172.025 232.298 172.231 232.452C172.436 232.606 172.601 232.797 172.726 233.024C172.858 233.251 172.924 233.534 172.924 233.871C172.924 234.186 172.861 234.483 172.737 234.762C172.612 235.033 172.429 235.272 172.187 235.477C171.952 235.675 171.659 235.833 171.307 235.95C170.955 236.06 170.551 236.115 170.097 236.115C169.767 236.115 169.473 236.082 169.217 236.016C168.96 235.95 168.733 235.862 168.535 235.752C168.344 235.642 168.183 235.517 168.051 235.378C167.919 235.239 167.809 235.096 167.721 234.949C167.508 234.612 167.38 234.227 167.336 233.794ZM173.855 234.575C173.855 234.135 173.987 233.779 174.251 233.508C174.515 233.237 174.896 233.061 175.395 232.98L176.693 232.716C176.869 232.665 177.001 232.606 177.089 232.54C177.184 232.467 177.232 232.349 177.232 232.188C177.232 232.056 177.199 231.939 177.133 231.836C177.074 231.726 176.994 231.634 176.891 231.561C176.788 231.488 176.667 231.433 176.528 231.396C176.396 231.352 176.257 231.33 176.11 231.33C175.839 231.33 175.622 231.374 175.461 231.462C175.3 231.55 175.179 231.645 175.098 231.748C175.003 231.873 174.937 232.012 174.9 232.166H174.075C174.134 231.88 174.244 231.62 174.405 231.385C174.544 231.194 174.746 231.018 175.01 230.857C175.281 230.696 175.648 230.615 176.11 230.615C176.462 230.615 176.766 230.666 177.023 230.769C177.287 230.872 177.507 231.015 177.683 231.198C177.859 231.381 177.987 231.598 178.068 231.847C178.156 232.096 178.2 232.364 178.2 232.65V236.005H177.43V235.213C177.313 235.382 177.173 235.532 177.012 235.664C176.865 235.774 176.686 235.877 176.473 235.972C176.268 236.067 176.018 236.115 175.725 236.115C175.454 236.115 175.201 236.071 174.966 235.983C174.739 235.895 174.541 235.781 174.372 235.642C174.211 235.495 174.082 235.33 173.987 235.147C173.899 234.956 173.855 234.766 173.855 234.575ZM174.625 234.52C174.625 234.718 174.717 234.905 174.9 235.081C175.091 235.257 175.366 235.345 175.725 235.345C176.246 235.345 176.656 235.206 176.957 234.927C177.265 234.641 177.419 234.161 177.419 233.486V233.178C177.419 233.163 177.412 233.152 177.397 233.145C177.382 233.13 177.368 233.13 177.353 233.145C177.265 233.233 177.14 233.306 176.979 233.365C176.818 233.416 176.642 233.46 176.451 233.497C176.268 233.526 176.084 233.556 175.901 233.585C175.718 233.607 175.553 233.636 175.406 233.673C175.157 233.739 174.962 233.842 174.823 233.981C174.691 234.113 174.625 234.293 174.625 234.52ZM179.955 230.725H180.725V231.572C180.842 231.396 180.982 231.235 181.143 231.088C181.29 230.971 181.469 230.864 181.682 230.769C181.895 230.666 182.144 230.615 182.43 230.615C182.745 230.615 183.031 230.67 183.288 230.78C183.545 230.883 183.765 231.033 183.948 231.231C184.131 231.422 184.274 231.656 184.377 231.935C184.48 232.214 184.531 232.525 184.531 232.87V236.005H183.761V232.87C183.761 232.401 183.633 232.027 183.376 231.748C183.127 231.469 182.793 231.33 182.375 231.33C182.14 231.33 181.92 231.374 181.715 231.462C181.517 231.543 181.345 231.66 181.198 231.814C181.051 231.968 180.934 232.155 180.846 232.375C180.765 232.588 180.725 232.826 180.725 233.09V236.005H179.955V230.725ZM188.717 228.305H191.137C191.702 228.305 192.223 228.408 192.699 228.613C193.183 228.818 193.601 229.097 193.953 229.449C194.305 229.801 194.58 230.212 194.778 230.681C194.976 231.143 195.075 231.634 195.075 232.155C195.075 232.676 194.976 233.171 194.778 233.64C194.58 234.102 194.305 234.509 193.953 234.861C193.601 235.213 193.183 235.492 192.699 235.697C192.223 235.902 191.702 236.005 191.137 236.005H188.717V228.305ZM191.137 235.235C191.592 235.235 192.01 235.154 192.391 234.993C192.773 234.832 193.099 234.612 193.37 234.333C193.649 234.054 193.865 233.728 194.019 233.354C194.173 232.98 194.25 232.58 194.25 232.155C194.25 231.73 194.173 231.33 194.019 230.956C193.865 230.582 193.649 230.256 193.37 229.977C193.099 229.698 192.773 229.478 192.391 229.317C192.01 229.156 191.592 229.075 191.137 229.075H189.542V235.235H191.137ZM197.332 230.725V236.005H196.562V230.725H197.332ZM196.562 228.58H197.332V229.35H196.562V228.58ZM198.712 233.365C198.712 232.976 198.782 232.617 198.921 232.287C199.061 231.95 199.248 231.66 199.482 231.418C199.724 231.169 199.999 230.974 200.307 230.835C200.623 230.688 200.953 230.615 201.297 230.615C201.657 230.615 201.987 230.681 202.287 230.813C202.595 230.945 202.859 231.128 203.079 231.363C203.307 231.59 203.483 231.865 203.607 232.188C203.732 232.511 203.794 232.866 203.794 233.255C203.794 233.314 203.791 233.365 203.783 233.409C203.783 233.453 203.78 233.493 203.772 233.53C203.758 233.574 203.747 233.614 203.739 233.651L199.482 233.64C199.497 233.875 199.556 234.098 199.658 234.311C199.761 234.524 199.897 234.711 200.065 234.872C200.234 235.033 200.428 235.162 200.648 235.257C200.868 235.352 201.103 235.4 201.352 235.4C201.616 235.4 201.84 235.367 202.023 235.301C202.207 235.228 202.357 235.143 202.474 235.048C202.592 234.953 202.68 234.861 202.738 234.773C202.804 234.685 202.841 234.626 202.848 234.597H203.761C203.622 234.883 203.442 235.136 203.222 235.356C203.032 235.547 202.782 235.723 202.474 235.884C202.174 236.038 201.8 236.115 201.352 236.115C200.993 236.115 200.652 236.045 200.329 235.906C200.014 235.759 199.735 235.565 199.493 235.323C199.251 235.074 199.061 234.78 198.921 234.443C198.782 234.106 198.712 233.746 198.712 233.365ZM199.482 232.98H203.024C202.995 232.745 202.933 232.529 202.837 232.331C202.742 232.126 202.621 231.95 202.474 231.803C202.328 231.656 202.152 231.543 201.946 231.462C201.748 231.374 201.532 231.33 201.297 231.33C201.063 231.33 200.839 231.374 200.626 231.462C200.421 231.55 200.238 231.671 200.076 231.825C199.915 231.979 199.783 232.155 199.68 232.353C199.578 232.551 199.512 232.76 199.482 232.98ZM207.213 230.615C207.521 230.615 207.781 230.666 207.994 230.769C208.214 230.864 208.397 230.971 208.544 231.088C208.712 231.235 208.855 231.396 208.973 231.572V230.725H209.743V235.675C209.743 236.056 209.673 236.401 209.534 236.709C209.402 237.017 209.218 237.277 208.984 237.49C208.749 237.703 208.474 237.868 208.159 237.985C207.851 238.102 207.517 238.161 207.158 238.161C206.644 238.161 206.234 238.077 205.926 237.908C205.625 237.739 205.394 237.556 205.233 237.358C205.042 237.116 204.914 236.845 204.848 236.544H205.684C205.742 236.713 205.834 236.863 205.959 236.995C206.061 237.112 206.208 237.215 206.399 237.303C206.597 237.398 206.85 237.446 207.158 237.446C207.407 237.446 207.642 237.406 207.862 237.325C208.082 237.244 208.272 237.127 208.434 236.973C208.602 236.819 208.734 236.632 208.83 236.412C208.925 236.199 208.973 235.954 208.973 235.675V234.938C208.855 235.114 208.712 235.272 208.544 235.411C208.397 235.536 208.214 235.649 207.994 235.752C207.781 235.847 207.521 235.895 207.213 235.895C206.883 235.895 206.571 235.829 206.278 235.697C205.984 235.558 205.728 235.371 205.508 235.136C205.288 234.894 205.112 234.615 204.98 234.3C204.848 233.977 204.782 233.629 204.782 233.255C204.782 232.881 204.848 232.536 204.98 232.221C205.112 231.898 205.288 231.62 205.508 231.385C205.728 231.143 205.984 230.956 206.278 230.824C206.571 230.685 206.883 230.615 207.213 230.615ZM205.552 233.255C205.552 233.526 205.596 233.783 205.684 234.025C205.779 234.26 205.904 234.461 206.058 234.63C206.212 234.799 206.388 234.934 206.586 235.037C206.784 235.132 206.993 235.18 207.213 235.18C207.447 235.18 207.671 235.132 207.884 235.037C208.096 234.934 208.283 234.799 208.445 234.63C208.606 234.461 208.734 234.26 208.83 234.025C208.925 233.783 208.973 233.526 208.973 233.255C208.973 232.976 208.925 232.72 208.83 232.485C208.734 232.25 208.606 232.049 208.445 231.88C208.283 231.711 208.096 231.579 207.884 231.484C207.671 231.381 207.447 231.33 207.213 231.33C206.993 231.33 206.784 231.381 206.586 231.484C206.388 231.579 206.212 231.711 206.058 231.88C205.904 232.049 205.779 232.25 205.684 232.485C205.596 232.72 205.552 232.976 205.552 233.255ZM211.12 233.365C211.12 232.976 211.189 232.617 211.329 232.287C211.468 231.95 211.655 231.66 211.89 231.418C212.132 231.169 212.414 230.974 212.737 230.835C213.059 230.688 213.408 230.615 213.782 230.615C214.156 230.615 214.504 230.688 214.827 230.835C215.149 230.974 215.428 231.169 215.663 231.418C215.905 231.66 216.095 231.95 216.235 232.287C216.374 232.617 216.444 232.976 216.444 233.365C216.444 233.746 216.374 234.106 216.235 234.443C216.095 234.78 215.905 235.074 215.663 235.323C215.428 235.565 215.149 235.759 214.827 235.906C214.504 236.045 214.156 236.115 213.782 236.115C213.408 236.115 213.059 236.045 212.737 235.906C212.414 235.759 212.132 235.565 211.89 235.323C211.655 235.074 211.468 234.78 211.329 234.443C211.189 234.106 211.12 233.746 211.12 233.365ZM211.89 233.365C211.89 233.651 211.937 233.919 212.033 234.168C212.135 234.417 212.271 234.634 212.44 234.817C212.616 234.993 212.817 235.136 213.045 235.246C213.272 235.349 213.518 235.4 213.782 235.4C214.046 235.4 214.291 235.349 214.519 235.246C214.746 235.143 214.944 235 215.113 234.817C215.289 234.634 215.424 234.417 215.52 234.168C215.622 233.919 215.674 233.651 215.674 233.365C215.674 233.079 215.622 232.811 215.52 232.562C215.424 232.313 215.289 232.096 215.113 231.913C214.944 231.73 214.746 231.587 214.519 231.484C214.291 231.381 214.046 231.33 213.782 231.33C213.518 231.33 213.272 231.381 213.045 231.484C212.817 231.587 212.616 231.73 212.44 231.913C212.271 232.096 212.135 232.313 212.033 232.562C211.937 232.811 211.89 233.079 211.89 233.365Z" fill="#F2F2F2" fill-opacity="0.7"/>
<path d="M294.915 228.305C295.23 228.305 295.52 228.356 295.784 228.459C296.048 228.562 296.272 228.705 296.455 228.888C296.646 229.064 296.792 229.273 296.895 229.515C297.005 229.75 297.06 230.006 297.06 230.285C297.06 230.593 297.012 230.85 296.917 231.055C296.829 231.253 296.73 231.414 296.62 231.539C296.488 231.686 296.341 231.799 296.18 231.88C296.415 231.99 296.627 232.133 296.818 232.309C296.972 232.456 297.115 232.654 297.247 232.903C297.379 233.145 297.445 233.446 297.445 233.805C297.445 234.12 297.386 234.414 297.269 234.685C297.159 234.949 297.001 235.18 296.796 235.378C296.591 235.576 296.341 235.73 296.048 235.84C295.762 235.95 295.439 236.005 295.08 236.005H291.945V228.305H294.915ZM292.77 232.265V235.235H295.08C295.549 235.235 295.923 235.103 296.202 234.839C296.481 234.568 296.62 234.223 296.62 233.805C296.62 233.6 296.583 233.405 296.51 233.222C296.437 233.031 296.334 232.866 296.202 232.727C296.07 232.588 295.909 232.478 295.718 232.397C295.527 232.309 295.315 232.265 295.08 232.265H292.77ZM294.915 231.539C295.333 231.539 295.656 231.429 295.883 231.209C296.118 230.982 296.235 230.674 296.235 230.285C296.235 229.926 296.118 229.636 295.883 229.416C295.656 229.189 295.333 229.075 294.915 229.075H292.77V231.539H294.915ZM298.599 233.365C298.599 232.976 298.669 232.617 298.808 232.287C298.947 231.95 299.134 231.66 299.369 231.418C299.611 231.169 299.893 230.974 300.216 230.835C300.539 230.688 300.887 230.615 301.261 230.615C301.635 230.615 301.983 230.688 302.306 230.835C302.629 230.974 302.907 231.169 303.142 231.418C303.384 231.66 303.575 231.95 303.714 232.287C303.853 232.617 303.923 232.976 303.923 233.365C303.923 233.746 303.853 234.106 303.714 234.443C303.575 234.78 303.384 235.074 303.142 235.323C302.907 235.565 302.629 235.759 302.306 235.906C301.983 236.045 301.635 236.115 301.261 236.115C300.887 236.115 300.539 236.045 300.216 235.906C299.893 235.759 299.611 235.565 299.369 235.323C299.134 235.074 298.947 234.78 298.808 234.443C298.669 234.106 298.599 233.746 298.599 233.365ZM299.369 233.365C299.369 233.651 299.417 233.919 299.512 234.168C299.615 234.417 299.75 234.634 299.919 234.817C300.095 234.993 300.297 235.136 300.524 235.246C300.751 235.349 300.997 235.4 301.261 235.4C301.525 235.4 301.771 235.349 301.998 235.246C302.225 235.143 302.423 235 302.592 234.817C302.768 234.634 302.904 234.417 302.999 234.168C303.102 233.919 303.153 233.651 303.153 233.365C303.153 233.079 303.102 232.811 302.999 232.562C302.904 232.313 302.768 232.096 302.592 231.913C302.423 231.73 302.225 231.587 301.998 231.484C301.771 231.381 301.525 231.33 301.261 231.33C300.997 231.33 300.751 231.381 300.524 231.484C300.297 231.587 300.095 231.73 299.919 231.913C299.75 232.096 299.615 232.313 299.512 232.562C299.417 232.811 299.369 233.079 299.369 233.365ZM304.772 234.465H305.509C305.524 234.648 305.579 234.81 305.674 234.949C305.755 235.074 305.876 235.187 306.037 235.29C306.199 235.393 306.43 235.444 306.73 235.444C307.119 235.444 307.409 235.352 307.599 235.169C307.79 234.986 307.885 234.769 307.885 234.52C307.885 234.315 307.812 234.157 307.665 234.047C307.526 233.93 307.35 233.834 307.137 233.761C306.932 233.68 306.705 233.607 306.455 233.541C306.206 233.468 305.975 233.376 305.762 233.266C305.557 233.156 305.381 233.009 305.234 232.826C305.095 232.643 305.025 232.401 305.025 232.1C305.025 231.909 305.066 231.726 305.146 231.55C305.234 231.367 305.355 231.205 305.509 231.066C305.663 230.927 305.847 230.817 306.059 230.736C306.279 230.655 306.521 230.615 306.785 230.615C307.196 230.615 307.522 230.696 307.764 230.857C308.006 231.018 308.186 231.194 308.303 231.385C308.45 231.62 308.545 231.88 308.589 232.166L307.852 232.155C307.823 231.994 307.764 231.851 307.676 231.726C307.603 231.616 307.497 231.517 307.357 231.429C307.218 231.341 307.027 231.297 306.785 231.297C306.631 231.297 306.492 231.323 306.367 231.374C306.25 231.418 306.147 231.48 306.059 231.561C305.979 231.634 305.913 231.719 305.861 231.814C305.817 231.909 305.795 232.005 305.795 232.1C305.795 232.291 305.865 232.441 306.004 232.551C306.151 232.661 306.327 232.753 306.532 232.826C306.745 232.899 306.976 232.973 307.225 233.046C307.475 233.112 307.702 233.204 307.907 233.321C308.12 233.431 308.296 233.581 308.435 233.772C308.582 233.963 308.655 234.212 308.655 234.52C308.655 234.74 308.611 234.949 308.523 235.147C308.435 235.338 308.307 235.506 308.138 235.653C307.977 235.8 307.775 235.917 307.533 236.005C307.299 236.086 307.031 236.126 306.73 236.126C306.488 236.126 306.272 236.1 306.081 236.049C305.898 236.005 305.737 235.946 305.597 235.873C305.465 235.792 305.352 235.701 305.256 235.598C305.161 235.495 305.08 235.393 305.014 235.29C304.875 235.048 304.794 234.773 304.772 234.465ZM309.477 230.725H310.522V228.965H311.237V230.725H312.392V231.44H311.237V234.575C311.237 234.854 311.299 235.063 311.424 235.202C311.556 235.334 311.732 235.4 311.952 235.4C312.055 235.4 312.146 235.393 312.227 235.378C312.315 235.363 312.392 235.349 312.458 235.334C312.531 235.319 312.601 235.301 312.667 235.279V235.994C312.601 236.016 312.528 236.038 312.447 236.06C312.381 236.075 312.3 236.089 312.205 236.104C312.117 236.119 312.022 236.126 311.919 236.126C311.464 236.126 311.109 235.994 310.852 235.73C310.595 235.459 310.467 235.074 310.467 234.575V231.44H309.477V230.725ZM313.391 233.365C313.391 232.976 313.461 232.617 313.6 232.287C313.739 231.95 313.926 231.66 314.161 231.418C314.403 231.169 314.685 230.974 315.008 230.835C315.331 230.688 315.679 230.615 316.053 230.615C316.427 230.615 316.775 230.688 317.098 230.835C317.421 230.974 317.699 231.169 317.934 231.418C318.176 231.66 318.367 231.95 318.506 232.287C318.645 232.617 318.715 232.976 318.715 233.365C318.715 233.746 318.645 234.106 318.506 234.443C318.367 234.78 318.176 235.074 317.934 235.323C317.699 235.565 317.421 235.759 317.098 235.906C316.775 236.045 316.427 236.115 316.053 236.115C315.679 236.115 315.331 236.045 315.008 235.906C314.685 235.759 314.403 235.565 314.161 235.323C313.926 235.074 313.739 234.78 313.6 234.443C313.461 234.106 313.391 233.746 313.391 233.365ZM314.161 233.365C314.161 233.651 314.209 233.919 314.304 234.168C314.407 234.417 314.542 234.634 314.711 234.817C314.887 234.993 315.089 235.136 315.316 235.246C315.543 235.349 315.789 235.4 316.053 235.4C316.317 235.4 316.563 235.349 316.79 235.246C317.017 235.143 317.215 235 317.384 234.817C317.56 234.634 317.696 234.417 317.791 234.168C317.894 233.919 317.945 233.651 317.945 233.365C317.945 233.079 317.894 232.811 317.791 232.562C317.696 232.313 317.56 232.096 317.384 231.913C317.215 231.73 317.017 231.587 316.79 231.484C316.563 231.381 316.317 231.33 316.053 231.33C315.789 231.33 315.543 231.381 315.316 231.484C315.089 231.587 314.887 231.73 314.711 231.913C314.542 232.096 314.407 232.313 314.304 232.562C314.209 232.811 314.161 233.079 314.161 233.365ZM320.092 230.725H320.862V231.572C320.98 231.396 321.119 231.235 321.28 231.088C321.427 230.971 321.607 230.864 321.819 230.769C322.032 230.666 322.281 230.615 322.567 230.615C322.883 230.615 323.169 230.67 323.425 230.78C323.682 230.883 323.902 231.033 324.085 231.231C324.269 231.422 324.412 231.656 324.514 231.935C324.617 232.214 324.668 232.525 324.668 232.87V236.005H323.898V232.87C323.898 232.401 323.77 232.027 323.513 231.748C323.264 231.469 322.93 231.33 322.512 231.33C322.278 231.33 322.058 231.374 321.852 231.462C321.654 231.543 321.482 231.66 321.335 231.814C321.189 231.968 321.071 232.155 320.983 232.375C320.903 232.588 320.862 232.826 320.862 233.09V236.005H320.092V230.725Z" fill="#F2F2F2" fill-opacity="0.7"/>
<path d="M413.242 228.305H415.662C416.227 228.305 416.748 228.408 417.224 228.613C417.708 228.818 418.126 229.097 418.478 229.449C418.83 229.801 419.105 230.212 419.303 230.681C419.501 231.143 419.6 231.634 419.6 232.155C419.6 232.676 419.501 233.171 419.303 233.64C419.105 234.102 418.83 234.509 418.478 234.861C418.126 235.213 417.708 235.492 417.224 235.697C416.748 235.902 416.227 236.005 415.662 236.005H413.242V228.305ZM415.662 235.235C416.117 235.235 416.535 235.154 416.916 234.993C417.298 234.832 417.624 234.612 417.895 234.333C418.174 234.054 418.39 233.728 418.544 233.354C418.698 232.98 418.775 232.58 418.775 232.155C418.775 231.73 418.698 231.33 418.544 230.956C418.39 230.582 418.174 230.256 417.895 229.977C417.624 229.698 417.298 229.478 416.916 229.317C416.535 229.156 416.117 229.075 415.662 229.075H414.067V235.235H415.662ZM420.702 234.575C420.702 234.135 420.834 233.779 421.098 233.508C421.362 233.237 421.743 233.061 422.242 232.98L423.54 232.716C423.716 232.665 423.848 232.606 423.936 232.54C424.031 232.467 424.079 232.349 424.079 232.188C424.079 232.056 424.046 231.939 423.98 231.836C423.921 231.726 423.841 231.634 423.738 231.561C423.635 231.488 423.514 231.433 423.375 231.396C423.243 231.352 423.104 231.33 422.957 231.33C422.686 231.33 422.469 231.374 422.308 231.462C422.147 231.55 422.026 231.645 421.945 231.748C421.85 231.873 421.784 232.012 421.747 232.166H420.922C420.981 231.88 421.091 231.62 421.252 231.385C421.391 231.194 421.593 231.018 421.857 230.857C422.128 230.696 422.495 230.615 422.957 230.615C423.309 230.615 423.613 230.666 423.87 230.769C424.134 230.872 424.354 231.015 424.53 231.198C424.706 231.381 424.834 231.598 424.915 231.847C425.003 232.096 425.047 232.364 425.047 232.65V236.005H424.277V235.213C424.16 235.382 424.02 235.532 423.859 235.664C423.712 235.774 423.533 235.877 423.32 235.972C423.115 236.067 422.865 236.115 422.572 236.115C422.301 236.115 422.048 236.071 421.813 235.983C421.586 235.895 421.388 235.781 421.219 235.642C421.058 235.495 420.929 235.33 420.834 235.147C420.746 234.956 420.702 234.766 420.702 234.575ZM421.472 234.52C421.472 234.718 421.564 234.905 421.747 235.081C421.938 235.257 422.213 235.345 422.572 235.345C423.093 235.345 423.503 235.206 423.804 234.927C424.112 234.641 424.266 234.161 424.266 233.486V233.178C424.266 233.163 424.259 233.152 424.244 233.145C424.229 233.13 424.215 233.13 424.2 233.145C424.112 233.233 423.987 233.306 423.826 233.365C423.665 233.416 423.489 233.46 423.298 233.497C423.115 233.526 422.931 233.556 422.748 233.585C422.565 233.607 422.4 233.636 422.253 233.673C422.004 233.739 421.809 233.842 421.67 233.981C421.538 234.113 421.472 234.293 421.472 234.52ZM427.627 236.005H426.857V228.305H427.627V236.005ZM430.27 236.005H429.5V228.305H430.27V236.005ZM431.702 234.575C431.702 234.135 431.834 233.779 432.098 233.508C432.362 233.237 432.743 233.061 433.242 232.98L434.54 232.716C434.716 232.665 434.848 232.606 434.936 232.54C435.031 232.467 435.079 232.349 435.079 232.188C435.079 232.056 435.046 231.939 434.98 231.836C434.921 231.726 434.841 231.634 434.738 231.561C434.635 231.488 434.514 231.433 434.375 231.396C434.243 231.352 434.104 231.33 433.957 231.33C433.686 231.33 433.469 231.374 433.308 231.462C433.147 231.55 433.026 231.645 432.945 231.748C432.85 231.873 432.784 232.012 432.747 232.166H431.922C431.981 231.88 432.091 231.62 432.252 231.385C432.391 231.194 432.593 231.018 432.857 230.857C433.128 230.696 433.495 230.615 433.957 230.615C434.309 230.615 434.613 230.666 434.87 230.769C435.134 230.872 435.354 231.015 435.53 231.198C435.706 231.381 435.834 231.598 435.915 231.847C436.003 232.096 436.047 232.364 436.047 232.65V236.005H435.277V235.213C435.16 235.382 435.02 235.532 434.859 235.664C434.712 235.774 434.533 235.877 434.32 235.972C434.115 236.067 433.865 236.115 433.572 236.115C433.301 236.115 433.048 236.071 432.813 235.983C432.586 235.895 432.388 235.781 432.219 235.642C432.058 235.495 431.929 235.33 431.834 235.147C431.746 234.956 431.702 234.766 431.702 234.575ZM432.472 234.52C432.472 234.718 432.564 234.905 432.747 235.081C432.938 235.257 433.213 235.345 433.572 235.345C434.093 235.345 434.503 235.206 434.804 234.927C435.112 234.641 435.266 234.161 435.266 233.486V233.178C435.266 233.163 435.259 233.152 435.244 233.145C435.229 233.13 435.215 233.13 435.2 233.145C435.112 233.233 434.987 233.306 434.826 233.365C434.665 233.416 434.489 233.46 434.298 233.497C434.115 233.526 433.931 233.556 433.748 233.585C433.565 233.607 433.4 233.636 433.253 233.673C433.004 233.739 432.809 233.842 432.67 233.981C432.538 234.113 432.472 234.293 432.472 234.52ZM437.274 234.465H438.011C438.026 234.648 438.081 234.81 438.176 234.949C438.257 235.074 438.378 235.187 438.539 235.29C438.7 235.393 438.931 235.444 439.232 235.444C439.621 235.444 439.91 235.352 440.101 235.169C440.292 234.986 440.387 234.769 440.387 234.52C440.387 234.315 440.314 234.157 440.167 234.047C440.028 233.93 439.852 233.834 439.639 233.761C439.434 233.68 439.206 233.607 438.957 233.541C438.708 233.468 438.477 233.376 438.264 233.266C438.059 233.156 437.883 233.009 437.736 232.826C437.597 232.643 437.527 232.401 437.527 232.1C437.527 231.909 437.567 231.726 437.648 231.55C437.736 231.367 437.857 231.205 438.011 231.066C438.165 230.927 438.348 230.817 438.561 230.736C438.781 230.655 439.023 230.615 439.287 230.615C439.698 230.615 440.024 230.696 440.266 230.857C440.508 231.018 440.688 231.194 440.805 231.385C440.952 231.62 441.047 231.88 441.091 232.166L440.354 232.155C440.325 231.994 440.266 231.851 440.178 231.726C440.105 231.616 439.998 231.517 439.859 231.429C439.72 231.341 439.529 231.297 439.287 231.297C439.133 231.297 438.994 231.323 438.869 231.374C438.752 231.418 438.649 231.48 438.561 231.561C438.48 231.634 438.414 231.719 438.363 231.814C438.319 231.909 438.297 232.005 438.297 232.1C438.297 232.291 438.367 232.441 438.506 232.551C438.653 232.661 438.829 232.753 439.034 232.826C439.247 232.899 439.478 232.973 439.727 233.046C439.976 233.112 440.204 233.204 440.409 233.321C440.622 233.431 440.798 233.581 440.937 233.772C441.084 233.963 441.157 234.212 441.157 234.52C441.157 234.74 441.113 234.949 441.025 235.147C440.937 235.338 440.809 235.506 440.64 235.653C440.479 235.8 440.277 235.917 440.035 236.005C439.8 236.086 439.533 236.126 439.232 236.126C438.99 236.126 438.774 236.1 438.583 236.049C438.4 236.005 438.238 235.946 438.099 235.873C437.967 235.792 437.853 235.701 437.758 235.598C437.663 235.495 437.582 235.393 437.516 235.29C437.377 235.048 437.296 234.773 437.274 234.465Z" fill="#F2F2F2" fill-opacity="0.7"/>
<line x1="16" y1="216.505" x2="484" y2="216.505" stroke="#3A3A3D"/>
</g>
<defs>
<clipPath id="clip0">
<rect width="500" height="26" fill="white" transform="translate(0 213.005)"/>
</clipPath>
</defs>
</svg>
