<svg width="335" height="306" viewBox="0 0 335 306" fill="none" xmlns="http://www.w3.org/2000/svg">
<path d="M0 7.99999C0 3.58172 3.58172 0 8 0H327C331.418 0 335 3.58172 335 8V283C335 287.418 331.418 291 327 291H8C3.58172 291 0 287.418 0 283V7.99999Z" fill="#262629"/>
<path d="M0 173H335V298C335 302.418 331.418 306 327 306H8C3.58172 306 0 302.418 0 298V173Z" fill="#1F1F21"/>
<path d="M23.56 19.22C24.244 19.22 24.886 19.31 25.486 19.49C26.098 19.658 26.65 19.916 27.142 20.264C27.634 20.6 28.06 21.02 28.42 21.524C28.78 22.028 29.056 22.61 29.248 23.27H27.142C26.818 22.514 26.344 21.95 25.72 21.578C25.096 21.206 24.376 21.02 23.56 21.02C22.9 21.02 22.294 21.146 21.742 21.398C21.19 21.638 20.716 21.974 20.32 22.406C19.924 22.826 19.612 23.324 19.384 23.9C19.168 24.464 19.06 25.064 19.06 25.7C19.084 26.36 19.204 26.978 19.42 27.554C19.648 28.118 19.954 28.61 20.338 29.03C20.734 29.45 21.202 29.78 21.742 30.02C22.294 30.26 22.9 30.38 23.56 30.38C24.388 30.38 25.108 30.194 25.72 29.822C26.332 29.45 26.806 28.886 27.142 28.13H29.248C29.056 28.79 28.774 29.378 28.402 29.894C28.042 30.398 27.61 30.818 27.106 31.154C26.614 31.49 26.068 31.748 25.468 31.928C24.868 32.096 24.232 32.18 23.56 32.18C22.624 32.18 21.76 32.012 20.968 31.676C20.176 31.34 19.492 30.884 18.916 30.308C18.34 29.72 17.89 29.036 17.566 28.256C17.242 27.464 17.08 26.612 17.08 25.7C17.08 24.764 17.242 23.9 17.566 23.108C17.902 22.316 18.358 21.632 18.934 21.056C19.522 20.48 20.212 20.03 21.004 19.706C21.796 19.382 22.648 19.22 23.56 19.22ZM30.3238 27.68C30.3238 27.068 30.4378 26.492 30.6658 25.952C30.8938 25.412 31.2058 24.938 31.6018 24.53C31.9978 24.11 32.4598 23.78 32.9878 23.54C33.5278 23.3 34.1038 23.18 34.7158 23.18C35.3278 23.18 35.8978 23.3 36.4258 23.54C36.9538 23.78 37.4158 24.11 37.8118 24.53C38.2078 24.938 38.5198 25.412 38.7478 25.952C38.9758 26.492 39.0898 27.068 39.0898 27.68C39.0898 28.292 38.9758 28.868 38.7478 29.408C38.5198 29.948 38.2078 30.428 37.8118 30.848C37.4158 31.256 36.9538 31.58 36.4258 31.82C35.8978 32.06 35.3278 32.18 34.7158 32.18C34.1038 32.18 33.5278 32.06 32.9878 31.82C32.4598 31.58 31.9978 31.256 31.6018 30.848C31.2058 30.428 30.8938 29.948 30.6658 29.408C30.4378 28.868 30.3238 28.292 30.3238 27.68ZM34.7158 30.56C35.0758 30.56 35.4118 30.488 35.7238 30.344C36.0358 30.188 36.3058 29.984 36.5338 29.732C36.7738 29.468 36.9598 29.162 37.0918 28.814C37.2238 28.466 37.2898 28.088 37.2898 27.68C37.2898 27.272 37.2238 26.894 37.0918 26.546C36.9598 26.198 36.7738 25.898 36.5338 25.646C36.3058 25.382 36.0358 25.178 35.7238 25.034C35.4118 24.878 35.0758 24.8 34.7158 24.8C34.3558 24.8 34.0198 24.878 33.7078 25.034C33.3958 25.178 33.1198 25.382 32.8798 25.646C32.6518 25.898 32.4658 26.198 32.3218 26.546C32.1898 26.894 32.1238 27.272 32.1238 27.68C32.1238 28.088 32.1898 28.466 32.3218 28.814C32.4658 29.162 32.6518 29.468 32.8798 29.732C33.1198 29.984 33.3958 30.188 33.7078 30.344C34.0198 30.488 34.3558 30.56 34.7158 30.56ZM41.0411 23.378H42.8411V24.332C42.8411 24.356 42.8531 24.374 42.8771 24.386C42.9011 24.398 42.9251 24.392 42.9491 24.368C43.0091 24.284 43.1051 24.176 43.2371 24.044C43.3691 23.912 43.5311 23.786 43.7231 23.666C43.9151 23.534 44.1311 23.426 44.3711 23.342C44.6231 23.246 44.8931 23.198 45.1811 23.198C45.5771 23.198 45.9191 23.258 46.2071 23.378C46.5071 23.486 46.7531 23.618 46.9451 23.774C47.1371 23.918 47.2871 24.068 47.3951 24.224C47.5151 24.368 47.5931 24.476 47.6291 24.548C47.6651 24.608 47.6951 24.608 47.7191 24.548C47.7671 24.464 47.8631 24.35 48.0071 24.206C48.1631 24.05 48.3611 23.9 48.6011 23.756C48.8531 23.6 49.1471 23.468 49.4831 23.36C49.8191 23.252 50.2031 23.198 50.6351 23.198C51.6311 23.198 52.3871 23.51 52.9031 24.134C53.4311 24.758 53.6951 25.706 53.6951 26.978V32H51.8951V26.978C51.8951 25.538 51.3551 24.818 50.2751 24.818C49.7351 24.818 49.2671 25.034 48.8711 25.466C48.4871 25.898 48.2951 26.522 48.2951 27.338V32H46.4951V26.978C46.4951 26.258 46.3511 25.718 46.0631 25.358C45.7751 24.998 45.3611 24.818 44.8211 24.818C44.2811 24.818 43.8131 25.034 43.4171 25.466C43.0331 25.898 42.8411 26.522 42.8411 27.338V32H41.0411V23.378ZM56.211 23.36H58.011V24.422C58.011 24.458 58.023 24.482 58.047 24.494C58.071 24.506 58.095 24.5 58.119 24.476C58.203 24.392 58.323 24.278 58.479 24.134C58.635 23.99 58.827 23.846 59.055 23.702C59.283 23.558 59.541 23.438 59.829 23.342C60.129 23.234 60.453 23.18 60.801 23.18C61.365 23.18 61.893 23.3 62.385 23.54C62.889 23.768 63.327 24.086 63.699 24.494C64.071 24.89 64.365 25.364 64.581 25.916C64.797 26.456 64.905 27.044 64.905 27.68C64.905 28.304 64.797 28.892 64.581 29.444C64.365 29.996 64.071 30.476 63.699 30.884C63.327 31.28 62.889 31.598 62.385 31.838C61.893 32.066 61.365 32.18 60.801 32.18C60.453 32.18 60.129 32.138 59.829 32.054C59.529 31.97 59.259 31.874 59.019 31.766C58.791 31.646 58.599 31.526 58.443 31.406C58.287 31.286 58.173 31.19 58.101 31.118C58.077 31.094 58.053 31.088 58.029 31.1C58.017 31.112 58.011 31.13 58.011 31.154V35.78H56.211V23.36ZM60.621 30.56C60.957 30.56 61.275 30.488 61.575 30.344C61.875 30.188 62.139 29.984 62.367 29.732C62.595 29.468 62.775 29.162 62.907 28.814C63.039 28.466 63.105 28.088 63.105 27.68C63.105 27.272 63.039 26.894 62.907 26.546C62.775 26.198 62.595 25.898 62.367 25.646C62.139 25.382 61.875 25.178 61.575 25.034C61.275 24.878 60.957 24.8 60.621 24.8C60.285 24.8 59.961 24.878 59.649 25.034C59.337 25.178 59.055 25.382 58.803 25.646C58.563 25.898 58.371 26.198 58.227 26.546C58.083 26.894 58.011 27.272 58.011 27.68C58.011 28.088 58.083 28.466 58.227 28.814C58.371 29.162 58.563 29.468 58.803 29.732C59.055 29.984 59.337 30.188 59.649 30.344C59.961 30.488 60.285 30.56 60.621 30.56ZM70.7509 23.18C71.3629 23.18 71.9209 23.288 72.4249 23.504C72.9409 23.708 73.3789 24.002 73.7389 24.386C74.1109 24.758 74.3989 25.202 74.6029 25.718C74.8189 26.234 74.9269 26.798 74.9269 27.41C74.9269 27.542 74.9209 27.662 74.9089 27.77C74.8969 27.878 74.8849 27.974 74.8729 28.058C74.8609 28.154 74.8489 28.238 74.8369 28.31H68.1949C68.2429 28.598 68.3389 28.88 68.4829 29.156C68.6269 29.432 68.8129 29.672 69.0409 29.876C69.2689 30.08 69.5329 30.248 69.8329 30.38C70.1449 30.5 70.4809 30.56 70.8409 30.56C71.2729 30.56 71.6149 30.518 71.8669 30.434C72.1309 30.338 72.3349 30.236 72.4789 30.128C72.6469 30.008 72.7669 29.87 72.8389 29.714H74.8189C74.5909 30.17 74.2909 30.578 73.9189 30.938C73.6069 31.25 73.1989 31.538 72.6949 31.802C72.1909 32.054 71.5729 32.18 70.8409 32.18C70.2289 32.18 69.6529 32.06 69.1129 31.82C68.5849 31.58 68.1169 31.25 67.7089 30.83C67.3009 30.41 66.9769 29.924 66.7369 29.372C66.5089 28.808 66.3949 28.214 66.3949 27.59C66.3949 26.978 66.5089 26.408 66.7369 25.88C66.9649 25.34 67.2709 24.872 67.6549 24.476C68.0509 24.08 68.5129 23.768 69.0409 23.54C69.5689 23.3 70.1389 23.18 70.7509 23.18ZM68.2669 26.78H73.1629C73.0549 26.192 72.7969 25.7 72.3889 25.304C71.9809 24.908 71.4349 24.71 70.7509 24.71C70.0669 24.71 69.5149 24.908 69.0949 25.304C68.6869 25.7 68.4109 26.192 68.2669 26.78ZM76.9532 32V23.36H78.7532V24.332C78.7532 24.356 78.7652 24.38 78.7892 24.404C78.8132 24.416 78.8372 24.41 78.8612 24.386C78.9452 24.302 79.0592 24.194 79.2032 24.062C79.3472 23.93 79.5212 23.798 79.7252 23.666C79.9412 23.534 80.1872 23.42 80.4632 23.324C80.7392 23.228 81.0392 23.18 81.3632 23.18C82.4072 23.18 83.2292 23.516 83.8292 24.188C84.4412 24.86 84.7472 25.784 84.7472 26.96V32H82.9472V26.96C82.9472 26.324 82.7672 25.808 82.4072 25.412C82.0592 25.004 81.5912 24.8 81.0032 24.8C80.3192 24.8 79.7732 25.016 79.3652 25.448C78.9572 25.88 78.7532 26.504 78.7532 27.32V32H76.9532ZM86.5164 29.48H88.2624C88.2984 29.72 88.3764 29.93 88.4964 30.11C88.6044 30.266 88.7604 30.41 88.9644 30.542C89.1804 30.674 89.4744 30.74 89.8464 30.74C90.3504 30.74 90.7224 30.608 90.9624 30.344C91.2144 30.08 91.3404 29.792 91.3404 29.48C91.3404 29.204 91.2264 28.994 90.9984 28.85C90.7824 28.694 90.5064 28.562 90.1704 28.454C89.8464 28.346 89.4924 28.238 89.1084 28.13C88.7244 28.022 88.3644 27.872 88.0284 27.68C87.7044 27.488 87.4284 27.236 87.2004 26.924C86.9844 26.612 86.8764 26.204 86.8764 25.7C86.8764 25.388 86.9424 25.082 87.0744 24.782C87.2184 24.47 87.4164 24.2 87.6684 23.972C87.9204 23.732 88.2264 23.54 88.5864 23.396C88.9584 23.252 89.3664 23.18 89.8104 23.18C90.5664 23.18 91.1604 23.312 91.5924 23.576C92.0244 23.84 92.3484 24.128 92.5644 24.44C92.8044 24.824 92.9604 25.25 93.0324 25.718L91.4304 25.7C91.4184 25.496 91.3524 25.316 91.2324 25.16C91.1364 25.028 90.9744 24.908 90.7464 24.8C90.5304 24.68 90.2184 24.62 89.8104 24.62C89.6064 24.62 89.4264 24.656 89.2704 24.728C89.1264 24.8 89.0004 24.89 88.8924 24.998C88.7964 25.106 88.7244 25.226 88.6764 25.358C88.6284 25.478 88.6044 25.592 88.6044 25.7C88.6044 25.964 88.7184 26.174 88.9464 26.33C89.1744 26.474 89.4564 26.606 89.7924 26.726C90.1284 26.834 90.4884 26.942 90.8724 27.05C91.2684 27.158 91.6344 27.308 91.9704 27.5C92.3064 27.692 92.5824 27.944 92.7984 28.256C93.0264 28.556 93.1404 28.964 93.1404 29.48C93.1404 29.84 93.0684 30.182 92.9244 30.506C92.7804 30.83 92.5704 31.118 92.2944 31.37C92.0184 31.622 91.6704 31.82 91.2504 31.964C90.8424 32.108 90.3744 32.18 89.8464 32.18C89.4384 32.18 89.0724 32.138 88.7484 32.054C88.4364 31.982 88.1604 31.886 87.9204 31.766C87.6924 31.634 87.4944 31.49 87.3264 31.334C87.1704 31.166 87.0384 30.998 86.9304 30.83C86.6904 30.434 86.5524 29.984 86.5164 29.48ZM97.0387 26.96C97.3627 26.912 97.7107 26.864 98.0827 26.816C98.4547 26.768 98.7967 26.708 99.1087 26.636C99.4327 26.552 99.6967 26.45 99.9007 26.33C100.117 26.21 100.225 26.054 100.225 25.862C100.225 25.466 100.081 25.154 99.7927 24.926C99.5047 24.698 99.0727 24.584 98.4967 24.584C98.2087 24.596 97.9447 24.644 97.7047 24.728C97.5007 24.788 97.2967 24.896 97.0927 25.052C96.9007 25.208 96.7567 25.436 96.6607 25.736H95.0407C95.1247 25.28 95.3047 24.872 95.5807 24.512C95.8087 24.2 96.1447 23.906 96.5887 23.63C97.0327 23.354 97.6327 23.204 98.3887 23.18C98.9287 23.156 99.4207 23.216 99.8647 23.36C100.309 23.492 100.687 23.702 100.999 23.99C101.311 24.266 101.551 24.608 101.719 25.016C101.899 25.424 101.989 25.892 101.989 26.42V32H100.189V31.1C99.9847 31.304 99.7507 31.484 99.4867 31.64C99.2587 31.772 98.9827 31.892 98.6587 32C98.3467 32.12 97.9867 32.18 97.5787 32.18C97.1347 32.18 96.7207 32.108 96.3367 31.964C95.9647 31.82 95.6407 31.634 95.3647 31.406C95.1007 31.166 94.8907 30.896 94.7347 30.596C94.5907 30.284 94.5187 29.972 94.5187 29.66C94.5187 28.94 94.7407 28.34 95.1847 27.86C95.6287 27.368 96.2467 27.068 97.0387 26.96ZM97.8487 30.614C98.5687 30.614 99.1387 30.422 99.5587 30.038C99.9787 29.642 100.189 28.976 100.189 28.04V27.626C100.189 27.602 100.177 27.584 100.153 27.572C100.141 27.548 100.123 27.548 100.099 27.572C99.9787 27.692 99.8047 27.794 99.5767 27.878C99.3487 27.95 99.1087 28.01 98.8567 28.058C98.6047 28.094 98.3467 28.13 98.0827 28.166C97.8307 28.202 97.6027 28.25 97.3987 28.31C97.0507 28.406 96.7807 28.55 96.5887 28.742C96.4087 28.922 96.3187 29.168 96.3187 29.48C96.3187 29.756 96.4447 30.014 96.6967 30.254C96.9607 30.494 97.3447 30.614 97.8487 30.614ZM105.596 23.36V20.48H107.216V23.36H109.016V24.98H107.216V29.462C107.216 29.786 107.318 30.05 107.522 30.254C107.726 30.458 107.984 30.56 108.296 30.56C108.416 30.56 108.524 30.554 108.62 30.542C108.728 30.53 108.824 30.512 108.908 30.488C109.016 30.476 109.112 30.458 109.196 30.434V32.072C109.088 32.096 108.968 32.114 108.836 32.126C108.62 32.162 108.32 32.18 107.936 32.18C107.12 32.18 106.496 31.958 106.064 31.514C105.632 31.058 105.416 30.38 105.416 29.48V24.98H103.796V23.36H105.596ZM113.244 23.36V32H111.462V23.36H113.244ZM111.462 21.56V19.76H113.244V21.56H111.462ZM115.332 27.68C115.332 27.068 115.446 26.492 115.674 25.952C115.902 25.412 116.214 24.938 116.61 24.53C117.006 24.11 117.468 23.78 117.996 23.54C118.536 23.3 119.112 23.18 119.724 23.18C120.336 23.18 120.906 23.3 121.434 23.54C121.962 23.78 122.424 24.11 122.82 24.53C123.216 24.938 123.528 25.412 123.756 25.952C123.984 26.492 124.098 27.068 124.098 27.68C124.098 28.292 123.984 28.868 123.756 29.408C123.528 29.948 123.216 30.428 122.82 30.848C122.424 31.256 121.962 31.58 121.434 31.82C120.906 32.06 120.336 32.18 119.724 32.18C119.112 32.18 118.536 32.06 117.996 31.82C117.468 31.58 117.006 31.256 116.61 30.848C116.214 30.428 115.902 29.948 115.674 29.408C115.446 28.868 115.332 28.292 115.332 27.68ZM119.724 30.56C120.084 30.56 120.42 30.488 120.732 30.344C121.044 30.188 121.314 29.984 121.542 29.732C121.782 29.468 121.968 29.162 122.1 28.814C122.232 28.466 122.298 28.088 122.298 27.68C122.298 27.272 122.232 26.894 122.1 26.546C121.968 26.198 121.782 25.898 121.542 25.646C121.314 25.382 121.044 25.178 120.732 25.034C120.42 24.878 120.084 24.8 119.724 24.8C119.364 24.8 119.028 24.878 118.716 25.034C118.404 25.178 118.128 25.382 117.888 25.646C117.66 25.898 117.474 26.198 117.33 26.546C117.198 26.894 117.132 27.272 117.132 27.68C117.132 28.088 117.198 28.466 117.33 28.814C117.474 29.162 117.66 29.468 117.888 29.732C118.128 29.984 118.404 30.188 118.716 30.344C119.028 30.488 119.364 30.56 119.724 30.56ZM126.049 32V23.36H127.849V24.332C127.849 24.356 127.861 24.38 127.885 24.404C127.909 24.416 127.933 24.41 127.957 24.386C128.041 24.302 128.155 24.194 128.299 24.062C128.443 23.93 128.617 23.798 128.821 23.666C129.037 23.534 129.283 23.42 129.559 23.324C129.835 23.228 130.135 23.18 130.459 23.18C131.503 23.18 132.325 23.516 132.925 24.188C133.537 24.86 133.843 25.784 133.843 26.96V32H132.043V26.96C132.043 26.324 131.863 25.808 131.503 25.412C131.155 25.004 130.687 24.8 130.099 24.8C129.415 24.8 128.869 25.016 128.461 25.448C128.053 25.88 127.849 26.504 127.849 27.32V32H126.049ZM136.17 29.876H138.294V32H136.17V29.876ZM138.294 23.36V25.484H136.17V23.36H138.294ZM144.714 32V19.4H153.624V21.2H146.694V24.53H152.184V26.33H146.694V30.2H153.804V32H144.714ZM156.959 23.36V20.48H158.579V23.36H160.379V24.98H158.579V29.462C158.579 29.786 158.681 30.05 158.885 30.254C159.089 30.458 159.347 30.56 159.659 30.56C159.779 30.56 159.887 30.554 159.983 30.542C160.091 30.53 160.187 30.512 160.271 30.488C160.379 30.476 160.475 30.458 160.559 30.434V32.072C160.451 32.096 160.331 32.114 160.199 32.126C159.983 32.162 159.683 32.18 159.299 32.18C158.483 32.18 157.859 31.958 157.427 31.514C156.995 31.058 156.779 30.38 156.779 29.48V24.98H155.159V23.36H156.959ZM162.897 32V19.4H164.697V24.332C164.697 24.356 164.709 24.374 164.733 24.386C164.757 24.398 164.781 24.392 164.805 24.368C164.865 24.272 164.967 24.158 165.111 24.026C165.255 23.894 165.435 23.768 165.651 23.648C165.867 23.516 166.113 23.408 166.389 23.324C166.677 23.228 166.983 23.18 167.307 23.18C168.351 23.18 169.173 23.516 169.773 24.188C170.385 24.86 170.691 25.784 170.691 26.96V32H168.891V26.96C168.891 26.324 168.711 25.808 168.351 25.412C168.003 25.004 167.535 24.8 166.947 24.8C166.263 24.8 165.717 25.016 165.309 25.448C164.901 25.88 164.697 26.504 164.697 27.32V32H162.897ZM173.193 32V23.36H174.993V24.332C174.993 24.356 175.005 24.38 175.029 24.404C175.053 24.416 175.077 24.41 175.101 24.386C175.185 24.302 175.299 24.194 175.443 24.062C175.587 23.93 175.761 23.798 175.965 23.666C176.181 23.534 176.427 23.42 176.703 23.324C176.979 23.228 177.279 23.18 177.603 23.18C178.647 23.18 179.469 23.516 180.069 24.188C180.681 24.86 180.987 25.784 180.987 26.96V32H179.187V26.96C179.187 26.324 179.007 25.808 178.647 25.412C178.299 25.004 177.831 24.8 177.243 24.8C176.559 24.8 176.013 25.016 175.605 25.448C175.197 25.88 174.993 26.504 174.993 27.32V32H173.193ZM185.367 23.36V32H183.585V23.36H185.367ZM183.585 21.56V19.76H185.367V21.56H183.585ZM191.829 23.18C192.321 23.18 192.789 23.258 193.233 23.414C193.689 23.57 194.097 23.792 194.457 24.08C194.817 24.356 195.111 24.692 195.339 25.088C195.579 25.484 195.723 25.916 195.771 26.384H193.935C193.851 25.904 193.611 25.508 193.215 25.196C192.831 24.884 192.369 24.728 191.829 24.728C191.469 24.728 191.133 24.806 190.821 24.962C190.509 25.118 190.233 25.334 189.993 25.61C189.765 25.874 189.579 26.186 189.435 26.546C189.303 26.894 189.237 27.272 189.237 27.68C189.237 28.088 189.303 28.472 189.435 28.832C189.579 29.18 189.765 29.486 189.993 29.75C190.233 30.014 190.509 30.224 190.821 30.38C191.133 30.536 191.469 30.614 191.829 30.614C192.369 30.614 192.831 30.464 193.215 30.164C193.611 29.852 193.851 29.456 193.935 28.976H195.771C195.723 29.444 195.579 29.876 195.339 30.272C195.111 30.668 194.817 31.01 194.457 31.298C194.097 31.574 193.689 31.79 193.233 31.946C192.789 32.102 192.321 32.18 191.829 32.18C191.217 32.18 190.641 32.06 190.101 31.82C189.573 31.58 189.111 31.256 188.715 30.848C188.319 30.428 188.007 29.948 187.779 29.408C187.551 28.868 187.437 28.292 187.437 27.68C187.437 27.068 187.551 26.492 187.779 25.952C188.007 25.412 188.319 24.938 188.715 24.53C189.111 24.11 189.573 23.78 190.101 23.54C190.641 23.3 191.217 23.18 191.829 23.18ZM199.57 23.36V32H197.788V23.36H199.57ZM197.788 21.56V19.76H199.57V21.56H197.788ZM203.26 23.36V20.48H204.88V23.36H206.68V24.98H204.88V29.462C204.88 29.786 204.982 30.05 205.186 30.254C205.39 30.458 205.648 30.56 205.96 30.56C206.08 30.56 206.188 30.554 206.284 30.542C206.392 30.53 206.488 30.512 206.572 30.488C206.68 30.476 206.776 30.458 206.86 30.434V32.072C206.752 32.096 206.632 32.114 206.5 32.126C206.284 32.162 205.984 32.18 205.6 32.18C204.784 32.18 204.16 31.958 203.728 31.514C203.296 31.058 203.08 30.38 203.08 29.48V24.98H201.46V23.36H203.26ZM209.828 23.36L212.294 29.516C212.306 29.54 212.324 29.552 212.348 29.552C212.372 29.552 212.39 29.54 212.402 29.516L214.868 23.36H216.758L212.888 32.9C212.672 33.44 212.456 33.896 212.24 34.268C212.024 34.64 211.796 34.94 211.556 35.168C211.328 35.396 211.076 35.558 210.8 35.654C210.536 35.75 210.242 35.798 209.918 35.798H208.658V34.16C208.742 34.16 208.838 34.166 208.946 34.178H209.558C209.918 34.178 210.218 34.064 210.458 33.836C210.71 33.62 210.92 33.308 211.088 32.9L211.448 32L207.938 23.36H209.828Z" fill="#F2F2F2"/>
<line y1="-0.5" x2="184" y2="-1.49999" transform="matrix(-2.99684e-08 1 1 6.37568e-08 117 98)" stroke="#1A1A1D"/>
<line y1="-0.5" x2="184" y2="-1.49999" transform="matrix(-2.99684e-08 1 1 6.37568e-08 222 98)" stroke="#1A1A1D"/>
<path d="M16.2424 168L102.147 195.598C110.809 198.381 120.267 197.082 127.858 192.068L208.38 138.877C215.622 134.093 224.582 132.68 232.945 135.003L315.064 157.817" stroke="#FFAFFF" stroke-width="2"/>
<ellipse cx="314.453" cy="157.818" rx="4" ry="4.07272" fill="#FFAFFF"/>
<path d="M16.2424 213.819L107.168 240.457C112.83 242.115 118.855 242.068 124.49 240.32L216.527 211.773C218.689 211.102 220.92 210.679 223.177 210.51L315.064 203.635" stroke="#FF9133" stroke-width="2"/>
<ellipse cx="314.453" cy="203.636" rx="4" ry="4.07273" fill="#FF9133"/>
<path d="M18 201.528L112.207 171.778C115.776 170.651 119.523 170.202 123.257 170.453L215.064 176.637C219.331 176.924 223.609 176.296 227.613 174.795L316.822 141.344" stroke="#00FCFF" stroke-width="2"/>
<ellipse cx="316.211" cy="141.345" rx="4" ry="4.07273" fill="#00FCFF"/>
<path d="M16.2422 128.527L107.221 148.705C112.853 149.954 118.727 149.552 124.137 147.548L213.784 114.34C217.737 112.875 221.954 112.26 226.161 112.535L315.064 118.344" stroke="#335AFF" stroke-width="2"/>
<ellipse cx="314.453" cy="118.345" rx="4" ry="4.07273" fill="#335AFF"/>
<path d="M16 58C16 52.4772 20.4772 48 26 48H216C221.523 48 226 52.4772 226 58V58C226 63.5228 221.523 68 216 68H26C20.4772 68 16 63.5228 16 58V58Z" fill="#1A1A1D"/>
<circle cx="28" cy="58" r="2" fill="#00FCFF"/>
<circle cx="73" cy="58" r="2" fill="#335AFF"/>
<circle cx="118" cy="58" r="2" fill="#FFAFFF"/>
<circle cx="166" cy="58" r="2" fill="#FF9133"/>
<path d="M34.275 61L37.465 53.3H38.235L41.425 61H40.545L39.665 58.855H36.035L35.155 61H34.275ZM39.335 58.085L37.85 54.455L36.365 58.085H39.335ZM41.9991 59.46H42.7361C42.7508 59.6433 42.8058 59.8047 42.9011 59.944C42.9818 60.0687 43.1028 60.1823 43.2641 60.285C43.4255 60.3877 43.6565 60.439 43.9571 60.439C44.3458 60.439 44.6355 60.3473 44.8261 60.164C45.0168 59.9807 45.1121 59.7643 45.1121 59.515C45.1121 59.3097 45.0388 59.152 44.8921 59.042C44.7528 58.9247 44.5768 58.8293 44.3641 58.756C44.1588 58.6753 43.9315 58.602 43.6821 58.536C43.4328 58.4627 43.2018 58.371 42.9891 58.261C42.7838 58.151 42.6078 58.0043 42.4611 57.821C42.3218 57.6377 42.2521 57.3957 42.2521 57.095C42.2521 56.9043 42.2925 56.721 42.3731 56.545C42.4611 56.3617 42.5821 56.2003 42.7361 56.061C42.8901 55.9217 43.0735 55.8117 43.2861 55.731C43.5061 55.6503 43.7481 55.61 44.0121 55.61C44.4228 55.61 44.7491 55.6907 44.9911 55.852C45.2331 56.0133 45.4128 56.1893 45.5301 56.38C45.6768 56.6147 45.7721 56.875 45.8161 57.161L45.0791 57.15C45.0498 56.9887 44.9911 56.8457 44.9031 56.721C44.8298 56.611 44.7235 56.512 44.5841 56.424C44.4448 56.336 44.2541 56.292 44.0121 56.292C43.8581 56.292 43.7188 56.3177 43.5941 56.369C43.4768 56.413 43.3741 56.4753 43.2861 56.556C43.2055 56.6293 43.1395 56.7137 43.0881 56.809C43.0441 56.9043 43.0221 56.9997 43.0221 57.095C43.0221 57.2857 43.0918 57.436 43.2311 57.546C43.3778 57.656 43.5538 57.7477 43.7591 57.821C43.9718 57.8943 44.2028 57.9677 44.4521 58.041C44.7015 58.107 44.9288 58.1987 45.1341 58.316C45.3468 58.426 45.5228 58.5763 45.6621 58.767C45.8088 58.9577 45.8821 59.207 45.8821 59.515C45.8821 59.735 45.8381 59.944 45.7501 60.142C45.6621 60.3327 45.5338 60.5013 45.3651 60.648C45.2038 60.7947 45.0021 60.912 44.7601 61C44.5255 61.0807 44.2578 61.121 43.9571 61.121C43.7151 61.121 43.4988 61.0953 43.3081 61.044C43.1248 61 42.9635 60.9413 42.8241 60.868C42.6921 60.7873 42.5785 60.6957 42.4831 60.593C42.3878 60.4903 42.3071 60.3877 42.2411 60.285C42.1018 60.043 42.0211 59.768 41.9991 59.46ZM48.0237 55.72V61H47.2537V55.72H48.0237ZM47.2537 53.575H48.0237V54.345H47.2537V53.575ZM49.4039 59.57C49.4039 59.13 49.5359 58.7743 49.7999 58.503C50.0639 58.2317 50.4452 58.0557 50.9439 57.975L52.2419 57.711C52.4179 57.6597 52.5499 57.601 52.6379 57.535C52.7332 57.4617 52.7809 57.3443 52.7809 57.183C52.7809 57.051 52.7479 56.9337 52.6819 56.831C52.6232 56.721 52.5425 56.6293 52.4399 56.556C52.3372 56.4827 52.2162 56.4277 52.0769 56.391C51.9449 56.347 51.8055 56.325 51.6589 56.325C51.3875 56.325 51.1712 56.369 51.0099 56.457C50.8485 56.545 50.7275 56.6403 50.6469 56.743C50.5515 56.8677 50.4855 57.007 50.4489 57.161H49.6239C49.6825 56.875 49.7925 56.6147 49.9539 56.38C50.0932 56.1893 50.2949 56.0133 50.5589 55.852C50.8302 55.6907 51.1969 55.61 51.6589 55.61C52.0109 55.61 52.3152 55.6613 52.5719 55.764C52.8359 55.8667 53.0559 56.0097 53.2319 56.193C53.4079 56.3763 53.5362 56.5927 53.6169 56.842C53.7049 57.0913 53.7489 57.359 53.7489 57.645V61H52.9789V60.208C52.8615 60.3767 52.7222 60.527 52.5609 60.659C52.4142 60.769 52.2345 60.8717 52.0219 60.967C51.8165 61.0623 51.5672 61.11 51.2739 61.11C51.0025 61.11 50.7495 61.066 50.5149 60.978C50.2875 60.89 50.0895 60.7763 49.9209 60.637C49.7595 60.4903 49.6312 60.3253 49.5359 60.142C49.4479 59.9513 49.4039 59.7607 49.4039 59.57ZM50.1739 59.515C50.1739 59.713 50.2655 59.9 50.4489 60.076C50.6395 60.252 50.9145 60.34 51.2739 60.34C51.7945 60.34 52.2052 60.2007 52.5059 59.922C52.8139 59.636 52.9679 59.1557 52.9679 58.481V58.173C52.9679 58.1583 52.9605 58.1473 52.9459 58.14C52.9312 58.1253 52.9165 58.1253 52.9019 58.14C52.8139 58.228 52.6892 58.3013 52.5279 58.36C52.3665 58.4113 52.1905 58.4553 51.9999 58.492C51.8165 58.5213 51.6332 58.5507 51.4499 58.58C51.2665 58.602 51.1015 58.6313 50.9549 58.668C50.7055 58.734 50.5112 58.8367 50.3719 58.976C50.2399 59.108 50.1739 59.2877 50.1739 59.515ZM55.5037 55.72H56.2737V56.567C56.391 56.391 56.5304 56.2297 56.6917 56.083C56.8384 55.9657 57.018 55.8593 57.2307 55.764C57.4434 55.6613 57.6927 55.61 57.9787 55.61C58.294 55.61 58.58 55.665 58.8367 55.775C59.0934 55.8777 59.3134 56.028 59.4967 56.226C59.68 56.4167 59.823 56.6513 59.9257 56.93C60.0284 57.2087 60.0797 57.5203 60.0797 57.865V61H59.3097V57.865C59.3097 57.3957 59.1814 57.0217 58.9247 56.743C58.6754 56.4643 58.3417 56.325 57.9237 56.325C57.689 56.325 57.469 56.369 57.2637 56.457C57.0657 56.5377 56.8934 56.655 56.7467 56.809C56.6 56.963 56.4827 57.15 56.3947 57.37C56.314 57.5827 56.2737 57.821 56.2737 58.085V61H55.5037V55.72Z" fill="#F2F2F2" fill-opacity="0.7"/>
<path d="M83.125 53.3C83.4403 53.3 83.73 53.3513 83.994 53.454C84.258 53.5567 84.4817 53.6997 84.665 53.883C84.8557 54.059 85.0023 54.268 85.105 54.51C85.215 54.7447 85.27 55.0013 85.27 55.28C85.27 55.588 85.2223 55.8447 85.127 56.05C85.039 56.248 84.94 56.4093 84.83 56.534C84.698 56.6807 84.5513 56.7943 84.39 56.875C84.6247 56.985 84.8373 57.128 85.028 57.304C85.182 57.4507 85.325 57.6487 85.457 57.898C85.589 58.14 85.655 58.4407 85.655 58.8C85.655 59.1153 85.5963 59.4087 85.479 59.68C85.369 59.944 85.2113 60.175 85.006 60.373C84.8007 60.571 84.5513 60.725 84.258 60.835C83.972 60.945 83.6493 61 83.29 61H80.155V53.3H83.125ZM80.98 57.26V60.23H83.29C83.7593 60.23 84.1333 60.098 84.412 59.834C84.6907 59.5627 84.83 59.218 84.83 58.8C84.83 58.5947 84.7933 58.4003 84.72 58.217C84.6467 58.0263 84.544 57.8613 84.412 57.722C84.28 57.5827 84.1187 57.4727 83.928 57.392C83.7373 57.304 83.5247 57.26 83.29 57.26H80.98ZM83.125 56.534C83.543 56.534 83.8657 56.424 84.093 56.204C84.3277 55.9767 84.445 55.6687 84.445 55.28C84.445 54.9207 84.3277 54.631 84.093 54.411C83.8657 54.1837 83.543 54.07 83.125 54.07H80.98V56.534H83.125ZM88.0191 61H87.2491V53.3H88.0191V61ZM89.4517 59.57C89.4517 59.13 89.5837 58.7743 89.8477 58.503C90.1117 58.2317 90.4931 58.0557 90.9917 57.975L92.2897 57.711C92.4657 57.6597 92.5977 57.601 92.6857 57.535C92.7811 57.4617 92.8287 57.3443 92.8287 57.183C92.8287 57.051 92.7957 56.9337 92.7297 56.831C92.6711 56.721 92.5904 56.6293 92.4877 56.556C92.3851 56.4827 92.2641 56.4277 92.1247 56.391C91.9927 56.347 91.8534 56.325 91.7067 56.325C91.4354 56.325 91.2191 56.369 91.0577 56.457C90.8964 56.545 90.7754 56.6403 90.6947 56.743C90.5994 56.8677 90.5334 57.007 90.4967 57.161H89.6717C89.7304 56.875 89.8404 56.6147 90.0017 56.38C90.1411 56.1893 90.3427 56.0133 90.6067 55.852C90.8781 55.6907 91.2447 55.61 91.7067 55.61C92.0587 55.61 92.3631 55.6613 92.6197 55.764C92.8837 55.8667 93.1037 56.0097 93.2797 56.193C93.4557 56.3763 93.5841 56.5927 93.6647 56.842C93.7527 57.0913 93.7967 57.359 93.7967 57.645V61H93.0267V60.208C92.9094 60.3767 92.7701 60.527 92.6087 60.659C92.4621 60.769 92.2824 60.8717 92.0697 60.967C91.8644 61.0623 91.6151 61.11 91.3217 61.11C91.0504 61.11 90.7974 61.066 90.5627 60.978C90.3354 60.89 90.1374 60.7763 89.9687 60.637C89.8074 60.4903 89.6791 60.3253 89.5837 60.142C89.4957 59.9513 89.4517 59.7607 89.4517 59.57ZM90.2217 59.515C90.2217 59.713 90.3134 59.9 90.4967 60.076C90.6874 60.252 90.9624 60.34 91.3217 60.34C91.8424 60.34 92.2531 60.2007 92.5537 59.922C92.8617 59.636 93.0157 59.1557 93.0157 58.481V58.173C93.0157 58.1583 93.0084 58.1473 92.9937 58.14C92.9791 58.1253 92.9644 58.1253 92.9497 58.14C92.8617 58.228 92.7371 58.3013 92.5757 58.36C92.4144 58.4113 92.2384 58.4553 92.0477 58.492C91.8644 58.5213 91.6811 58.5507 91.4977 58.58C91.3144 58.602 91.1494 58.6313 91.0027 58.668C90.7534 58.734 90.5591 58.8367 90.4197 58.976C90.2877 59.108 90.2217 59.2877 90.2217 59.515ZM95.1666 58.36C95.1666 57.986 95.2326 57.634 95.3646 57.304C95.5039 56.974 95.6909 56.6843 95.9256 56.435C96.1676 56.1783 96.4462 55.9767 96.7616 55.83C97.0842 55.6833 97.4326 55.61 97.8066 55.61C98.1072 55.61 98.3969 55.6577 98.6756 55.753C98.9542 55.8483 99.2036 55.984 99.4236 56.16C99.6436 56.3287 99.8269 56.534 99.9736 56.776C100.12 57.018 100.208 57.282 100.238 57.568H99.4896C99.4676 57.4213 99.4089 57.2747 99.3136 57.128C99.2182 56.9813 99.0972 56.8493 98.9506 56.732C98.8039 56.6073 98.6316 56.5083 98.4336 56.435C98.2429 56.3617 98.0339 56.325 97.8066 56.325C97.5499 56.325 97.3079 56.3763 97.0806 56.479C96.8532 56.5817 96.6552 56.7247 96.4866 56.908C96.3179 57.0913 96.1822 57.3077 96.0796 57.557C95.9842 57.8063 95.9366 58.074 95.9366 58.36C95.9366 58.646 95.9842 58.9137 96.0796 59.163C96.1822 59.4123 96.3179 59.6287 96.4866 59.812C96.6552 59.9953 96.8532 60.1383 97.0806 60.241C97.3079 60.3437 97.5499 60.395 97.8066 60.395C98.0339 60.395 98.2429 60.3583 98.4336 60.285C98.6316 60.2043 98.8039 60.1053 98.9506 59.988C99.0972 59.8707 99.2182 59.7387 99.3136 59.592C99.4089 59.438 99.4676 59.2913 99.4896 59.152H100.238C100.208 59.438 100.12 59.702 99.9736 59.944C99.8269 60.1787 99.6436 60.384 99.4236 60.56C99.2036 60.736 98.9542 60.8717 98.6756 60.967C98.3969 61.0623 98.1072 61.11 97.8066 61.11C97.4326 61.11 97.0842 61.0367 96.7616 60.89C96.4462 60.7433 96.1676 60.5453 95.9256 60.296C95.6909 60.0393 95.5039 59.746 95.3646 59.416C95.2326 59.086 95.1666 58.734 95.1666 58.36ZM101.558 61V53.3H102.328V58.525L104.968 55.72H105.903L103.868 57.865L106.123 61H105.243L103.373 58.415L102.328 59.515V61H101.558Z" fill="#F2F2F2" fill-opacity="0.7"/>
<path d="M124.33 53.3H125.21L127.245 59.735L129.335 53.3H130.105L132.195 59.735L134.23 53.3H135.11L132.58 61H131.755L129.72 54.565L127.685 61H126.86L124.33 53.3ZM137.09 53.3V56.556C137.208 56.38 137.347 56.2223 137.508 56.083C137.655 55.9583 137.835 55.8483 138.047 55.753C138.26 55.6577 138.509 55.61 138.795 55.61C139.111 55.61 139.397 55.665 139.653 55.775C139.917 55.8777 140.141 56.028 140.324 56.226C140.508 56.4167 140.651 56.6513 140.753 56.93C140.856 57.2087 140.907 57.5203 140.907 57.865V61H140.137V57.865C140.137 57.3957 140.009 57.0217 139.752 56.743C139.496 56.4643 139.158 56.325 138.74 56.325C138.506 56.325 138.286 56.369 138.08 56.457C137.882 56.5377 137.71 56.655 137.563 56.809C137.417 56.963 137.299 57.15 137.211 57.37C137.131 57.5827 137.09 57.821 137.09 58.085V61H136.32V53.3H137.09ZM143.438 55.72V61H142.668V55.72H143.438ZM142.668 53.575H143.438V54.345H142.668V53.575ZM144.653 55.72H145.698V53.96H146.413V55.72H147.568V56.435H146.413V59.57C146.413 59.8487 146.475 60.0577 146.6 60.197C146.732 60.329 146.908 60.395 147.128 60.395C147.231 60.395 147.322 60.3877 147.403 60.373C147.491 60.3583 147.568 60.3437 147.634 60.329C147.707 60.3143 147.777 60.296 147.843 60.274V60.989C147.777 61.011 147.704 61.033 147.623 61.055C147.557 61.0697 147.476 61.0843 147.381 61.099C147.293 61.1137 147.198 61.121 147.095 61.121C146.64 61.121 146.285 60.989 146.028 60.725C145.771 60.4537 145.643 60.0687 145.643 59.57V56.435H144.653V55.72ZM148.567 58.36C148.567 57.9713 148.637 57.612 148.776 57.282C148.915 56.9447 149.102 56.655 149.337 56.413C149.579 56.1637 149.854 55.9693 150.162 55.83C150.477 55.6833 150.807 55.61 151.152 55.61C151.511 55.61 151.841 55.676 152.142 55.808C152.45 55.94 152.714 56.1233 152.934 56.358C153.161 56.5853 153.337 56.8603 153.462 57.183C153.587 57.5057 153.649 57.8613 153.649 58.25C153.649 58.3087 153.645 58.36 153.638 58.404C153.638 58.448 153.634 58.4883 153.627 58.525C153.612 58.569 153.601 58.6093 153.594 58.646L149.337 58.635C149.352 58.8697 149.41 59.0933 149.513 59.306C149.616 59.5187 149.751 59.7057 149.92 59.867C150.089 60.0283 150.283 60.1567 150.503 60.252C150.723 60.3473 150.958 60.395 151.207 60.395C151.471 60.395 151.695 60.362 151.878 60.296C152.061 60.2227 152.212 60.1383 152.329 60.043C152.446 59.9477 152.534 59.856 152.593 59.768C152.659 59.68 152.696 59.6213 152.703 59.592H153.616C153.477 59.878 153.297 60.131 153.077 60.351C152.886 60.5417 152.637 60.7177 152.329 60.879C152.028 61.033 151.654 61.11 151.207 61.11C150.848 61.11 150.507 61.0403 150.184 60.901C149.869 60.7543 149.59 60.56 149.348 60.318C149.106 60.0687 148.915 59.7753 148.776 59.438C148.637 59.1007 148.567 58.7413 148.567 58.36ZM149.337 57.975H152.879C152.85 57.7403 152.787 57.524 152.692 57.326C152.597 57.1207 152.476 56.9447 152.329 56.798C152.182 56.6513 152.006 56.5377 151.801 56.457C151.603 56.369 151.387 56.325 151.152 56.325C150.917 56.325 150.694 56.369 150.481 56.457C150.276 56.545 150.092 56.666 149.931 56.82C149.77 56.974 149.638 57.15 149.535 57.348C149.432 57.546 149.366 57.755 149.337 57.975Z" fill="#F2F2F2" fill-opacity="0.7"/>
<path d="M173.155 61V53.3H173.98V56.71H178.27V53.3H179.095V61H178.27V57.48H173.98V61H173.155ZM181.845 55.72V61H181.075V55.72H181.845ZM181.075 53.575H181.845V54.345H181.075V53.575ZM183.082 59.46H183.819C183.834 59.6433 183.889 59.8047 183.984 59.944C184.065 60.0687 184.186 60.1823 184.347 60.285C184.508 60.3877 184.739 60.439 185.04 60.439C185.429 60.439 185.718 60.3473 185.909 60.164C186.1 59.9807 186.195 59.7643 186.195 59.515C186.195 59.3097 186.122 59.152 185.975 59.042C185.836 58.9247 185.66 58.8293 185.447 58.756C185.242 58.6753 185.014 58.602 184.765 58.536C184.516 58.4627 184.285 58.371 184.072 58.261C183.867 58.151 183.691 58.0043 183.544 57.821C183.405 57.6377 183.335 57.3957 183.335 57.095C183.335 56.9043 183.375 56.721 183.456 56.545C183.544 56.3617 183.665 56.2003 183.819 56.061C183.973 55.9217 184.156 55.8117 184.369 55.731C184.589 55.6503 184.831 55.61 185.095 55.61C185.506 55.61 185.832 55.6907 186.074 55.852C186.316 56.0133 186.496 56.1893 186.613 56.38C186.76 56.6147 186.855 56.875 186.899 57.161L186.162 57.15C186.133 56.9887 186.074 56.8457 185.986 56.721C185.913 56.611 185.806 56.512 185.667 56.424C185.528 56.336 185.337 56.292 185.095 56.292C184.941 56.292 184.802 56.3177 184.677 56.369C184.56 56.413 184.457 56.4753 184.369 56.556C184.288 56.6293 184.222 56.7137 184.171 56.809C184.127 56.9043 184.105 56.9997 184.105 57.095C184.105 57.2857 184.175 57.436 184.314 57.546C184.461 57.656 184.637 57.7477 184.842 57.821C185.055 57.8943 185.286 57.9677 185.535 58.041C185.784 58.107 186.012 58.1987 186.217 58.316C186.43 58.426 186.606 58.5763 186.745 58.767C186.892 58.9577 186.965 59.207 186.965 59.515C186.965 59.735 186.921 59.944 186.833 60.142C186.745 60.3327 186.617 60.5013 186.448 60.648C186.287 60.7947 186.085 60.912 185.843 61C185.608 61.0807 185.341 61.121 185.04 61.121C184.798 61.121 184.582 61.0953 184.391 61.044C184.208 61 184.046 60.9413 183.907 60.868C183.775 60.7873 183.661 60.6957 183.566 60.593C183.471 60.4903 183.39 60.3877 183.324 60.285C183.185 60.043 183.104 59.768 183.082 59.46ZM189.107 55.72V56.611C189.239 56.4277 189.4 56.259 189.591 56.105C189.752 55.9803 189.946 55.8667 190.174 55.764C190.401 55.6613 190.669 55.61 190.977 55.61C191.307 55.61 191.622 55.6833 191.923 55.83C192.223 55.9693 192.487 56.1637 192.715 56.413C192.949 56.655 193.133 56.9447 193.265 57.282C193.404 57.612 193.474 57.9713 193.474 58.36C193.474 58.7413 193.404 59.1007 193.265 59.438C193.133 59.7753 192.949 60.0687 192.715 60.318C192.487 60.56 192.223 60.7543 191.923 60.901C191.622 61.0403 191.307 61.11 190.977 61.11C190.669 61.11 190.401 61.0587 190.174 60.956C189.946 60.846 189.752 60.7287 189.591 60.604C189.4 60.4573 189.239 60.2887 189.107 60.098V63.31H188.337V55.72H189.107ZM190.977 60.395C191.197 60.395 191.409 60.3437 191.615 60.241C191.827 60.1383 192.011 59.9953 192.165 59.812C192.326 59.6287 192.454 59.4123 192.55 59.163C192.652 58.9137 192.704 58.646 192.704 58.36C192.704 58.074 192.652 57.8063 192.55 57.557C192.454 57.3077 192.326 57.0913 192.165 56.908C192.011 56.7247 191.827 56.5817 191.615 56.479C191.409 56.3763 191.197 56.325 190.977 56.325C190.742 56.325 190.511 56.38 190.284 56.49C190.064 56.6 189.866 56.7467 189.69 56.93C189.514 57.1133 189.371 57.3297 189.261 57.579C189.158 57.821 189.107 58.0813 189.107 58.36C189.107 58.6313 189.158 58.8917 189.261 59.141C189.371 59.3903 189.514 59.6067 189.69 59.79C189.866 59.9733 190.064 60.12 190.284 60.23C190.511 60.34 190.742 60.395 190.977 60.395ZM194.461 59.57C194.461 59.13 194.593 58.7743 194.857 58.503C195.121 58.2317 195.503 58.0557 196.001 57.975L197.299 57.711C197.475 57.6597 197.607 57.601 197.695 57.535C197.791 57.4617 197.838 57.3443 197.838 57.183C197.838 57.051 197.805 56.9337 197.739 56.831C197.681 56.721 197.6 56.6293 197.497 56.556C197.395 56.4827 197.274 56.4277 197.134 56.391C197.002 56.347 196.863 56.325 196.716 56.325C196.445 56.325 196.229 56.369 196.067 56.457C195.906 56.545 195.785 56.6403 195.704 56.743C195.609 56.8677 195.543 57.007 195.506 57.161H194.681C194.74 56.875 194.85 56.6147 195.011 56.38C195.151 56.1893 195.352 56.0133 195.616 55.852C195.888 55.6907 196.254 55.61 196.716 55.61C197.068 55.61 197.373 55.6613 197.629 55.764C197.893 55.8667 198.113 56.0097 198.289 56.193C198.465 56.3763 198.594 56.5927 198.674 56.842C198.762 57.0913 198.806 57.359 198.806 57.645V61H198.036V60.208C197.919 60.3767 197.78 60.527 197.618 60.659C197.472 60.769 197.292 60.8717 197.079 60.967C196.874 61.0623 196.625 61.11 196.331 61.11C196.06 61.11 195.807 61.066 195.572 60.978C195.345 60.89 195.147 60.7763 194.978 60.637C194.817 60.4903 194.689 60.3253 194.593 60.142C194.505 59.9513 194.461 59.7607 194.461 59.57ZM195.231 59.515C195.231 59.713 195.323 59.9 195.506 60.076C195.697 60.252 195.972 60.34 196.331 60.34C196.852 60.34 197.263 60.2007 197.563 59.922C197.871 59.636 198.025 59.1557 198.025 58.481V58.173C198.025 58.1583 198.018 58.1473 198.003 58.14C197.989 58.1253 197.974 58.1253 197.959 58.14C197.871 58.228 197.747 58.3013 197.585 58.36C197.424 58.4113 197.248 58.4553 197.057 58.492C196.874 58.5213 196.691 58.5507 196.507 58.58C196.324 58.602 196.159 58.6313 196.012 58.668C195.763 58.734 195.569 58.8367 195.429 58.976C195.297 59.108 195.231 59.2877 195.231 59.515ZM200.561 55.72H201.331V56.567C201.449 56.391 201.588 56.2297 201.749 56.083C201.896 55.9657 202.076 55.8593 202.288 55.764C202.501 55.6613 202.75 55.61 203.036 55.61C203.352 55.61 203.638 55.665 203.894 55.775C204.151 55.8777 204.371 56.028 204.554 56.226C204.738 56.4167 204.881 56.6513 204.983 56.93C205.086 57.2087 205.137 57.5203 205.137 57.865V61H204.367V57.865C204.367 57.3957 204.239 57.0217 203.982 56.743C203.733 56.4643 203.399 56.325 202.981 56.325C202.747 56.325 202.527 56.369 202.321 56.457C202.123 56.5377 201.951 56.655 201.804 56.809C201.658 56.963 201.54 57.15 201.452 57.37C201.372 57.5827 201.331 57.821 201.331 58.085V61H200.561V55.72ZM207.669 55.72V61H206.899V55.72H207.669ZM206.899 53.575H207.669V54.345H206.899V53.575ZM209.049 58.36C209.049 57.986 209.115 57.634 209.247 57.304C209.387 56.974 209.574 56.6843 209.808 56.435C210.05 56.1783 210.329 55.9767 210.644 55.83C210.967 55.6833 211.315 55.61 211.689 55.61C211.99 55.61 212.28 55.6577 212.558 55.753C212.837 55.8483 213.086 55.984 213.306 56.16C213.526 56.3287 213.71 56.534 213.856 56.776C214.003 57.018 214.091 57.282 214.12 57.568H213.372C213.35 57.4213 213.292 57.2747 213.196 57.128C213.101 56.9813 212.98 56.8493 212.833 56.732C212.687 56.6073 212.514 56.5083 212.316 56.435C212.126 56.3617 211.917 56.325 211.689 56.325C211.433 56.325 211.191 56.3763 210.963 56.479C210.736 56.5817 210.538 56.7247 210.369 56.908C210.201 57.0913 210.065 57.3077 209.962 57.557C209.867 57.8063 209.819 58.074 209.819 58.36C209.819 58.646 209.867 58.9137 209.962 59.163C210.065 59.4123 210.201 59.6287 210.369 59.812C210.538 59.9953 210.736 60.1383 210.963 60.241C211.191 60.3437 211.433 60.395 211.689 60.395C211.917 60.395 212.126 60.3583 212.316 60.285C212.514 60.2043 212.687 60.1053 212.833 59.988C212.98 59.8707 213.101 59.7387 213.196 59.592C213.292 59.438 213.35 59.2913 213.372 59.152H214.12C214.091 59.438 214.003 59.702 213.856 59.944C213.71 60.1787 213.526 60.384 213.306 60.56C213.086 60.736 212.837 60.8717 212.558 60.967C212.28 61.0623 211.99 61.11 211.689 61.11C211.315 61.11 210.967 61.0367 210.644 60.89C210.329 60.7433 210.05 60.5453 209.808 60.296C209.574 60.0393 209.387 59.746 209.247 59.416C209.115 59.086 209.049 58.734 209.049 58.36Z" fill="#F2F2F2" fill-opacity="0.7"/>
</svg>
