<svg width="1010" height="337" viewBox="0 0 1010 337" fill="none" xmlns="http://www.w3.org/2000/svg">
<path d="M0 8.00489C0 3.58661 3.58172 0.00488281 8 0.00488281H1002C1006.42 0.00488281 1010 3.58661 1010 8.00488V328.005C1010 332.423 1006.42 336.005 1002 336.005H8.00001C3.58173 336.005 0 332.423 0 328.005V8.00489Z" fill="#262629"/>
<path d="M0 172.005H1010V328.005C1010 332.423 1006.42 336.005 1002 336.005H8.00001C3.58173 336.005 0 332.423 0 328.005V172.005Z" fill="#1F1F21"/>
<line x1="351.5" y1="84.0049" x2="352.5" y2="297.004" stroke="#1A1A1D"/>
<line x1="688.5" y1="84.0049" x2="689.5" y2="297.004" stroke="#1A1A1D"/>
<path d="M15.5391 192.005L318.817 264.608C333.65 268.159 349.098 268.27 363.98 264.933L656.217 199.399C664.786 197.478 673.569 196.694 682.342 197.066L986.972 210.005" stroke="#FF9133" stroke-width="2"/>
<circle cx="990" cy="210.009" r="4" fill="#FF9133"/>
<path d="M15.5385 150.505L337.843 182.606C340.507 182.872 343.189 182.922 345.862 182.758L661.09 163.409C665.457 163.141 669.84 163.447 674.127 164.32L986.972 228.002" stroke="#FFAFFF" stroke-width="2"/>
<circle cx="990" cy="229.005" r="4" fill="#FFAFFF"/>
<path d="M15.5385 210.505L324.988 221.46C335.195 221.821 345.398 220.616 355.241 217.888L655.529 134.639C664.229 132.228 673.216 131.005 682.244 131.005L988.635 131.005" stroke="#00FCFF" stroke-width="2"/>
<circle cx="990" cy="131.005" r="4" fill="#00FCFF"/>
<path d="M15.5385 140.005L334.204 146.851C338.969 146.954 343.735 146.715 348.466 146.138L669.125 107.005L989.606 107.005" stroke="#335AFF" stroke-width="2"/>
<circle cx="990" cy="106.005" r="4" fill="#335AFF"/>
<path d="M784 26.0049C784 20.482 788.477 16.0049 794 16.0049H984C989.523 16.0049 994 20.482 994 26.0049V26.0049C994 31.5277 989.523 36.0049 984 36.0049H794C788.477 36.0049 784 31.5277 784 26.0049V26.0049Z" fill="#1A1A1D"/>
<circle cx="796" cy="26.0049" r="2" fill="#FFAFFF"/>
<circle cx="841" cy="26.0049" r="2" fill="#00FCFF"/>
<circle cx="886" cy="26.0049" r="2" fill="#335AFF"/>
<circle cx="934" cy="26.0049" r="2" fill="#FF9133"/>
<path d="M802.275 29.0049L805.465 21.3049H806.235L809.425 29.0049H808.545L807.665 26.8599H804.035L803.155 29.0049H802.275ZM807.335 26.0899L805.85 22.4599L804.365 26.0899H807.335ZM809.999 27.4649H810.736C810.751 27.6482 810.806 27.8095 810.901 27.9489C810.982 28.0735 811.103 28.1872 811.264 28.2899C811.425 28.3925 811.656 28.4439 811.957 28.4439C812.346 28.4439 812.635 28.3522 812.826 28.1689C813.017 27.9855 813.112 27.7692 813.112 27.5199C813.112 27.3145 813.039 27.1569 812.892 27.0469C812.753 26.9295 812.577 26.8342 812.364 26.7609C812.159 26.6802 811.931 26.6069 811.682 26.5409C811.433 26.4675 811.202 26.3759 810.989 26.2659C810.784 26.1559 810.608 26.0092 810.461 25.8259C810.322 25.6425 810.252 25.4005 810.252 25.0999C810.252 24.9092 810.292 24.7259 810.373 24.5499C810.461 24.3665 810.582 24.2052 810.736 24.0659C810.89 23.9265 811.073 23.8165 811.286 23.7359C811.506 23.6552 811.748 23.6149 812.012 23.6149C812.423 23.6149 812.749 23.6955 812.991 23.8569C813.233 24.0182 813.413 24.1942 813.53 24.3849C813.677 24.6195 813.772 24.8799 813.816 25.1659L813.079 25.1549C813.05 24.9935 812.991 24.8505 812.903 24.7259C812.83 24.6159 812.723 24.5169 812.584 24.4289C812.445 24.3409 812.254 24.2969 812.012 24.2969C811.858 24.2969 811.719 24.3225 811.594 24.3739C811.477 24.4179 811.374 24.4802 811.286 24.5609C811.205 24.6342 811.139 24.7185 811.088 24.8139C811.044 24.9092 811.022 25.0045 811.022 25.0999C811.022 25.2905 811.092 25.4409 811.231 25.5509C811.378 25.6609 811.554 25.7525 811.759 25.8259C811.972 25.8992 812.203 25.9725 812.452 26.0459C812.701 26.1119 812.929 26.2035 813.134 26.3209C813.347 26.4309 813.523 26.5812 813.662 26.7719C813.809 26.9625 813.882 27.2119 813.882 27.5199C813.882 27.7399 813.838 27.9489 813.75 28.1469C813.662 28.3375 813.534 28.5062 813.365 28.6529C813.204 28.7995 813.002 28.9169 812.76 29.0049C812.525 29.0855 812.258 29.1259 811.957 29.1259C811.715 29.1259 811.499 29.1002 811.308 29.0489C811.125 29.0049 810.963 28.9462 810.824 28.8729C810.692 28.7922 810.578 28.7005 810.483 28.5979C810.388 28.4952 810.307 28.3925 810.241 28.2899C810.102 28.0479 810.021 27.7729 809.999 27.4649ZM816.024 23.7249V29.0049H815.254V23.7249H816.024ZM815.254 21.5799H816.024V22.3499H815.254V21.5799ZM817.404 27.5749C817.404 27.1349 817.536 26.7792 817.8 26.5079C818.064 26.2365 818.445 26.0605 818.944 25.9799L820.242 25.7159C820.418 25.6645 820.55 25.6059 820.638 25.5399C820.733 25.4665 820.781 25.3492 820.781 25.1879C820.781 25.0559 820.748 24.9385 820.682 24.8359C820.623 24.7259 820.543 24.6342 820.44 24.5609C820.337 24.4875 820.216 24.4325 820.077 24.3959C819.945 24.3519 819.806 24.3299 819.659 24.3299C819.388 24.3299 819.171 24.3739 819.01 24.4619C818.849 24.5499 818.728 24.6452 818.647 24.7479C818.552 24.8725 818.486 25.0119 818.449 25.1659H817.624C817.683 24.8799 817.793 24.6195 817.954 24.3849C818.093 24.1942 818.295 24.0182 818.559 23.8569C818.83 23.6955 819.197 23.6149 819.659 23.6149C820.011 23.6149 820.315 23.6662 820.572 23.7689C820.836 23.8715 821.056 24.0145 821.232 24.1979C821.408 24.3812 821.536 24.5975 821.617 24.8469C821.705 25.0962 821.749 25.3639 821.749 25.6499V29.0049H820.979V28.2129C820.862 28.3815 820.722 28.5319 820.561 28.6639C820.414 28.7739 820.235 28.8765 820.022 28.9719C819.817 29.0672 819.567 29.1149 819.274 29.1149C819.003 29.1149 818.75 29.0709 818.515 28.9829C818.288 28.8949 818.09 28.7812 817.921 28.6419C817.76 28.4952 817.631 28.3302 817.536 28.1469C817.448 27.9562 817.404 27.7655 817.404 27.5749ZM818.174 27.5199C818.174 27.7179 818.266 27.9049 818.449 28.0809C818.64 28.2569 818.915 28.3449 819.274 28.3449C819.795 28.3449 820.205 28.2055 820.506 27.9269C820.814 27.6409 820.968 27.1605 820.968 26.4859V26.1779C820.968 26.1632 820.961 26.1522 820.946 26.1449C820.931 26.1302 820.917 26.1302 820.902 26.1449C820.814 26.2329 820.689 26.3062 820.528 26.3649C820.367 26.4162 820.191 26.4602 820 26.4969C819.817 26.5262 819.633 26.5555 819.45 26.5849C819.267 26.6069 819.102 26.6362 818.955 26.6729C818.706 26.7389 818.511 26.8415 818.372 26.9809C818.24 27.1129 818.174 27.2925 818.174 27.5199ZM823.504 23.7249H824.274V24.5719C824.391 24.3959 824.53 24.2345 824.692 24.0879C824.838 23.9705 825.018 23.8642 825.231 23.7689C825.443 23.6662 825.693 23.6149 825.979 23.6149C826.294 23.6149 826.58 23.6699 826.837 23.7799C827.093 23.8825 827.313 24.0329 827.497 24.2309C827.68 24.4215 827.823 24.6562 827.926 24.9349C828.028 25.2135 828.08 25.5252 828.08 25.8699V29.0049H827.31V25.8699C827.31 25.4005 827.181 25.0265 826.925 24.7479C826.675 24.4692 826.342 24.3299 825.924 24.3299C825.689 24.3299 825.469 24.3739 825.264 24.4619C825.066 24.5425 824.893 24.6599 824.747 24.8139C824.6 24.9679 824.483 25.1549 824.395 25.3749C824.314 25.5875 824.274 25.8259 824.274 26.0899V29.0049H823.504V23.7249Z" fill="#F2F2F2" fill-opacity="0.7"/>
<path d="M851.125 21.3049C851.44 21.3049 851.73 21.3562 851.994 21.4589C852.258 21.5615 852.482 21.7045 852.665 21.8879C852.856 22.0639 853.002 22.2729 853.105 22.5149C853.215 22.7495 853.27 23.0062 853.27 23.2849C853.27 23.5929 853.222 23.8495 853.127 24.0549C853.039 24.2529 852.94 24.4142 852.83 24.5389C852.698 24.6855 852.551 24.7992 852.39 24.8799C852.625 24.9899 852.837 25.1329 853.028 25.3089C853.182 25.4555 853.325 25.6535 853.457 25.9029C853.589 26.1449 853.655 26.4455 853.655 26.8049C853.655 27.1202 853.596 27.4135 853.479 27.6849C853.369 27.9489 853.211 28.1799 853.006 28.3779C852.801 28.5759 852.551 28.7299 852.258 28.8399C851.972 28.9499 851.649 29.0049 851.29 29.0049H848.155V21.3049H851.125ZM848.98 25.2649V28.2349H851.29C851.759 28.2349 852.133 28.1029 852.412 27.8389C852.691 27.5675 852.83 27.2229 852.83 26.8049C852.83 26.5995 852.793 26.4052 852.72 26.2219C852.647 26.0312 852.544 25.8662 852.412 25.7269C852.28 25.5875 852.119 25.4775 851.928 25.3969C851.737 25.3089 851.525 25.2649 851.29 25.2649H848.98ZM851.125 24.5389C851.543 24.5389 851.866 24.4289 852.093 24.2089C852.328 23.9815 852.445 23.6735 852.445 23.2849C852.445 22.9255 852.328 22.6359 852.093 22.4159C851.866 22.1885 851.543 22.0749 851.125 22.0749H848.98V24.5389H851.125ZM856.019 29.0049H855.249V21.3049H856.019V29.0049ZM857.452 27.5749C857.452 27.1349 857.584 26.7792 857.848 26.5079C858.112 26.2365 858.493 26.0605 858.992 25.9799L860.29 25.7159C860.466 25.6645 860.598 25.6059 860.686 25.5399C860.781 25.4665 860.829 25.3492 860.829 25.1879C860.829 25.0559 860.796 24.9385 860.73 24.8359C860.671 24.7259 860.59 24.6342 860.488 24.5609C860.385 24.4875 860.264 24.4325 860.125 24.3959C859.993 24.3519 859.853 24.3299 859.707 24.3299C859.435 24.3299 859.219 24.3739 859.058 24.4619C858.896 24.5499 858.775 24.6452 858.695 24.7479C858.599 24.8725 858.533 25.0119 858.497 25.1659H857.672C857.73 24.8799 857.84 24.6195 858.002 24.3849C858.141 24.1942 858.343 24.0182 858.607 23.8569C858.878 23.6955 859.245 23.6149 859.707 23.6149C860.059 23.6149 860.363 23.6662 860.62 23.7689C860.884 23.8715 861.104 24.0145 861.28 24.1979C861.456 24.3812 861.584 24.5975 861.665 24.8469C861.753 25.0962 861.797 25.3639 861.797 25.6499V29.0049H861.027V28.2129C860.909 28.3815 860.77 28.5319 860.609 28.6639C860.462 28.7739 860.282 28.8765 860.07 28.9719C859.864 29.0672 859.615 29.1149 859.322 29.1149C859.05 29.1149 858.797 29.0709 858.563 28.9829C858.335 28.8949 858.137 28.7812 857.969 28.6419C857.807 28.4952 857.679 28.3302 857.584 28.1469C857.496 27.9562 857.452 27.7655 857.452 27.5749ZM858.222 27.5199C858.222 27.7179 858.313 27.9049 858.497 28.0809C858.687 28.2569 858.962 28.3449 859.322 28.3449C859.842 28.3449 860.253 28.2055 860.554 27.9269C860.862 27.6409 861.016 27.1605 861.016 26.4859V26.1779C861.016 26.1632 861.008 26.1522 860.994 26.1449C860.979 26.1302 860.964 26.1302 860.95 26.1449C860.862 26.2329 860.737 26.3062 860.576 26.3649C860.414 26.4162 860.238 26.4602 860.048 26.4969C859.864 26.5262 859.681 26.5555 859.498 26.5849C859.314 26.6069 859.149 26.6362 859.003 26.6729C858.753 26.7389 858.559 26.8415 858.42 26.9809C858.288 27.1129 858.222 27.2925 858.222 27.5199ZM863.167 26.3649C863.167 25.9909 863.233 25.6389 863.365 25.3089C863.504 24.9789 863.691 24.6892 863.926 24.4399C864.168 24.1832 864.446 23.9815 864.762 23.8349C865.084 23.6882 865.433 23.6149 865.807 23.6149C866.107 23.6149 866.397 23.6625 866.676 23.7579C866.954 23.8532 867.204 23.9889 867.424 24.1649C867.644 24.3335 867.827 24.5389 867.974 24.7809C868.12 25.0229 868.208 25.2869 868.238 25.5729H867.49C867.468 25.4262 867.409 25.2795 867.314 25.1329C867.218 24.9862 867.097 24.8542 866.951 24.7369C866.804 24.6122 866.632 24.5132 866.434 24.4399C866.243 24.3665 866.034 24.3299 865.807 24.3299C865.55 24.3299 865.308 24.3812 865.081 24.4839C864.853 24.5865 864.655 24.7295 864.487 24.9129C864.318 25.0962 864.182 25.3125 864.08 25.5619C863.984 25.8112 863.937 26.0789 863.937 26.3649C863.937 26.6509 863.984 26.9185 864.08 27.1679C864.182 27.4172 864.318 27.6335 864.487 27.8169C864.655 28.0002 864.853 28.1432 865.081 28.2459C865.308 28.3485 865.55 28.3999 865.807 28.3999C866.034 28.3999 866.243 28.3632 866.434 28.2899C866.632 28.2092 866.804 28.1102 866.951 27.9929C867.097 27.8755 867.218 27.7435 867.314 27.5969C867.409 27.4429 867.468 27.2962 867.49 27.1569H868.238C868.208 27.4429 868.12 27.7069 867.974 27.9489C867.827 28.1835 867.644 28.3889 867.424 28.5649C867.204 28.7409 866.954 28.8765 866.676 28.9719C866.397 29.0672 866.107 29.1149 865.807 29.1149C865.433 29.1149 865.084 29.0415 864.762 28.8949C864.446 28.7482 864.168 28.5502 863.926 28.3009C863.691 28.0442 863.504 27.7509 863.365 27.4209C863.233 27.0909 863.167 26.7389 863.167 26.3649ZM869.558 29.0049V21.3049H870.328V26.5299L872.968 23.7249H873.903L871.868 25.8699L874.123 29.0049H873.243L871.373 26.4199L870.328 27.5199V29.0049H869.558Z" fill="#F2F2F2" fill-opacity="0.7"/>
<path d="M892.33 21.3049H893.21L895.245 27.7399L897.335 21.3049H898.105L900.195 27.7399L902.23 21.3049H903.11L900.58 29.0049H899.755L897.72 22.5699L895.685 29.0049H894.86L892.33 21.3049ZM905.09 21.3049V24.5609C905.208 24.3849 905.347 24.2272 905.508 24.0879C905.655 23.9632 905.835 23.8532 906.047 23.7579C906.26 23.6625 906.509 23.6149 906.795 23.6149C907.111 23.6149 907.397 23.6699 907.653 23.7799C907.917 23.8825 908.141 24.0329 908.324 24.2309C908.508 24.4215 908.651 24.6562 908.753 24.9349C908.856 25.2135 908.907 25.5252 908.907 25.8699V29.0049H908.137V25.8699C908.137 25.4005 908.009 25.0265 907.752 24.7479C907.496 24.4692 907.158 24.3299 906.74 24.3299C906.506 24.3299 906.286 24.3739 906.08 24.4619C905.882 24.5425 905.71 24.6599 905.563 24.8139C905.417 24.9679 905.299 25.1549 905.211 25.3749C905.131 25.5875 905.09 25.8259 905.09 26.0899V29.0049H904.32V21.3049H905.09ZM911.438 23.7249V29.0049H910.668V23.7249H911.438ZM910.668 21.5799H911.438V22.3499H910.668V21.5799ZM912.653 23.7249H913.698V21.9649H914.413V23.7249H915.568V24.4399H914.413V27.5749C914.413 27.8535 914.475 28.0625 914.6 28.2019C914.732 28.3339 914.908 28.3999 915.128 28.3999C915.231 28.3999 915.322 28.3925 915.403 28.3779C915.491 28.3632 915.568 28.3485 915.634 28.3339C915.707 28.3192 915.777 28.3009 915.843 28.2789V28.9939C915.777 29.0159 915.704 29.0379 915.623 29.0599C915.557 29.0745 915.476 29.0892 915.381 29.1039C915.293 29.1185 915.198 29.1259 915.095 29.1259C914.64 29.1259 914.285 28.9939 914.028 28.7299C913.771 28.4585 913.643 28.0735 913.643 27.5749V24.4399H912.653V23.7249ZM916.567 26.3649C916.567 25.9762 916.637 25.6169 916.776 25.2869C916.915 24.9495 917.102 24.6599 917.337 24.4179C917.579 24.1685 917.854 23.9742 918.162 23.8349C918.477 23.6882 918.807 23.6149 919.152 23.6149C919.511 23.6149 919.841 23.6809 920.142 23.8129C920.45 23.9449 920.714 24.1282 920.934 24.3629C921.161 24.5902 921.337 24.8652 921.462 25.1879C921.587 25.5105 921.649 25.8662 921.649 26.2549C921.649 26.3135 921.645 26.3649 921.638 26.4089C921.638 26.4529 921.634 26.4932 921.627 26.5299C921.612 26.5739 921.601 26.6142 921.594 26.6509L917.337 26.6399C917.352 26.8745 917.41 27.0982 917.513 27.3109C917.616 27.5235 917.751 27.7105 917.92 27.8719C918.089 28.0332 918.283 28.1615 918.503 28.2569C918.723 28.3522 918.958 28.3999 919.207 28.3999C919.471 28.3999 919.695 28.3669 919.878 28.3009C920.061 28.2275 920.212 28.1432 920.329 28.0479C920.446 27.9525 920.534 27.8609 920.593 27.7729C920.659 27.6849 920.696 27.6262 920.703 27.5969H921.616C921.477 27.8829 921.297 28.1359 921.077 28.3559C920.886 28.5465 920.637 28.7225 920.329 28.8839C920.028 29.0379 919.654 29.1149 919.207 29.1149C918.848 29.1149 918.507 29.0452 918.184 28.9059C917.869 28.7592 917.59 28.5649 917.348 28.3229C917.106 28.0735 916.915 27.7802 916.776 27.4429C916.637 27.1055 916.567 26.7462 916.567 26.3649ZM917.337 25.9799H920.879C920.85 25.7452 920.787 25.5289 920.692 25.3309C920.597 25.1255 920.476 24.9495 920.329 24.8029C920.182 24.6562 920.006 24.5425 919.801 24.4619C919.603 24.3739 919.387 24.3299 919.152 24.3299C918.917 24.3299 918.694 24.3739 918.481 24.4619C918.276 24.5499 918.092 24.6709 917.931 24.8249C917.77 24.9789 917.638 25.1549 917.535 25.3529C917.432 25.5509 917.366 25.7599 917.337 25.9799Z" fill="#F2F2F2" fill-opacity="0.7"/>
<path d="M941.155 29.0049V21.3049H941.98V24.7149H946.27V21.3049H947.095V29.0049H946.27V25.4849H941.98V29.0049H941.155ZM949.845 23.7249V29.0049H949.075V23.7249H949.845ZM949.075 21.5799H949.845V22.3499H949.075V21.5799ZM951.082 27.4649H951.819C951.834 27.6482 951.889 27.8095 951.984 27.9489C952.065 28.0735 952.186 28.1872 952.347 28.2899C952.508 28.3925 952.739 28.4439 953.04 28.4439C953.429 28.4439 953.718 28.3522 953.909 28.1689C954.1 27.9855 954.195 27.7692 954.195 27.5199C954.195 27.3145 954.122 27.1569 953.975 27.0469C953.836 26.9295 953.66 26.8342 953.447 26.7609C953.242 26.6802 953.014 26.6069 952.765 26.5409C952.516 26.4675 952.285 26.3759 952.072 26.2659C951.867 26.1559 951.691 26.0092 951.544 25.8259C951.405 25.6425 951.335 25.4005 951.335 25.0999C951.335 24.9092 951.375 24.7259 951.456 24.5499C951.544 24.3665 951.665 24.2052 951.819 24.0659C951.973 23.9265 952.156 23.8165 952.369 23.7359C952.589 23.6552 952.831 23.6149 953.095 23.6149C953.506 23.6149 953.832 23.6955 954.074 23.8569C954.316 24.0182 954.496 24.1942 954.613 24.3849C954.76 24.6195 954.855 24.8799 954.899 25.1659L954.162 25.1549C954.133 24.9935 954.074 24.8505 953.986 24.7259C953.913 24.6159 953.806 24.5169 953.667 24.4289C953.528 24.3409 953.337 24.2969 953.095 24.2969C952.941 24.2969 952.802 24.3225 952.677 24.3739C952.56 24.4179 952.457 24.4802 952.369 24.5609C952.288 24.6342 952.222 24.7185 952.171 24.8139C952.127 24.9092 952.105 25.0045 952.105 25.0999C952.105 25.2905 952.175 25.4409 952.314 25.5509C952.461 25.6609 952.637 25.7525 952.842 25.8259C953.055 25.8992 953.286 25.9725 953.535 26.0459C953.784 26.1119 954.012 26.2035 954.217 26.3209C954.43 26.4309 954.606 26.5812 954.745 26.7719C954.892 26.9625 954.965 27.2119 954.965 27.5199C954.965 27.7399 954.921 27.9489 954.833 28.1469C954.745 28.3375 954.617 28.5062 954.448 28.6529C954.287 28.7995 954.085 28.9169 953.843 29.0049C953.608 29.0855 953.341 29.1259 953.04 29.1259C952.798 29.1259 952.582 29.1002 952.391 29.0489C952.208 29.0049 952.046 28.9462 951.907 28.8729C951.775 28.7922 951.661 28.7005 951.566 28.5979C951.471 28.4952 951.39 28.3925 951.324 28.2899C951.185 28.0479 951.104 27.7729 951.082 27.4649ZM957.107 23.7249V24.6159C957.239 24.4325 957.4 24.2639 957.591 24.1099C957.752 23.9852 957.946 23.8715 958.174 23.7689C958.401 23.6662 958.669 23.6149 958.977 23.6149C959.307 23.6149 959.622 23.6882 959.923 23.8349C960.223 23.9742 960.487 24.1685 960.715 24.4179C960.949 24.6599 961.133 24.9495 961.265 25.2869C961.404 25.6169 961.474 25.9762 961.474 26.3649C961.474 26.7462 961.404 27.1055 961.265 27.4429C961.133 27.7802 960.949 28.0735 960.715 28.3229C960.487 28.5649 960.223 28.7592 959.923 28.9059C959.622 29.0452 959.307 29.1149 958.977 29.1149C958.669 29.1149 958.401 29.0635 958.174 28.9609C957.946 28.8509 957.752 28.7335 957.591 28.6089C957.4 28.4622 957.239 28.2935 957.107 28.1029V31.3149H956.337V23.7249H957.107ZM958.977 28.3999C959.197 28.3999 959.409 28.3485 959.615 28.2459C959.827 28.1432 960.011 28.0002 960.165 27.8169C960.326 27.6335 960.454 27.4172 960.55 27.1679C960.652 26.9185 960.704 26.6509 960.704 26.3649C960.704 26.0789 960.652 25.8112 960.55 25.5619C960.454 25.3125 960.326 25.0962 960.165 24.9129C960.011 24.7295 959.827 24.5865 959.615 24.4839C959.409 24.3812 959.197 24.3299 958.977 24.3299C958.742 24.3299 958.511 24.3849 958.284 24.4949C958.064 24.6049 957.866 24.7515 957.69 24.9349C957.514 25.1182 957.371 25.3345 957.261 25.5839C957.158 25.8259 957.107 26.0862 957.107 26.3649C957.107 26.6362 957.158 26.8965 957.261 27.1459C957.371 27.3952 957.514 27.6115 957.69 27.7949C957.866 27.9782 958.064 28.1249 958.284 28.2349C958.511 28.3449 958.742 28.3999 958.977 28.3999ZM962.461 27.5749C962.461 27.1349 962.593 26.7792 962.857 26.5079C963.121 26.2365 963.503 26.0605 964.001 25.9799L965.299 25.7159C965.475 25.6645 965.607 25.6059 965.695 25.5399C965.791 25.4665 965.838 25.3492 965.838 25.1879C965.838 25.0559 965.805 24.9385 965.739 24.8359C965.681 24.7259 965.6 24.6342 965.497 24.5609C965.395 24.4875 965.274 24.4325 965.134 24.3959C965.002 24.3519 964.863 24.3299 964.716 24.3299C964.445 24.3299 964.229 24.3739 964.067 24.4619C963.906 24.5499 963.785 24.6452 963.704 24.7479C963.609 24.8725 963.543 25.0119 963.506 25.1659H962.681C962.74 24.8799 962.85 24.6195 963.011 24.3849C963.151 24.1942 963.352 24.0182 963.616 23.8569C963.888 23.6955 964.254 23.6149 964.716 23.6149C965.068 23.6149 965.373 23.6662 965.629 23.7689C965.893 23.8715 966.113 24.0145 966.289 24.1979C966.465 24.3812 966.594 24.5975 966.674 24.8469C966.762 25.0962 966.806 25.3639 966.806 25.6499V29.0049H966.036V28.2129C965.919 28.3815 965.78 28.5319 965.618 28.6639C965.472 28.7739 965.292 28.8765 965.079 28.9719C964.874 29.0672 964.625 29.1149 964.331 29.1149C964.06 29.1149 963.807 29.0709 963.572 28.9829C963.345 28.8949 963.147 28.7812 962.978 28.6419C962.817 28.4952 962.689 28.3302 962.593 28.1469C962.505 27.9562 962.461 27.7655 962.461 27.5749ZM963.231 27.5199C963.231 27.7179 963.323 27.9049 963.506 28.0809C963.697 28.2569 963.972 28.3449 964.331 28.3449C964.852 28.3449 965.263 28.2055 965.563 27.9269C965.871 27.6409 966.025 27.1605 966.025 26.4859V26.1779C966.025 26.1632 966.018 26.1522 966.003 26.1449C965.989 26.1302 965.974 26.1302 965.959 26.1449C965.871 26.2329 965.747 26.3062 965.585 26.3649C965.424 26.4162 965.248 26.4602 965.057 26.4969C964.874 26.5262 964.691 26.5555 964.507 26.5849C964.324 26.6069 964.159 26.6362 964.012 26.6729C963.763 26.7389 963.569 26.8415 963.429 26.9809C963.297 27.1129 963.231 27.2925 963.231 27.5199ZM968.561 23.7249H969.331V24.5719C969.449 24.3959 969.588 24.2345 969.749 24.0879C969.896 23.9705 970.076 23.8642 970.288 23.7689C970.501 23.6662 970.75 23.6149 971.036 23.6149C971.352 23.6149 971.638 23.6699 971.894 23.7799C972.151 23.8825 972.371 24.0329 972.554 24.2309C972.738 24.4215 972.881 24.6562 972.983 24.9349C973.086 25.2135 973.137 25.5252 973.137 25.8699V29.0049H972.367V25.8699C972.367 25.4005 972.239 25.0265 971.982 24.7479C971.733 24.4692 971.399 24.3299 970.981 24.3299C970.747 24.3299 970.527 24.3739 970.321 24.4619C970.123 24.5425 969.951 24.6599 969.804 24.8139C969.658 24.9679 969.54 25.1549 969.452 25.3749C969.372 25.5875 969.331 25.8259 969.331 26.0899V29.0049H968.561V23.7249ZM975.669 23.7249V29.0049H974.899V23.7249H975.669ZM974.899 21.5799H975.669V22.3499H974.899V21.5799ZM977.049 26.3649C977.049 25.9909 977.115 25.6389 977.247 25.3089C977.387 24.9789 977.574 24.6892 977.808 24.4399C978.05 24.1832 978.329 23.9815 978.644 23.8349C978.967 23.6882 979.315 23.6149 979.689 23.6149C979.99 23.6149 980.28 23.6625 980.558 23.7579C980.837 23.8532 981.086 23.9889 981.306 24.1649C981.526 24.3335 981.71 24.5389 981.856 24.7809C982.003 25.0229 982.091 25.2869 982.12 25.5729H981.372C981.35 25.4262 981.292 25.2795 981.196 25.1329C981.101 24.9862 980.98 24.8542 980.833 24.7369C980.687 24.6122 980.514 24.5132 980.316 24.4399C980.126 24.3665 979.917 24.3299 979.689 24.3299C979.433 24.3299 979.191 24.3812 978.963 24.4839C978.736 24.5865 978.538 24.7295 978.369 24.9129C978.201 25.0962 978.065 25.3125 977.962 25.5619C977.867 25.8112 977.819 26.0789 977.819 26.3649C977.819 26.6509 977.867 26.9185 977.962 27.1679C978.065 27.4172 978.201 27.6335 978.369 27.8169C978.538 28.0002 978.736 28.1432 978.963 28.2459C979.191 28.3485 979.433 28.3999 979.689 28.3999C979.917 28.3999 980.126 28.3632 980.316 28.2899C980.514 28.2092 980.687 28.1102 980.833 27.9929C980.98 27.8755 981.101 27.7435 981.196 27.5969C981.292 27.4429 981.35 27.2962 981.372 27.1569H982.12C982.091 27.4429 982.003 27.7069 981.856 27.9489C981.71 28.1835 981.526 28.3889 981.306 28.5649C981.086 28.7409 980.837 28.8765 980.558 28.9719C980.28 29.0672 979.99 29.1149 979.689 29.1149C979.315 29.1149 978.967 29.0415 978.644 28.8949C978.329 28.7482 978.05 28.5502 977.808 28.3009C977.574 28.0442 977.387 27.7509 977.247 27.4209C977.115 27.0909 977.049 26.7389 977.049 26.3649Z" fill="#F2F2F2" fill-opacity="0.7"/>
<path d="M23.56 19.2249C24.244 19.2249 24.886 19.3149 25.486 19.4949C26.098 19.6629 26.65 19.9209 27.142 20.2689C27.634 20.6049 28.06 21.0249 28.42 21.5289C28.78 22.0329 29.056 22.6149 29.248 23.2749H27.142C26.818 22.5189 26.344 21.9549 25.72 21.5829C25.096 21.2109 24.376 21.0249 23.56 21.0249C22.9 21.0249 22.294 21.1509 21.742 21.4029C21.19 21.6429 20.716 21.9789 20.32 22.4109C19.924 22.8309 19.612 23.3289 19.384 23.9049C19.168 24.4689 19.06 25.0689 19.06 25.7049C19.084 26.3649 19.204 26.9829 19.42 27.5589C19.648 28.1229 19.954 28.6149 20.338 29.0349C20.734 29.4549 21.202 29.7849 21.742 30.0249C22.294 30.2649 22.9 30.3849 23.56 30.3849C24.388 30.3849 25.108 30.1989 25.72 29.8269C26.332 29.4549 26.806 28.8909 27.142 28.1349H29.248C29.056 28.7949 28.774 29.3829 28.402 29.8989C28.042 30.4029 27.61 30.8229 27.106 31.1589C26.614 31.4949 26.068 31.7529 25.468 31.9329C24.868 32.1009 24.232 32.1849 23.56 32.1849C22.624 32.1849 21.76 32.0169 20.968 31.6809C20.176 31.3449 19.492 30.8889 18.916 30.3129C18.34 29.7249 17.89 29.0409 17.566 28.2609C17.242 27.4689 17.08 26.6169 17.08 25.7049C17.08 24.7689 17.242 23.9049 17.566 23.1129C17.902 22.3209 18.358 21.6369 18.934 21.0609C19.522 20.4849 20.212 20.0349 21.004 19.7109C21.796 19.3869 22.648 19.2249 23.56 19.2249ZM30.3238 27.6849C30.3238 27.0729 30.4378 26.4969 30.6658 25.9569C30.8938 25.4169 31.2058 24.9429 31.6018 24.5349C31.9978 24.1149 32.4598 23.7849 32.9878 23.5449C33.5278 23.3049 34.1038 23.1849 34.7158 23.1849C35.3278 23.1849 35.8978 23.3049 36.4258 23.5449C36.9538 23.7849 37.4158 24.1149 37.8118 24.5349C38.2078 24.9429 38.5198 25.4169 38.7478 25.9569C38.9758 26.4969 39.0898 27.0729 39.0898 27.6849C39.0898 28.2969 38.9758 28.8729 38.7478 29.4129C38.5198 29.9529 38.2078 30.4329 37.8118 30.8529C37.4158 31.2609 36.9538 31.5849 36.4258 31.8249C35.8978 32.0649 35.3278 32.1849 34.7158 32.1849C34.1038 32.1849 33.5278 32.0649 32.9878 31.8249C32.4598 31.5849 31.9978 31.2609 31.6018 30.8529C31.2058 30.4329 30.8938 29.9529 30.6658 29.4129C30.4378 28.8729 30.3238 28.2969 30.3238 27.6849ZM34.7158 30.5649C35.0758 30.5649 35.4118 30.4929 35.7238 30.3489C36.0358 30.1929 36.3058 29.9889 36.5338 29.7369C36.7738 29.4729 36.9598 29.1669 37.0918 28.8189C37.2238 28.4709 37.2898 28.0929 37.2898 27.6849C37.2898 27.2769 37.2238 26.8989 37.0918 26.5509C36.9598 26.2029 36.7738 25.9029 36.5338 25.6509C36.3058 25.3869 36.0358 25.1829 35.7238 25.0389C35.4118 24.8829 35.0758 24.8049 34.7158 24.8049C34.3558 24.8049 34.0198 24.8829 33.7078 25.0389C33.3958 25.1829 33.1198 25.3869 32.8798 25.6509C32.6518 25.9029 32.4658 26.2029 32.3218 26.5509C32.1898 26.8989 32.1238 27.2769 32.1238 27.6849C32.1238 28.0929 32.1898 28.4709 32.3218 28.8189C32.4658 29.1669 32.6518 29.4729 32.8798 29.7369C33.1198 29.9889 33.3958 30.1929 33.7078 30.3489C34.0198 30.4929 34.3558 30.5649 34.7158 30.5649ZM41.0411 23.3829H42.8411V24.3369C42.8411 24.3609 42.8531 24.3789 42.8771 24.3909C42.9011 24.4029 42.9251 24.3969 42.9491 24.3729C43.0091 24.2889 43.1051 24.1809 43.2371 24.0489C43.3691 23.9169 43.5311 23.7909 43.7231 23.6709C43.9151 23.5389 44.1311 23.4309 44.3711 23.3469C44.6231 23.2509 44.8931 23.2029 45.1811 23.2029C45.5771 23.2029 45.9191 23.2629 46.2071 23.3829C46.5071 23.4909 46.7531 23.6229 46.9451 23.7789C47.1371 23.9229 47.2871 24.0729 47.3951 24.2289C47.5151 24.3729 47.5931 24.4809 47.6291 24.5529C47.6651 24.6129 47.6951 24.6129 47.7191 24.5529C47.7671 24.4689 47.8631 24.3549 48.0071 24.2109C48.1631 24.0549 48.3611 23.9049 48.6011 23.7609C48.8531 23.6049 49.1471 23.4729 49.4831 23.3649C49.8191 23.2569 50.2031 23.2029 50.6351 23.2029C51.6311 23.2029 52.3871 23.5149 52.9031 24.1389C53.4311 24.7629 53.6951 25.7109 53.6951 26.9829V32.0049H51.8951V26.9829C51.8951 25.5429 51.3551 24.8229 50.2751 24.8229C49.7351 24.8229 49.2671 25.0389 48.8711 25.4709C48.4871 25.9029 48.2951 26.5269 48.2951 27.3429V32.0049H46.4951V26.9829C46.4951 26.2629 46.3511 25.7229 46.0631 25.3629C45.7751 25.0029 45.3611 24.8229 44.8211 24.8229C44.2811 24.8229 43.8131 25.0389 43.4171 25.4709C43.0331 25.9029 42.8411 26.5269 42.8411 27.3429V32.0049H41.0411V23.3829ZM56.211 23.3649H58.011V24.4269C58.011 24.4629 58.023 24.4869 58.047 24.4989C58.071 24.5109 58.095 24.5049 58.119 24.4809C58.203 24.3969 58.323 24.2829 58.479 24.1389C58.635 23.9949 58.827 23.8509 59.055 23.7069C59.283 23.5629 59.541 23.4429 59.829 23.3469C60.129 23.2389 60.453 23.1849 60.801 23.1849C61.365 23.1849 61.893 23.3049 62.385 23.5449C62.889 23.7729 63.327 24.0909 63.699 24.4989C64.071 24.8949 64.365 25.3689 64.581 25.9209C64.797 26.4609 64.905 27.0489 64.905 27.6849C64.905 28.3089 64.797 28.8969 64.581 29.4489C64.365 30.0009 64.071 30.4809 63.699 30.8889C63.327 31.2849 62.889 31.6029 62.385 31.8429C61.893 32.0709 61.365 32.1849 60.801 32.1849C60.453 32.1849 60.129 32.1429 59.829 32.0589C59.529 31.9749 59.259 31.8789 59.019 31.7709C58.791 31.6509 58.599 31.5309 58.443 31.4109C58.287 31.2909 58.173 31.1949 58.101 31.1229C58.077 31.0989 58.053 31.0929 58.029 31.1049C58.017 31.1169 58.011 31.1349 58.011 31.1589V35.7849H56.211V23.3649ZM60.621 30.5649C60.957 30.5649 61.275 30.4929 61.575 30.3489C61.875 30.1929 62.139 29.9889 62.367 29.7369C62.595 29.4729 62.775 29.1669 62.907 28.8189C63.039 28.4709 63.105 28.0929 63.105 27.6849C63.105 27.2769 63.039 26.8989 62.907 26.5509C62.775 26.2029 62.595 25.9029 62.367 25.6509C62.139 25.3869 61.875 25.1829 61.575 25.0389C61.275 24.8829 60.957 24.8049 60.621 24.8049C60.285 24.8049 59.961 24.8829 59.649 25.0389C59.337 25.1829 59.055 25.3869 58.803 25.6509C58.563 25.9029 58.371 26.2029 58.227 26.5509C58.083 26.8989 58.011 27.2769 58.011 27.6849C58.011 28.0929 58.083 28.4709 58.227 28.8189C58.371 29.1669 58.563 29.4729 58.803 29.7369C59.055 29.9889 59.337 30.1929 59.649 30.3489C59.961 30.4929 60.285 30.5649 60.621 30.5649ZM70.7509 23.1849C71.3629 23.1849 71.9209 23.2929 72.4249 23.5089C72.9409 23.7129 73.3789 24.0069 73.7389 24.3909C74.1109 24.7629 74.3989 25.2069 74.6029 25.7229C74.8189 26.2389 74.9269 26.8029 74.9269 27.4149C74.9269 27.5469 74.9209 27.6669 74.9089 27.7749C74.8969 27.8829 74.8849 27.9789 74.8729 28.0629C74.8609 28.1589 74.8489 28.2429 74.8369 28.3149H68.1949C68.2429 28.6029 68.3389 28.8849 68.4829 29.1609C68.6269 29.4369 68.8129 29.6769 69.0409 29.8809C69.2689 30.0849 69.5329 30.2529 69.8329 30.3849C70.1449 30.5049 70.4809 30.5649 70.8409 30.5649C71.2729 30.5649 71.6149 30.5229 71.8669 30.4389C72.1309 30.3429 72.3349 30.2409 72.4789 30.1329C72.6469 30.0129 72.7669 29.8749 72.8389 29.7189H74.8189C74.5909 30.1749 74.2909 30.5829 73.9189 30.9429C73.6069 31.2549 73.1989 31.5429 72.6949 31.8069C72.1909 32.0589 71.5729 32.1849 70.8409 32.1849C70.2289 32.1849 69.6529 32.0649 69.1129 31.8249C68.5849 31.5849 68.1169 31.2549 67.7089 30.8349C67.3009 30.4149 66.9769 29.9289 66.7369 29.3769C66.5089 28.8129 66.3949 28.2189 66.3949 27.5949C66.3949 26.9829 66.5089 26.4129 66.7369 25.8849C66.9649 25.3449 67.2709 24.8769 67.6549 24.4809C68.0509 24.0849 68.5129 23.7729 69.0409 23.5449C69.5689 23.3049 70.1389 23.1849 70.7509 23.1849ZM68.2669 26.7849H73.1629C73.0549 26.1969 72.7969 25.7049 72.3889 25.3089C71.9809 24.9129 71.4349 24.7149 70.7509 24.7149C70.0669 24.7149 69.5149 24.9129 69.0949 25.3089C68.6869 25.7049 68.4109 26.1969 68.2669 26.7849ZM76.9532 32.0049V23.3649H78.7532V24.3369C78.7532 24.3609 78.7652 24.3849 78.7892 24.4089C78.8132 24.4209 78.8372 24.4149 78.8612 24.3909C78.9452 24.3069 79.0592 24.1989 79.2032 24.0669C79.3472 23.9349 79.5212 23.8029 79.7252 23.6709C79.9412 23.5389 80.1872 23.4249 80.4632 23.3289C80.7392 23.2329 81.0392 23.1849 81.3632 23.1849C82.4072 23.1849 83.2292 23.5209 83.8292 24.1929C84.4412 24.8649 84.7472 25.7889 84.7472 26.9649V32.0049H82.9472V26.9649C82.9472 26.3289 82.7672 25.8129 82.4072 25.4169C82.0592 25.0089 81.5912 24.8049 81.0032 24.8049C80.3192 24.8049 79.7732 25.0209 79.3652 25.4529C78.9572 25.8849 78.7532 26.5089 78.7532 27.3249V32.0049H76.9532ZM86.5164 29.4849H88.2624C88.2984 29.7249 88.3764 29.9349 88.4964 30.1149C88.6044 30.2709 88.7604 30.4149 88.9644 30.5469C89.1804 30.6789 89.4744 30.7449 89.8464 30.7449C90.3504 30.7449 90.7224 30.6129 90.9624 30.3489C91.2144 30.0849 91.3404 29.7969 91.3404 29.4849C91.3404 29.2089 91.2264 28.9989 90.9984 28.8549C90.7824 28.6989 90.5064 28.5669 90.1704 28.4589C89.8464 28.3509 89.4924 28.2429 89.1084 28.1349C88.7244 28.0269 88.3644 27.8769 88.0284 27.6849C87.7044 27.4929 87.4284 27.2409 87.2004 26.9289C86.9844 26.6169 86.8764 26.2089 86.8764 25.7049C86.8764 25.3929 86.9424 25.0869 87.0744 24.7869C87.2184 24.4749 87.4164 24.2049 87.6684 23.9769C87.9204 23.7369 88.2264 23.5449 88.5864 23.4009C88.9584 23.2569 89.3664 23.1849 89.8104 23.1849C90.5664 23.1849 91.1604 23.3169 91.5924 23.5809C92.0244 23.8449 92.3484 24.1329 92.5644 24.4449C92.8044 24.8289 92.9604 25.2549 93.0324 25.7229L91.4304 25.7049C91.4184 25.5009 91.3524 25.3209 91.2324 25.1649C91.1364 25.0329 90.9744 24.9129 90.7464 24.8049C90.5304 24.6849 90.2184 24.6249 89.8104 24.6249C89.6064 24.6249 89.4264 24.6609 89.2704 24.7329C89.1264 24.8049 89.0004 24.8949 88.8924 25.0029C88.7964 25.1109 88.7244 25.2309 88.6764 25.3629C88.6284 25.4829 88.6044 25.5969 88.6044 25.7049C88.6044 25.9689 88.7184 26.1789 88.9464 26.3349C89.1744 26.4789 89.4564 26.6109 89.7924 26.7309C90.1284 26.8389 90.4884 26.9469 90.8724 27.0549C91.2684 27.1629 91.6344 27.3129 91.9704 27.5049C92.3064 27.6969 92.5824 27.9489 92.7984 28.2609C93.0264 28.5609 93.1404 28.9689 93.1404 29.4849C93.1404 29.8449 93.0684 30.1869 92.9244 30.5109C92.7804 30.8349 92.5704 31.1229 92.2944 31.3749C92.0184 31.6269 91.6704 31.8249 91.2504 31.9689C90.8424 32.1129 90.3744 32.1849 89.8464 32.1849C89.4384 32.1849 89.0724 32.1429 88.7484 32.0589C88.4364 31.9869 88.1604 31.8909 87.9204 31.7709C87.6924 31.6389 87.4944 31.4949 87.3264 31.3389C87.1704 31.1709 87.0384 31.0029 86.9304 30.8349C86.6904 30.4389 86.5524 29.9889 86.5164 29.4849ZM97.0387 26.9649C97.3627 26.9169 97.7107 26.8689 98.0827 26.8209C98.4547 26.7729 98.7967 26.7129 99.1087 26.6409C99.4327 26.5569 99.6967 26.4549 99.9007 26.3349C100.117 26.2149 100.225 26.0589 100.225 25.8669C100.225 25.4709 100.081 25.1589 99.7927 24.9309C99.5047 24.7029 99.0727 24.5889 98.4967 24.5889C98.2087 24.6009 97.9447 24.6489 97.7047 24.7329C97.5007 24.7929 97.2967 24.9009 97.0927 25.0569C96.9007 25.2129 96.7567 25.4409 96.6607 25.7409H95.0407C95.1247 25.2849 95.3047 24.8769 95.5807 24.5169C95.8087 24.2049 96.1447 23.9109 96.5887 23.6349C97.0327 23.3589 97.6327 23.2089 98.3887 23.1849C98.9287 23.1609 99.4207 23.2209 99.8647 23.3649C100.309 23.4969 100.687 23.7069 100.999 23.9949C101.311 24.2709 101.551 24.6129 101.719 25.0209C101.899 25.4289 101.989 25.8969 101.989 26.4249V32.0049H100.189V31.1049C99.9847 31.3089 99.7507 31.4889 99.4867 31.6449C99.2587 31.7769 98.9827 31.8969 98.6587 32.0049C98.3467 32.1249 97.9867 32.1849 97.5787 32.1849C97.1347 32.1849 96.7207 32.1129 96.3367 31.9689C95.9647 31.8249 95.6407 31.6389 95.3647 31.4109C95.1007 31.1709 94.8907 30.9009 94.7347 30.6009C94.5907 30.2889 94.5187 29.9769 94.5187 29.6649C94.5187 28.9449 94.7407 28.3449 95.1847 27.8649C95.6287 27.3729 96.2467 27.0729 97.0387 26.9649ZM97.8487 30.6189C98.5687 30.6189 99.1387 30.4269 99.5587 30.0429C99.9787 29.6469 100.189 28.9809 100.189 28.0449V27.6309C100.189 27.6069 100.177 27.5889 100.153 27.5769C100.141 27.5529 100.123 27.5529 100.099 27.5769C99.9787 27.6969 99.8047 27.7989 99.5767 27.8829C99.3487 27.9549 99.1087 28.0149 98.8567 28.0629C98.6047 28.0989 98.3467 28.1349 98.0827 28.1709C97.8307 28.2069 97.6027 28.2549 97.3987 28.3149C97.0507 28.4109 96.7807 28.5549 96.5887 28.7469C96.4087 28.9269 96.3187 29.1729 96.3187 29.4849C96.3187 29.7609 96.4447 30.0189 96.6967 30.2589C96.9607 30.4989 97.3447 30.6189 97.8487 30.6189ZM105.596 23.3649V20.4849H107.216V23.3649H109.016V24.9849H107.216V29.4669C107.216 29.7909 107.318 30.0549 107.522 30.2589C107.726 30.4629 107.984 30.5649 108.296 30.5649C108.416 30.5649 108.524 30.5589 108.62 30.5469C108.728 30.5349 108.824 30.5169 108.908 30.4929C109.016 30.4809 109.112 30.4629 109.196 30.4389V32.0769C109.088 32.1009 108.968 32.1189 108.836 32.1309C108.62 32.1669 108.32 32.1849 107.936 32.1849C107.12 32.1849 106.496 31.9629 106.064 31.5189C105.632 31.0629 105.416 30.3849 105.416 29.4849V24.9849H103.796V23.3649H105.596ZM113.244 23.3649V32.0049H111.462V23.3649H113.244ZM111.462 21.5649V19.7649H113.244V21.5649H111.462ZM115.332 27.6849C115.332 27.0729 115.446 26.4969 115.674 25.9569C115.902 25.4169 116.214 24.9429 116.61 24.5349C117.006 24.1149 117.468 23.7849 117.996 23.5449C118.536 23.3049 119.112 23.1849 119.724 23.1849C120.336 23.1849 120.906 23.3049 121.434 23.5449C121.962 23.7849 122.424 24.1149 122.82 24.5349C123.216 24.9429 123.528 25.4169 123.756 25.9569C123.984 26.4969 124.098 27.0729 124.098 27.6849C124.098 28.2969 123.984 28.8729 123.756 29.4129C123.528 29.9529 123.216 30.4329 122.82 30.8529C122.424 31.2609 121.962 31.5849 121.434 31.8249C120.906 32.0649 120.336 32.1849 119.724 32.1849C119.112 32.1849 118.536 32.0649 117.996 31.8249C117.468 31.5849 117.006 31.2609 116.61 30.8529C116.214 30.4329 115.902 29.9529 115.674 29.4129C115.446 28.8729 115.332 28.2969 115.332 27.6849ZM119.724 30.5649C120.084 30.5649 120.42 30.4929 120.732 30.3489C121.044 30.1929 121.314 29.9889 121.542 29.7369C121.782 29.4729 121.968 29.1669 122.1 28.8189C122.232 28.4709 122.298 28.0929 122.298 27.6849C122.298 27.2769 122.232 26.8989 122.1 26.5509C121.968 26.2029 121.782 25.9029 121.542 25.6509C121.314 25.3869 121.044 25.1829 120.732 25.0389C120.42 24.8829 120.084 24.8049 119.724 24.8049C119.364 24.8049 119.028 24.8829 118.716 25.0389C118.404 25.1829 118.128 25.3869 117.888 25.6509C117.66 25.9029 117.474 26.2029 117.33 26.5509C117.198 26.8989 117.132 27.2769 117.132 27.6849C117.132 28.0929 117.198 28.4709 117.33 28.8189C117.474 29.1669 117.66 29.4729 117.888 29.7369C118.128 29.9889 118.404 30.1929 118.716 30.3489C119.028 30.4929 119.364 30.5649 119.724 30.5649ZM126.049 32.0049V23.3649H127.849V24.3369C127.849 24.3609 127.861 24.3849 127.885 24.4089C127.909 24.4209 127.933 24.4149 127.957 24.3909C128.041 24.3069 128.155 24.1989 128.299 24.0669C128.443 23.9349 128.617 23.8029 128.821 23.6709C129.037 23.5389 129.283 23.4249 129.559 23.3289C129.835 23.2329 130.135 23.1849 130.459 23.1849C131.503 23.1849 132.325 23.5209 132.925 24.1929C133.537 24.8649 133.843 25.7889 133.843 26.9649V32.0049H132.043V26.9649C132.043 26.3289 131.863 25.8129 131.503 25.4169C131.155 25.0089 130.687 24.8049 130.099 24.8049C129.415 24.8049 128.869 25.0209 128.461 25.4529C128.053 25.8849 127.849 26.5089 127.849 27.3249V32.0049H126.049ZM136.17 29.8809H138.294V32.0049H136.17V29.8809ZM138.294 23.3649V25.4889H136.17V23.3649H138.294ZM144.714 32.0049V19.4049H153.624V21.2049H146.694V24.5349H152.184V26.3349H146.694V30.2049H153.804V32.0049H144.714ZM156.959 23.3649V20.4849H158.579V23.3649H160.379V24.9849H158.579V29.4669C158.579 29.7909 158.681 30.0549 158.885 30.2589C159.089 30.4629 159.347 30.5649 159.659 30.5649C159.779 30.5649 159.887 30.5589 159.983 30.5469C160.091 30.5349 160.187 30.5169 160.271 30.4929C160.379 30.4809 160.475 30.4629 160.559 30.4389V32.0769C160.451 32.1009 160.331 32.1189 160.199 32.1309C159.983 32.1669 159.683 32.1849 159.299 32.1849C158.483 32.1849 157.859 31.9629 157.427 31.5189C156.995 31.0629 156.779 30.3849 156.779 29.4849V24.9849H155.159V23.3649H156.959ZM162.897 32.0049V19.4049H164.697V24.3369C164.697 24.3609 164.709 24.3789 164.733 24.3909C164.757 24.4029 164.781 24.3969 164.805 24.3729C164.865 24.2769 164.967 24.1629 165.111 24.0309C165.255 23.8989 165.435 23.7729 165.651 23.6529C165.867 23.5209 166.113 23.4129 166.389 23.3289C166.677 23.2329 166.983 23.1849 167.307 23.1849C168.351 23.1849 169.173 23.5209 169.773 24.1929C170.385 24.8649 170.691 25.7889 170.691 26.9649V32.0049H168.891V26.9649C168.891 26.3289 168.711 25.8129 168.351 25.4169C168.003 25.0089 167.535 24.8049 166.947 24.8049C166.263 24.8049 165.717 25.0209 165.309 25.4529C164.901 25.8849 164.697 26.5089 164.697 27.3249V32.0049H162.897ZM173.193 32.0049V23.3649H174.993V24.3369C174.993 24.3609 175.005 24.3849 175.029 24.4089C175.053 24.4209 175.077 24.4149 175.101 24.3909C175.185 24.3069 175.299 24.1989 175.443 24.0669C175.587 23.9349 175.761 23.8029 175.965 23.6709C176.181 23.5389 176.427 23.4249 176.703 23.3289C176.979 23.2329 177.279 23.1849 177.603 23.1849C178.647 23.1849 179.469 23.5209 180.069 24.1929C180.681 24.8649 180.987 25.7889 180.987 26.9649V32.0049H179.187V26.9649C179.187 26.3289 179.007 25.8129 178.647 25.4169C178.299 25.0089 177.831 24.8049 177.243 24.8049C176.559 24.8049 176.013 25.0209 175.605 25.4529C175.197 25.8849 174.993 26.5089 174.993 27.3249V32.0049H173.193ZM185.367 23.3649V32.0049H183.585V23.3649H185.367ZM183.585 21.5649V19.7649H185.367V21.5649H183.585ZM191.829 23.1849C192.321 23.1849 192.789 23.2629 193.233 23.4189C193.689 23.5749 194.097 23.7969 194.457 24.0849C194.817 24.3609 195.111 24.6969 195.339 25.0929C195.579 25.4889 195.723 25.9209 195.771 26.3889H193.935C193.851 25.9089 193.611 25.5129 193.215 25.2009C192.831 24.8889 192.369 24.7329 191.829 24.7329C191.469 24.7329 191.133 24.8109 190.821 24.9669C190.509 25.1229 190.233 25.3389 189.993 25.6149C189.765 25.8789 189.579 26.1909 189.435 26.5509C189.303 26.8989 189.237 27.2769 189.237 27.6849C189.237 28.0929 189.303 28.4769 189.435 28.8369C189.579 29.1849 189.765 29.4909 189.993 29.7549C190.233 30.0189 190.509 30.2289 190.821 30.3849C191.133 30.5409 191.469 30.6189 191.829 30.6189C192.369 30.6189 192.831 30.4689 193.215 30.1689C193.611 29.8569 193.851 29.4609 193.935 28.9809H195.771C195.723 29.4489 195.579 29.8809 195.339 30.2769C195.111 30.6729 194.817 31.0149 194.457 31.3029C194.097 31.5789 193.689 31.7949 193.233 31.9509C192.789 32.1069 192.321 32.1849 191.829 32.1849C191.217 32.1849 190.641 32.0649 190.101 31.8249C189.573 31.5849 189.111 31.2609 188.715 30.8529C188.319 30.4329 188.007 29.9529 187.779 29.4129C187.551 28.8729 187.437 28.2969 187.437 27.6849C187.437 27.0729 187.551 26.4969 187.779 25.9569C188.007 25.4169 188.319 24.9429 188.715 24.5349C189.111 24.1149 189.573 23.7849 190.101 23.5449C190.641 23.3049 191.217 23.1849 191.829 23.1849ZM199.57 23.3649V32.0049H197.788V23.3649H199.57ZM197.788 21.5649V19.7649H199.57V21.5649H197.788ZM203.26 23.3649V20.4849H204.88V23.3649H206.68V24.9849H204.88V29.4669C204.88 29.7909 204.982 30.0549 205.186 30.2589C205.39 30.4629 205.648 30.5649 205.96 30.5649C206.08 30.5649 206.188 30.5589 206.284 30.5469C206.392 30.5349 206.488 30.5169 206.572 30.4929C206.68 30.4809 206.776 30.4629 206.86 30.4389V32.0769C206.752 32.1009 206.632 32.1189 206.5 32.1309C206.284 32.1669 205.984 32.1849 205.6 32.1849C204.784 32.1849 204.16 31.9629 203.728 31.5189C203.296 31.0629 203.08 30.3849 203.08 29.4849V24.9849H201.46V23.3649H203.26ZM209.828 23.3649L212.294 29.5209C212.306 29.5449 212.324 29.5569 212.348 29.5569C212.372 29.5569 212.39 29.5449 212.402 29.5209L214.868 23.3649H216.758L212.888 32.9049C212.672 33.4449 212.456 33.9009 212.24 34.2729C212.024 34.6449 211.796 34.9449 211.556 35.1729C211.328 35.4009 211.076 35.5629 210.8 35.6589C210.536 35.7549 210.242 35.8029 209.918 35.8029H208.658V34.1649C208.742 34.1649 208.838 34.1709 208.946 34.1829H209.558C209.918 34.1829 210.218 34.0689 210.458 33.8409C210.71 33.6249 210.92 33.3129 211.088 32.9049L211.448 32.0049L207.938 23.3649H209.828Z" fill="#F2F2F2"/>
</svg>
