<svg width="583" height="440" viewBox="0 0 583 440" fill="none" xmlns="http://www.w3.org/2000/svg">
<path d="M201.113 315.191C200.226 315.863 198.961 315.682 198.298 314.789L164.387 269.066C163.738 268.191 163.909 266.956 164.773 266.291L224.893 219.975C225.77 219.299 227.03 219.465 227.702 220.344L262.633 266.026C263.306 266.906 263.136 268.165 262.253 268.834L201.113 315.191Z" fill="#1A1A1D"/>
<path d="M200.755 313.299L165.627 267.898L225.597 222.523L260.725 267.924L200.755 313.299Z" fill="#909095"/>
<circle cx="216.5" cy="246.504" r="5" fill="#3A3A3D" stroke="#F2F2F2"/>
<circle cx="202.5" cy="256.504" r="5.5" fill="#3A3A3D"/>
<circle cx="211.5" cy="269.504" r="5" fill="#3A3A3D" stroke="#F2F2F2"/>
<circle cx="225.5" cy="259.504" r="5.5" fill="#3A3A3D"/>
<circle cx="233.5" cy="271.504" r="5" fill="#3A3A3D" stroke="#F2F2F2"/>
<circle cx="219.5" cy="281.504" r="5.5" fill="#3A3A3D"/>
<path d="M231.208 353.425C219.918 358.26 209.199 355.103 198.258 343.475C190.292 334.996 181.912 325.924 173.774 316.296C160.859 301.017 149.733 283.946 139.598 268.96C128.722 251.574 141.802 242.967 141.802 242.967L149.783 218.402L132.252 210.152C113.082 208.702 94.2176 219.838 73.7631 245.938C50.5201 274.946 55.1232 319.955 98.0924 370.801C141.061 421.646 190.691 435.64 220.346 421.647C250.193 408.025 260.891 375.432 263.181 364.818C265.791 352.746 246.249 346.982 231.208 353.425Z" fill="#A4F0F4"/>
<path d="M197.036 241.346L204.446 235.71C204.446 235.71 196.794 237.102 187.173 232.466C177.552 227.83 145.295 205.752 121.281 210.73C140.908 214.216 147.006 231.566 141.807 242.959C151.335 238.209 162.304 242.088 170.164 246.245C177.552 250.159 183.249 252.238 183.249 252.238L190.759 246.602C197.648 248.288 203.37 249.102 206.33 245.602C207.885 243.759 202.449 243.431 197.036 241.346Z" fill="#F0C78A"/>
<path d="M259.871 301.562C252.725 289.991 242.264 279.002 236.195 277.123C238.099 294.247 230.342 297.1 235.253 301.987C238.641 305.359 246.962 317.448 247.875 322.898C249.152 330.498 245.843 347.948 231.208 353.427C244.894 356.677 260.506 377.498 252.974 390.727C265.063 372.427 272.095 355.677 272.138 341.298C272.181 328.141 267.395 313.748 259.871 301.562Z" fill="#F0C78A"/>
<path d="M244.66 282.647C237.628 272.704 228.769 268.901 230.602 274.551C232.442 280.201 237.45 290.908 237.45 290.908L244.66 282.647Z" fill="#F0C78A"/>
<ellipse cx="140.999" cy="331.077" rx="47.0379" ry="47.071" fill="#FFE1D0"/>
<path d="M174.159 372.936C200.376 351.657 195.773 317.634 183.652 303.589C168.787 286.367 140.767 267.65 109.501 293.021C91.949 307.264 86.2435 330.707 93.6678 350.815C94.0102 351.736 93.2185 352.693 92.2557 352.486C84.4177 350.8 75.9093 352.55 69.191 358C50.8619 372.879 45.5201 403.972 51.1115 419.136C52.06 421.708 55.3835 422.344 57.245 420.322C76.0163 400.001 85.138 414.322 102.633 401.422C110.314 395.758 114.243 387.093 113.958 378.4C113.93 377.436 114.942 376.808 115.777 377.293C133.707 387.879 157.042 386.836 174.159 372.936Z" fill="#262629"/>
<circle cx="232" cy="73.0039" r="63" fill="#EDEDF1"/>
<circle cx="393" cy="138.004" r="63" fill="#EDEDF1"/>
<circle cx="443" cy="300.004" r="63" fill="#EDEDF1"/>
<circle cx="232" cy="79.0039" r="30" fill="#E5BD97"/>
<circle cx="393" cy="150.004" r="30" fill="#D5A28D"/>
<ellipse cx="393.5" cy="105.004" rx="13.5" ry="13" fill="#FF5C17"/>
<ellipse cx="443" cy="306.504" rx="30" ry="29.5" fill="#60463D"/>
<path d="M262.5 75.5039C253.5 66.0068 254 61.5039 249.5 54.483C249.5 69.631 204.691 79.5039 202.061 74.001C202.061 67.3946 201.361 59.6687 204.691 54.483C210.666 45.1763 220.564 40.5039 232.5 40.5039C251.087 40.5039 262.5 57.041 262.5 75.5039Z" fill="#FFD93B"/>
<path d="M423 147.004C415.632 122.385 414.579 135.004 393 133.956C376.158 133.956 372.474 121.879 363 146.004C363 127.489 368.263 113.004 393 113.004C416.158 113.004 423 128.489 423 147.004Z" fill="#FF5C17"/>
<path d="M475.808 280.512C476.405 277.278 470.933 277.847 470.603 274.807C470.231 271.357 469.776 271.146 468.362 268.07C466.865 264.808 462.493 267.339 460.197 264.894C457.173 261.675 458.774 262.827 454.988 261.251C450.835 259.519 449.958 262.699 445.621 262.293C442.026 261.958 439.314 257.314 436.252 258.65C432.585 260.25 432.046 262.982 428.446 264.894C424.838 266.812 421.113 264.805 416.995 266.976C412.842 269.166 420.187 271.117 410.747 276.345C409.189 277.206 409.344 278.349 411.789 285.196C412.484 287.143 408.489 290.11 408.666 292.999C411.856 296.642 410.82 301.151 413.35 301.671C423.762 287.794 421.653 289.876 441.458 289.876C464.88 289.876 464.88 288.835 472.164 302.372C476.459 299.608 473.335 300.764 475.808 298.103C478.196 295.532 473.797 294.665 475.808 291.962C477.865 289.195 473.535 287.465 474.767 285.196C475.798 283.314 475.291 283.308 475.808 280.512Z" fill="#262629"/>
</svg>
