<svg width="262" height="272" viewBox="0 0 262 272" fill="none" xmlns="http://www.w3.org/2000/svg">
<circle cx="52.497" cy="52.0556" r="52.0517" fill="#EDEDF1"/>
<circle cx="52.497" cy="209.036" r="52.0517" fill="#EDEDF1"/>
<circle cx="209.478" cy="209.036" r="52.0517" fill="#EDEDF1"/>
<circle cx="209.478" cy="52.0556" r="52.0517" fill="#EDEDF1"/>
<ellipse cx="52.4974" cy="210.276" rx="24.7865" ry="24.3734" fill="#FFE1D0"/>
<ellipse cx="209.477" cy="214.409" rx="24.7865" ry="24.3734" fill="#60463D"/>
<path d="M236.584 192.931C237.078 190.259 232.556 190.729 232.284 188.218C231.977 185.367 231.601 185.193 230.433 182.652C229.196 179.956 225.583 182.048 223.686 180.028C221.188 177.368 222.511 178.32 219.383 177.017C215.951 175.587 215.227 178.214 211.643 177.878C208.673 177.602 206.433 173.765 203.903 174.868C200.873 176.191 200.427 178.448 197.453 180.028C194.472 181.612 191.395 179.954 187.992 181.748C184.561 183.557 190.63 185.169 182.83 189.488C181.543 190.2 181.671 191.144 183.691 196.801C184.265 198.41 180.965 200.861 181.111 203.248C183.746 206.259 182.89 209.984 184.981 210.413C193.583 198.948 191.84 200.668 208.204 200.668C227.556 200.668 227.556 199.808 233.574 210.992C237.123 208.709 234.541 209.664 236.584 207.465C238.558 205.341 234.923 204.625 236.584 202.392C238.284 200.106 234.707 198.676 235.724 196.801C236.577 195.246 236.158 195.241 236.584 192.931Z" fill="#262629"/>
<path d="M236.33 91.681C240.225 91.681 243.387 94.8426 243.387 98.7382C243.387 99.6557 243.203 100.517 242.879 101.321L247 105.443C249.132 103.664 250.811 101.364 251.842 98.7382C249.4 92.542 243.373 88.1523 236.316 88.1523C234.34 88.1523 232.448 88.5052 230.698 89.1404L233.747 92.1891C234.551 91.8645 235.412 91.681 236.33 91.681ZM222.215 87.8277L225.433 91.0458L226.083 91.6951C223.74 93.5159 221.905 95.9436 220.804 98.7382C223.246 104.935 229.272 109.324 236.33 109.324C238.517 109.324 240.606 108.901 242.512 108.139L243.105 108.731L247.24 112.853L249.033 111.06L224.008 86.0352L222.215 87.8277ZM230.021 95.633L232.208 97.8208C232.138 98.1172 232.095 98.4277 232.095 98.7382C232.095 101.081 233.987 102.973 236.33 102.973C236.64 102.973 236.951 102.93 237.247 102.86L239.435 105.047C238.489 105.513 237.445 105.796 236.33 105.796C232.434 105.796 229.272 102.634 229.272 98.7382C229.272 97.6232 229.555 96.5787 230.021 95.633ZM236.104 94.5321L240.55 98.9782L240.578 98.7524C240.578 96.4093 238.687 94.518 236.344 94.518L236.104 94.5321Z" fill="#FF5C17"/>
<circle cx="52.4974" cy="54.1224" r="24.7865" fill="#E5BD97"/>
<circle cx="208.652" cy="56.1849" r="24.7865" fill="#D5A28D"/>
<ellipse cx="209.065" cy="22.3131" rx="11.1539" ry="10.7408" fill="#FF5C17"/>
<path d="M77.6971 51.2301C70.2611 43.3834 70.6742 39.6631 66.9562 33.8623C66.9562 46.3778 29.934 54.535 27.7616 49.9884C27.7616 44.53 27.1832 38.1468 29.934 33.8623C34.8708 26.1729 43.0485 22.3125 52.9105 22.3125C68.2676 22.3125 77.6971 35.9757 77.6971 51.2301Z" fill="#FFD93B"/>
<path d="M233.438 57.0152C227.35 36.6745 226.481 47.1006 208.652 46.235C194.737 46.235 191.693 36.2564 183.865 56.189C183.865 40.8918 188.214 28.9238 208.652 28.9238C227.785 28.9238 233.438 41.7181 233.438 57.0152Z" fill="#FF5C17"/>
<path d="M77.2839 210.687C72.3266 185.901 58.281 193.75 52.4974 193.75C46.7139 193.75 34.3207 182.596 27.7109 209.861C27.7109 194.564 32.0594 182.596 52.4974 182.596C71.6309 182.596 77.2839 195.39 77.2839 210.687Z" fill="#60453D"/>
<path d="M65.7168 246.668L78.11 241.26L90.5033 246.668V254.78C90.5033 262.283 85.2155 269.3 78.11 271.004C71.0046 269.3 65.7168 262.283 65.7168 254.78V246.668Z" fill="#335AFF"/>
<path d="M65.7168 87.2087L78.11 81.8008L90.5033 87.2087V95.3207C90.5033 102.824 85.2155 109.841 78.11 111.545C71.0046 109.841 65.7168 102.824 65.7168 95.3207V87.2087Z" fill="#335AFF"/>
<path d="M227.655 244.187L240.049 238.779L252.442 244.187V252.299C252.442 259.803 247.154 266.82 240.049 268.523C232.943 266.82 227.655 259.803 227.655 252.299V244.187Z" fill="#335AFF"/>
<path d="M76.4564 258.749L73.0111 255.304L71.8379 256.469L76.4564 261.087L86.371 251.173L85.2061 250.008L76.4564 258.749Z" fill="white"/>
<path d="M76.4564 99.2922L73.0111 95.8468L71.8379 97.0118L76.4564 101.63L86.371 91.7157L85.2061 90.5508L76.4564 99.2922Z" fill="white"/>
<path d="M238.396 256.271L234.951 252.825L233.777 253.99L238.396 258.609L248.31 248.694L247.146 247.529L238.396 256.271Z" fill="white"/>
</svg>
