<svg width="290" height="319" viewBox="0 0 290 319" fill="none" xmlns="http://www.w3.org/2000/svg">
<rect x="0.983276" y="24.9507" width="68.2025" height="199.881" rx="4" fill="white"/>
<path d="M0.983276 126.918L69.1858 126.918L69.1858 221.508C69.1858 223.717 67.395 225.508 65.1858 225.508L4.98327 225.508C2.77413 225.508 0.983276 223.717 0.983276 221.508L0.983276 126.918Z" fill="white"/>
<rect x="111.728" y="24.9507" width="67.5273" height="199.881" rx="4" fill="white"/>
<path d="M111.728 126.917L179.255 126.917L179.255 221.506C179.255 223.715 177.464 225.506 175.255 225.506L115.728 225.506C113.519 225.506 111.728 223.715 111.728 221.506L111.728 126.917Z" fill="white"/>
<rect x="221.798" y="24.9507" width="68.2025" height="199.881" rx="4" fill="white"/>
<path d="M221.798 126.918L290 126.918L290 221.508C290 223.717 288.209 225.508 286 225.508L225.798 225.508C223.588 225.508 221.798 223.717 221.798 221.508L221.798 126.918Z" fill="white"/>
<path d="M59.9993 211.709C51.8683 211.11 41.1007 209.355 40.8897 216.054C40.6786 222.754 44.5153 224.849 64.5929 223.598L59.9993 211.709Z" fill="#262629"/>
<path d="M83.6009 206.735C68.4035 207.362 51.5545 207.323 51.4914 216.982C51.4282 226.641 71.8486 229.177 84.8391 228.135L83.6009 206.735Z" fill="#E78282"/>
<path d="M152.774 197.901C162.063 199.176 166.775 199.049 166.98 192.079C167.18 185.23 158.709 187.051 153.085 187.32L152.774 197.901Z" fill="#262629"/>
<path d="M117.143 181.08C141.14 183.597 154.814 180.012 154.906 191.728C154.997 203.444 151.539 202.044 118.641 204.566L117.143 181.08Z" fill="#E78282"/>
<rect width="18.1016" height="89.4343" rx="3" transform="matrix(-0.000431191 1.22475 -0.707105 0.000248856 127.805 147.249)" fill="#262629"/>
<path d="M95.0256 166.802C98.446 166.787 101.208 164.194 101.195 161.01C101.182 157.827 98.3992 155.258 94.9788 155.272C91.5584 155.287 88.7961 157.88 88.809 161.063C88.8219 164.247 91.6052 166.816 95.0256 166.802Z" fill="#E5BD97"/>
<path d="M90.8315 251.306C94.0771 253.31 98.0647 252.739 99.7379 250.03C101.411 247.321 100.136 243.5 96.8908 241.496C93.6451 239.491 89.6576 240.063 87.9844 242.772C86.3112 245.481 87.5859 249.302 90.8315 251.306Z" fill="#E5BD97"/>
<path d="M98.1854 159.688C105.137 159.443 119.465 168.459 120.345 202.149C121.225 235.838 105.504 253.05 97.1556 248.858C88.8072 244.666 83.3179 241.897 83.0761 203.463C82.8343 165.029 90.0086 159.979 98.1854 159.688Z" fill="#FFB4B4"/>
<path d="M121.521 220.916C123.334 219.103 122.522 217.55 123.654 215.452C124.94 213.073 127.66 212.567 128.112 209.967C128.592 207.21 125.514 206.197 125.12 203.611C124.602 200.208 127.317 198.996 125.582 196.311C123.681 193.363 120.708 194.69 118.102 192.512C115.942 190.708 115.473 187.56 112.917 187.065C109.855 186.471 108.452 188.168 105.295 187.804C102.131 187.441 101.66 184.118 98.0559 183.692C94.4207 183.262 93.4589 187.543 85.0864 186.727C79.4774 186.18 72.1581 199.372 77.93 205.382C71.5426 208.876 77.6944 224.181 85.2305 225.187C93.1588 226.245 92.9503 228.429 96.9689 228.556C100.948 228.68 101.6 226.034 104.364 225.419C107.034 224.823 108.89 226.932 111.375 226.085C113.92 225.218 114.449 223.112 116.243 222.199C117.737 221.447 119.954 222.483 121.521 220.916Z" fill="#79594F"/>
<path d="M211.976 73.0014C211.976 73.0014 228.778 63.9926 233.569 61.2376C238.357 58.4825 238.559 57.9591 240.344 55.9596C242.314 53.7575 243.606 53.9061 248.392 54.9544C251.465 55.627 251.211 61.8327 250.335 63.5268C249.335 65.466 245.766 66.7751 243.872 66.8018C240.98 66.8464 236.719 69.4019 233.024 72.478C227.601 76.9938 216.917 86.9242 212.851 88.7687C205.166 92.2554 193.748 91.237 187.787 82.8612L211.976 73.0014Z" fill="#4E331A"/>
<path d="M237.56 36.2373C245.691 36.836 256.459 38.5916 256.67 31.8919C256.881 25.1922 253.044 23.0968 232.967 24.3482L237.56 36.2373Z" fill="#1A1A1D"/>
<path d="M213.956 41.213C229.153 40.5864 246.002 40.6254 246.066 30.9664C246.129 21.3075 225.708 18.7712 212.718 19.8129L213.956 41.213Z" fill="#909095"/>
<path d="M144.783 50.0475C135.494 48.7724 130.782 48.899 130.577 55.8692C130.378 62.7183 138.848 60.8974 144.472 60.6284L144.783 50.0475Z" fill="#1A1A1D"/>
<path d="M180.414 66.8659C156.417 64.3495 142.743 67.9344 142.651 56.2181C142.56 44.5019 146.018 45.9026 178.916 43.3804L180.414 66.8659Z" fill="#909095"/>
<path d="M198.086 88.5048C190.387 88.5392 174.874 79.2945 175.147 46.3247C175.421 13.355 193.448 -3.00765 202.526 1.33869C211.608 5.68503 217.578 8.55811 216.421 46.1477C215.268 83.7373 207.142 88.4679 198.086 88.5048Z" fill="#FF5C17"/>
<path d="M162.62 44.1102C162.631 61.611 164.314 78.6403 176.1 78.6437L175.865 78.6436C178.57 78.6444 180.759 75.8402 180.758 72.3787L180.743 21.6918C180.742 18.2304 178.549 15.4249 175.847 15.4241C164.696 15.4209 162.609 26.6457 162.62 44.1102Z" fill="#262629"/>
<path d="M215.187 24.9345L175.734 31.5809C174.82 31.7351 173.948 31.1148 173.792 30.1929L173.056 25.8402C172.901 24.9213 173.517 24.0474 174.435 23.8927L213.887 17.2463C214.802 17.0922 215.674 17.7124 215.83 18.6343L216.565 22.9871C216.721 23.9089 216.105 24.7799 215.187 24.9345Z" fill="#262629"/>
<path d="M196.454 66.8714C210.224 68.3061 218.756 57.1086 219.314 49.5222C219.999 40.2194 217.303 26.6678 200.882 24.9552C191.664 23.9939 183.212 29.1349 179.534 37.1166C179.366 37.4829 178.859 37.5308 178.64 37.1915C176.856 34.4299 173.882 32.4697 170.354 32.1013C160.726 31.0988 150.161 38.5628 147.385 44.5801C146.914 45.6006 147.693 46.7487 148.819 46.7025C160.154 46.2554 158.645 53.0522 167.458 54.3862C171.327 54.9718 174.979 53.5998 177.417 50.9972C177.688 50.7094 178.164 50.8209 178.265 51.2037C180.393 59.4718 187.461 65.9369 196.454 66.8714Z" fill="#FFAFFF"/>
<rect x="265.413" y="47.7158" width="12.7692" height="24.0218" rx="1" transform="rotate(90 265.413 47.7158)" fill="#1A1A1D" stroke="#909095" stroke-width="2"/>
</svg>
