<svg width="56" height="49" viewBox="0 0 56 49" fill="none" xmlns="http://www.w3.org/2000/svg">
<path d="M49.4697 48.5352C49.7626 48.8281 50.2374 48.8281 50.5303 48.5352L55.3033 43.7622C55.5962 43.4693 55.5962 42.9945 55.3033 42.7016C55.0104 42.4087 54.5355 42.4087 54.2426 42.7016L50 46.9442L45.7574 42.7016C45.4645 42.4087 44.9896 42.4087 44.6967 42.7016C44.4038 42.9945 44.4038 43.4693 44.6967 43.7622L49.4697 48.5352ZM0 1.75488H30V0.254883H0V1.75488ZM49.25 21.0049V48.0049H50.75V21.0049H49.25ZM30 1.75488C40.6315 1.75488 49.25 10.3734 49.25 21.0049H50.75C50.75 9.54497 41.4599 0.254883 30 0.254883V1.75488Z" fill="black"/>
</svg>
