<svg width="56" height="89" viewBox="0 0 56 89" fill="none" xmlns="http://www.w3.org/2000/svg">
<path d="M49.4697 88.5352C49.7626 88.8281 50.2374 88.8281 50.5303 88.5352L55.3033 83.7622C55.5962 83.4693 55.5962 82.9945 55.3033 82.7016C55.0104 82.4087 54.5355 82.4087 54.2426 82.7016L50 86.9442L45.7574 82.7016C45.4645 82.4087 44.9896 82.4087 44.6967 82.7016C44.4038 82.9945 44.4038 83.4693 44.6967 83.7622L49.4697 88.5352ZM0 1.75488H30V0.254883H0V1.75488ZM49.25 21.0049V88.0049H50.75V21.0049H49.25ZM30 1.75488C40.6315 1.75488 49.25 10.3734 49.25 21.0049H50.75C50.75 9.54498 41.4599 0.254883 30 0.254883V1.75488Z" fill="black"/>
</svg>
