<svg width="51" height="105" viewBox="0 0 51 105" fill="none" xmlns="http://www.w3.org/2000/svg">
<path d="M44.4697 104.535C44.7626 104.828 45.2374 104.828 45.5303 104.535L50.3033 99.7622C50.5962 99.4693 50.5962 98.9945 50.3033 98.7016C50.0104 98.4087 49.5355 98.4087 49.2426 98.7016L45 102.944L40.7574 98.7016C40.4645 98.4087 39.9896 98.4087 39.6967 98.7016C39.4038 98.9945 39.4038 99.4693 39.6967 99.7622L44.4697 104.535ZM0 1.75488H25V0.254883H0V1.75488ZM44.25 21.0049V104.005H45.75V21.0049H44.25ZM25 1.75488C35.6315 1.75488 44.25 10.3734 44.25 21.0049H45.75C45.75 9.54497 36.4599 0.254883 25 0.254883V1.75488Z" fill="black"/>
</svg>
