<svg width="191" height="144" viewBox="0 0 191 144" fill="none" xmlns="http://www.w3.org/2000/svg">
<path d="M105.367 13.6547L27.623 75.6641L29.4416 77.9372L107.186 15.9278L105.367 13.6547Z" fill="#335AFF"/>
<path d="M29.3576 81.6975L27.5391 83.9707L86.2742 130.818L88.0927 128.545L29.3576 81.6975Z" fill="#335AFF"/>
<path d="M107.074 26.4285C113.506 26.4285 118.72 21.2092 118.72 14.7709C118.72 8.33257 113.506 3.11328 107.074 3.11328C100.641 3.11328 95.4272 8.33257 95.4272 14.7709C95.4272 21.2092 100.641 26.4285 107.074 26.4285Z" fill="#FFD93B"/>
<path d="M86.3861 139.745C92.8182 139.745 98.0324 134.526 98.0324 128.087C98.0324 121.649 92.8182 116.43 86.3861 116.43C79.954 116.43 74.7397 121.649 74.7397 128.087C74.7397 134.526 79.954 139.745 86.3861 139.745Z" fill="#A836F8"/>
<path d="M177.587 88.9793C184.019 88.9793 189.233 83.76 189.233 77.3217C189.233 70.8834 184.019 65.6641 177.587 65.6641C171.155 65.6641 165.94 70.8834 165.94 77.3217C165.94 83.76 171.155 88.9793 177.587 88.9793Z" fill="#A3F0F4"/>
<path d="M166.088 78.8489H157.346V75.9395L166.088 75.9395V78.8489ZM154.433 78.8489H145.691V75.9395H154.433V78.8489ZM142.777 78.8489H134.036V75.9395H142.777V78.8489ZM131.122 78.8489H122.381V75.9395H131.122V78.8489ZM119.467 78.8489H110.725V75.9395H119.467V78.8489ZM107.812 78.8489H99.0702V75.9395H107.812V78.8489ZM96.1564 78.8489H87.415V75.9395H96.1564V78.8489ZM84.5012 78.8489H75.7597V75.9395H84.5012V78.8489ZM72.8459 78.8489H64.1045V75.9395H72.8459V78.8489ZM61.1907 78.8489H52.4493V75.9395H61.1907V78.8489ZM49.5355 78.8489H40.7941V75.9395H49.5355V78.8489ZM37.8802 78.8489H37.5889V75.9395H37.8802V78.8489Z" fill="#335AFF"/>
<path d="M25.0587 102.418C38.8983 102.418 50.1175 91.2153 50.1175 77.3964C50.1175 63.5774 38.8983 52.375 25.0587 52.375C11.2192 52.375 0 63.5774 0 77.3964C0 91.2153 11.2192 102.418 25.0587 102.418Z" fill="white"/>
<path d="M25.0592 96.1629C35.4389 96.1629 43.8532 87.7611 43.8532 77.3969C43.8532 67.0327 35.4389 58.6309 25.0592 58.6309C14.6795 58.6309 6.26514 67.0327 6.26514 77.3969C6.26514 87.7611 14.6795 96.1629 25.0592 96.1629Z" fill="#335AFF"/>
</svg>
