<svg width="215" height="215" viewBox="0 0 215 215" fill="none" xmlns="http://www.w3.org/2000/svg">
<g clip-path="url(#clip0)">
<path d="M107.581 0C48.0645 0 0 48.0645 0 107.581H215C215 48.0645 166.935 0 107.581 0Z" fill="#A3F0F4"/>
<path d="M107.581 215.002C166.935 215.002 215.161 166.937 215.161 107.421L0 107.582C0 166.937 48.0645 215.002 107.581 215.002Z" fill="#FFD93B"/>
<path d="M137.42 185.16C180.324 185.16 215.001 150.482 215.001 107.579H59.8398C59.8398 150.321 94.5173 185.16 137.42 185.16Z" fill="#335AFF"/>
<path d="M107.582 59.8398C81.2915 59.8398 59.8398 81.2915 59.8398 107.582H155.324C155.324 81.1302 133.872 59.8398 107.582 59.8398Z" fill="#F9D2FF"/>
</g>
<defs>
<clipPath id="clip0">
<rect width="215" height="215" fill="white"/>
</clipPath>
</defs>
</svg>
