<svg width="120" height="119" viewBox="0 0 120 119" fill="none" xmlns="http://www.w3.org/2000/svg">
<path d="M0 59C0 26.3861 27 0 60 0C93 0 120 26.3861 120 59H0Z" fill="#FFD93B"/>
<path d="M89.711 110.813V58.9795H79.7432V115.479C83.2319 114.313 86.5545 112.646 89.711 110.813Z" fill="#A3F0F4"/>
<path d="M120 58.9795H112.969V86.3128C117.288 78.1461 120 68.8128 120 58.9795Z" fill="#A3F0F4"/>
<path d="M106.491 96.4794V58.9795H96.5229V106.479C100.178 103.479 103.5 100.146 106.491 96.4794Z" fill="#A3F0F4"/>
<path d="M73.0977 117.479V58.9795H63.1299V118.979C66.6186 118.646 69.9412 118.146 73.0977 117.479Z" fill="#A3F0F4"/>
<path d="M56.4839 118.979V58.9795H46.5161V117.479C49.6726 118.313 53.1613 118.813 56.4839 118.979Z" fill="#A3F0F4"/>
<path d="M6.6452 86.3128V58.9795H0C0 68.8128 2.32582 78.1461 6.6452 86.3128Z" fill="#A3F0F4"/>
<path d="M23.2583 106.313V58.9795H13.2905V96.6462C16.1147 100.146 19.6035 103.48 23.2583 106.313Z" fill="#A3F0F4"/>
<path d="M39.8711 115.479V58.9795H29.9033V110.979C33.0598 112.646 36.3824 114.313 39.8711 115.479Z" fill="#A3F0F4"/>
</svg>
