<svg width="44" height="44" viewBox="0 0 44 44" fill="none" xmlns="http://www.w3.org/2000/svg">
<path d="M34.8333 0H9.16667C4.10483 0 0 4.10483 0 9.16667V34.8333C0 39.8952 4.10483 44 9.16667 44H34.8333C39.897 44 44 39.8952 44 34.8333V9.16667C44 4.10483 39.897 0 34.8333 0ZM29.3333 12.8333H25.806C24.6785 12.8333 23.8333 13.2953 23.8333 14.4632V16.5H29.3333L28.897 22H23.8333V36.6667H18.3333V22H14.6667V16.5H18.3333V12.9745C18.3333 9.2675 20.284 7.33333 24.6785 7.33333H29.3333V12.8333Z" fill="#F2F2F2" fill-opacity="0.24"/>
</svg>
