<svg width="44" height="44" viewBox="0 0 44 44" fill="none" xmlns="http://www.w3.org/2000/svg">
<path d="M34.8333 0H9.16667C4.10483 0 0 4.10483 0 9.16667V34.8333C0 39.8952 4.10483 44 9.16667 44H34.8333C39.897 44 44 39.8952 44 34.8333V9.16667C44 4.10483 39.897 0 34.8333 0ZM14.6667 34.8333H9.16667V14.6667H14.6667V34.8333ZM11.9167 12.342C10.1457 12.342 8.70833 10.8937 8.70833 9.108C8.70833 7.32233 10.1457 5.874 11.9167 5.874C13.6877 5.874 15.125 7.32233 15.125 9.108C15.125 10.8937 13.6895 12.342 11.9167 12.342ZM36.6667 34.8333H31.1667V24.5593C31.1667 18.3847 23.8333 18.8522 23.8333 24.5593V34.8333H18.3333V14.6667H23.8333V17.9025C26.3927 13.1615 36.6667 12.8113 36.6667 22.4418V34.8333Z" fill="#F2F2F2" fill-opacity="0.24"/>
</svg>
