<svg width="22" height="29" viewBox="0 0 22 29" fill="none" xmlns="http://www.w3.org/2000/svg">
<path d="M19.0002 9.67122H17.6668V7.00456C17.6668 3.32456 14.6802 0.337891 11.0002 0.337891C7.32016 0.337891 4.3335 3.32456 4.3335 7.00456V9.67122H3.00016C1.5335 9.67122 0.333496 10.8712 0.333496 12.3379V25.6712C0.333496 27.1379 1.5335 28.3379 3.00016 28.3379H19.0002C20.4668 28.3379 21.6668 27.1379 21.6668 25.6712V12.3379C21.6668 10.8712 20.4668 9.67122 19.0002 9.67122ZM11.0002 21.6712C9.5335 21.6712 8.3335 20.4712 8.3335 19.0046C8.3335 17.5379 9.5335 16.3379 11.0002 16.3379C12.4668 16.3379 13.6668 17.5379 13.6668 19.0046C13.6668 20.4712 12.4668 21.6712 11.0002 21.6712ZM15.1335 9.67122H6.86683V7.00456C6.86683 4.72456 8.72016 2.87122 11.0002 2.87122C13.2802 2.87122 15.1335 4.72456 15.1335 7.00456V9.67122Z" fill="#A4F0F4"/>
</svg>
