<svg width="262" height="240" viewBox="0 0 262 240" fill="none" xmlns="http://www.w3.org/2000/svg">
<path d="M86.2916 175.981C85.4049 176.653 84.1398 176.473 83.4769 175.579L65.5297 151.381C64.8802 150.505 65.0518 149.271 65.9155 148.605L98.2011 123.733C99.0783 123.057 100.338 123.223 101.01 124.102L119.5 148.282C120.173 149.162 120.002 150.421 119.119 151.091L86.2916 175.981Z" fill="#1A1A1D"/>
<path d="M85.3826 175.461L65.7095 150.035L99.2948 124.623L118.968 150.049L85.3826 175.461Z" fill="#909095"/>
<circle cx="94.2003" cy="138.051" r="2.58021" fill="#3A3A3D" stroke="#F2F2F2"/>
<circle cx="86.36" cy="143.652" r="3.08021" fill="#3A3A3D"/>
<circle cx="91.4005" cy="150.934" r="2.58021" fill="#3A3A3D" stroke="#F2F2F2"/>
<circle cx="99.2409" cy="145.332" r="3.08021" fill="#3A3A3D"/>
<circle cx="103.722" cy="152.053" r="2.58021" fill="#3A3A3D" stroke="#F2F2F2"/>
<circle cx="95.8805" cy="157.654" r="3.08021" fill="#3A3A3D"/>
<path d="M102.437 197.931C96.1144 200.639 90.1111 198.871 83.9841 192.359C79.5226 187.61 74.8295 182.53 70.2722 177.137C63.0387 168.581 56.8078 159.02 51.1321 150.627C45.041 140.891 52.3663 136.07 52.3663 136.07L56.8358 122.313L47.0181 117.693C36.2818 116.881 25.7173 123.117 14.262 137.734C1.24506 153.98 3.82295 179.187 27.8873 207.662C51.9513 236.137 79.7463 243.974 96.354 236.138C113.07 228.509 119.061 210.256 120.343 204.311C121.805 197.551 110.861 194.323 102.437 197.931Z" fill="#A4F0F4"/>
<path d="M83.3007 135.164L87.4506 132.008C87.4506 132.008 83.1652 132.787 77.7771 130.191C72.3889 127.595 54.3233 115.23 40.875 118.018C51.8669 119.97 55.2819 129.687 52.3702 136.067C57.7064 133.407 63.8494 135.579 68.251 137.908C72.3889 140.1 75.5791 141.264 75.5791 141.264L79.785 138.108C83.6433 139.052 86.8478 139.508 88.5054 137.548C89.3761 136.516 86.3322 136.332 83.3007 135.164Z" fill="#F0C78A"/>
<path d="M118.49 168.888C114.488 162.407 108.629 156.253 105.23 155.201C106.297 164.791 101.953 166.389 104.703 169.126C106.6 171.014 111.261 177.785 111.772 180.837C112.487 185.093 110.634 194.866 102.438 197.934C110.102 199.754 118.846 211.415 114.628 218.824C121.398 208.575 125.336 199.194 125.36 191.142C125.384 183.773 122.704 175.712 118.49 168.888Z" fill="#F0C78A"/>
<path d="M109.972 158.294C106.034 152.725 101.073 150.595 102.099 153.759C103.13 156.924 105.934 162.92 105.934 162.92L109.972 158.294Z" fill="#F0C78A"/>
<ellipse cx="51.9167" cy="185.414" rx="26.343" ry="26.3615" fill="#FFE1D0"/>
<path d="M70.4883 208.858C85.1708 196.941 82.5929 177.886 75.8045 170.021C67.48 160.376 51.7876 149.893 34.2772 164.102C24.4476 172.079 21.2523 185.208 25.4102 196.469C25.6019 196.985 25.1586 197.521 24.6193 197.405C20.2298 196.461 15.4647 197.441 11.7022 200.493C1.43725 208.826 -1.55437 226.239 1.57705 234.732C2.10827 236.172 3.96955 236.528 5.01203 235.396C15.5247 224.015 20.6332 232.035 30.4308 224.811C34.7326 221.639 36.9333 216.786 36.7736 211.918C36.7576 211.378 37.3248 211.026 37.7921 211.298C47.8334 217.226 60.9023 216.642 70.4883 208.858Z" fill="#262629"/>
<circle cx="108.482" cy="35.2863" r="35.2824" fill="#EDEDF1"/>
<circle cx="198.648" cy="66.091" r="35.2824" fill="#EDEDF1"/>
<circle cx="226.65" cy="162.415" r="35.2824" fill="#EDEDF1"/>
<circle cx="108.482" cy="38.6468" r="16.8011" fill="#E5BD97"/>
<circle cx="198.648" cy="72.8089" r="16.8011" fill="#D5A28D"/>
<ellipse cx="198.928" cy="47.6067" rx="7.56051" ry="7.28049" fill="#FF5C17"/>
<ellipse cx="226.65" cy="166.054" rx="16.8011" ry="16.5211" fill="#60463D"/>
<path d="M125.563 36.6853C120.523 31.3666 120.803 28.8448 118.282 24.9128C118.282 33.3963 93.1875 38.9254 91.715 35.8436C91.715 32.1438 91.323 27.817 93.1875 24.9128C96.5339 19.7007 102.077 17.084 108.762 17.084C119.171 17.084 125.563 26.3454 125.563 36.6853Z" fill="#FFD93B"/>
<path d="M215.449 71.1292C211.322 57.3416 210.733 64.4087 198.648 63.822C189.216 63.822 187.152 57.0582 181.847 70.5691C181.847 60.2002 184.794 52.0879 198.648 52.0879C211.617 52.0879 215.449 60.7602 215.449 71.1292Z" fill="#FF5C17"/>
<path d="M245.023 151.498C245.358 149.687 242.293 150.005 242.108 148.303C241.9 146.371 241.645 146.253 240.854 144.53C240.015 142.703 237.567 144.121 236.281 142.751C234.587 140.949 235.484 141.594 233.364 140.711C231.038 139.741 230.547 141.522 228.117 141.295C226.104 141.107 224.586 138.506 222.871 139.254C220.817 140.15 220.515 141.68 218.499 142.751C216.478 143.826 214.392 142.701 212.086 143.917C209.76 145.144 213.874 146.237 208.587 149.164C207.715 149.646 207.801 150.287 209.17 154.121C209.56 155.211 207.323 156.873 207.421 158.491C209.208 160.532 208.628 163.057 210.045 163.348C215.876 155.576 214.694 156.742 225.786 156.742C238.903 156.742 238.903 156.159 242.983 163.74C245.388 162.193 243.638 162.84 245.023 161.349C246.361 159.91 243.898 159.424 245.023 157.911C246.176 156.361 243.751 155.392 244.44 154.121C245.018 153.067 244.734 153.064 245.023 151.498Z" fill="#262629"/>
</svg>
