<svg width="43" height="32" viewBox="0 0 43 32" fill="none" xmlns="http://www.w3.org/2000/svg">
<path d="M43 3.7881C41.4179 4.43061 39.7176 4.86486 37.9331 5.06016C39.7546 4.06031 41.1533 2.47715 41.812 0.590806C40.1075 1.51648 38.2195 2.1888 36.21 2.55118C34.6007 0.981123 32.308 0 29.7706 0C24.8984 0 20.9484 3.61699 20.9484 8.07828C20.9484 8.71143 21.0266 9.32802 21.1769 9.91925C13.845 9.58237 7.34456 6.36621 2.99344 1.47874C2.23407 2.67188 1.79902 4.05959 1.79902 5.54006C1.79902 8.34272 3.35661 10.8154 5.72374 12.264C4.27751 12.2221 2.91731 11.8587 1.72777 11.2537C1.72714 11.2874 1.72714 11.3212 1.72714 11.3552C1.72714 15.2693 4.76808 18.5345 8.80384 19.2765C8.0635 19.4612 7.28416 19.5598 6.47949 19.5598C5.91106 19.5598 5.35837 19.5093 4.81983 19.4149C5.94236 22.6245 9.20035 24.96 13.0607 25.0253C10.0415 27.1919 6.23759 28.4834 2.10447 28.4834C1.39244 28.4834 0.690164 28.4452 0 28.3706C3.90411 30.6627 8.54133 32 13.5233 32C29.75 32 38.6234 19.6903 38.6234 9.01504C38.6234 8.66476 38.6149 8.31636 38.5979 7.96997C40.3214 6.83099 41.8172 5.40813 43 3.7881Z" fill="#F2F2F2" fill-opacity="0.24"/>
</svg>
